<svg width="301" height="145" viewBox="0 0 301 145" fill="none" xmlns="http://www.w3.org/2000/svg">
<path d="M3.46289 67.38L3.55886 69.2557C3.55886 69.2557 13.5222 65.068 19.5072 68.1303C19.7165 68.5142 20.1004 68.7584 20.5279 68.8021L23.0057 69.0289C23.5379 69.0638 24.0439 68.7672 24.2707 68.2786C24.2707 68.2786 30.1684 65.4868 36.2668 68.6974L38.5788 69.7443L34.0508 45.9527L5.54804 40.4912L3.46289 67.38Z" fill="#E0E0E0"/>
<path d="M1.86719 64.7452L1.96316 68.1215C1.96316 68.1215 11.8392 62.2238 21.724 68.3135L19.2114 52.0947C19.2027 52.0947 2.61749 61.3077 1.86719 64.7452Z" fill="#EBEBEB"/>
<path d="M0 40.3168C0 40.3168 11.8391 31.2084 20.7991 43.9287L21.7239 68.3135C21.7239 68.3135 10.8968 57.3207 0.767752 65.4694L0 40.3168Z" fill="#F5F5F5"/>
<path d="M21.7239 68.3134C21.7239 68.3134 31.9315 61.805 39.3124 68.706L37.1836 46.4325L20.834 44.7661L21.7239 68.3134Z" fill="#EBEBEB"/>
<path d="M20.7812 43.9462C20.7812 43.9462 24.3059 36.0593 31.7915 36.827L36.5812 37.4814L39.1462 59.8596C39.1462 59.8596 27.4118 58.5073 21.7148 68.3398L20.7812 43.9462Z" fill="#F5F5F5"/>
<path d="M21.7243 68.3137C21.6981 68.3137 21.6632 67.9735 21.6196 67.3627C21.5847 66.6648 21.5324 65.7924 21.48 64.7629C21.3841 62.4771 21.2532 59.4846 21.1049 56.1693C20.9653 52.854 20.8344 49.8615 20.7297 47.5757C20.6861 46.5375 20.6425 45.665 20.6163 44.9758C20.5901 44.3564 20.5901 44.0161 20.625 44.0161C20.6512 44.0161 20.7036 44.3476 20.7734 44.9671C20.8431 45.5778 20.9217 46.4677 21.0176 47.567C21.1921 49.7655 21.3666 52.8016 21.5062 56.1606C21.6458 59.5195 21.733 62.5556 21.7679 64.7541C21.7854 65.8534 21.7941 66.7433 21.7854 67.3627C21.7679 67.9735 21.7505 68.3137 21.7243 68.3137Z" fill="#E0E0E0"/>
<path d="M34.0341 41.1633C34.0254 41.2331 33.2664 41.0935 32.0537 41.111C30.841 41.1284 29.1659 41.3727 27.4559 42.0881C25.7546 42.8122 24.4023 43.8417 23.5473 44.7054C22.6836 45.5604 22.2648 46.1973 22.2038 46.1537C22.1776 46.1362 22.2648 45.9705 22.4481 45.6738C22.6225 45.3772 22.9279 44.9672 23.338 44.5048C24.1581 43.5712 25.5278 42.4632 27.2901 41.7217C29.0525 40.9801 30.8061 40.7707 32.045 40.8318C32.6644 40.8579 33.1704 40.919 33.5019 41.0063C33.8509 41.0848 34.0341 41.1371 34.0341 41.1633Z" fill="#E0E0E0"/>
<path d="M34.6533 43.7019C34.6446 43.7717 33.8855 43.6321 32.6728 43.6495C31.4601 43.667 29.785 43.9113 28.075 44.6267C26.3738 45.3508 25.0215 46.3803 24.1665 47.244C23.3028 48.099 22.884 48.7359 22.8229 48.6923C22.7967 48.6748 22.884 48.509 23.0672 48.2124C23.2417 47.9158 23.547 47.5057 23.9571 47.0433C24.7772 46.1098 26.1469 45.0018 27.9093 44.2602C29.6716 43.5187 31.4252 43.3093 32.6641 43.3703C33.2835 43.3965 33.7896 43.4576 34.1211 43.5448C34.4788 43.6234 34.662 43.6757 34.6533 43.7019Z" fill="#E0E0E0"/>
<path d="M34.8115 46.4675C34.8028 46.5373 34.0437 46.3977 32.831 46.4152C31.6183 46.4326 29.9432 46.6769 28.2332 47.3923C26.532 48.1164 25.1797 49.1459 24.3247 50.0096C23.461 50.8646 23.0422 51.5015 22.9811 51.4579C22.9549 51.4404 23.0422 51.2747 23.2254 50.978C23.3999 50.6814 23.7052 50.2714 24.1153 49.809C24.9354 48.8754 26.3051 47.7674 28.0675 47.0259C29.8298 46.2843 31.5834 46.0749 32.8223 46.136C33.4417 46.1621 33.9478 46.2232 34.2793 46.3105C34.6283 46.389 34.8115 46.4413 34.8115 46.4675Z" fill="#E0E0E0"/>
<path d="M35.333 49.0412C35.3242 49.111 34.5652 48.9714 33.3525 48.9889C32.1398 49.0063 30.4647 49.2506 28.7547 49.966C27.0535 50.6901 25.7012 51.7196 24.8462 52.5833C23.9824 53.4383 23.5637 54.0752 23.5026 54.0316C23.4764 54.0142 23.5637 53.8484 23.7469 53.5518C23.9214 53.2551 24.2267 52.8451 24.6368 52.3827C25.4569 51.4492 26.8266 50.3412 28.589 49.5996C30.3513 48.858 32.1049 48.6486 33.3438 48.701C33.9632 48.7271 34.4692 48.7882 34.8008 48.8754C35.1585 48.9627 35.3417 49.015 35.333 49.0412Z" fill="#E0E0E0"/>
<path d="M35.9365 51.7546C35.9278 51.8244 35.1687 51.6848 33.956 51.7023C32.7433 51.7197 31.0682 51.964 29.3582 52.6794C27.657 53.4035 26.3047 54.433 25.4497 55.2967C24.586 56.1517 24.1672 56.7886 24.1061 56.745C24.0799 56.7275 24.1672 56.5618 24.3504 56.2652C24.5249 55.9685 24.8303 55.5585 25.2403 55.0961C26.0604 54.1626 27.4301 53.0546 29.1925 52.313C30.9548 51.5714 32.7084 51.362 33.9473 51.4231C34.5667 51.4493 35.0728 51.5103 35.4043 51.5976C35.762 51.6674 35.9452 51.7197 35.9365 51.7546Z" fill="#E0E0E0"/>
<path d="M36.7304 54.7821C36.7216 54.8518 35.9015 54.6948 34.5841 54.7472C33.9211 54.7559 33.1446 54.8606 32.2809 55.0089C31.4259 55.1921 30.5011 55.4364 29.5589 55.7941C28.6253 56.1605 27.7616 56.5967 27.0113 57.0417C26.2785 57.5128 25.6328 57.9665 25.153 58.4201C24.1671 59.3013 23.7135 59.9993 23.6524 59.9557C23.6262 59.9382 23.7309 59.755 23.9316 59.4409C24.0276 59.2751 24.1671 59.0919 24.3416 58.8913C24.5074 58.6819 24.7081 58.4463 24.9523 58.2195C25.4235 57.7309 26.0691 57.2336 26.8107 56.7363C27.5697 56.2565 28.4421 55.8028 29.4105 55.4277C30.379 55.0612 31.3299 54.817 32.2111 54.6599C33.0923 54.529 33.8949 54.4505 34.5754 54.4767C34.9157 54.468 35.221 54.5029 35.4828 54.529C35.7532 54.5552 35.9801 54.5814 36.1633 54.6337C36.5297 54.7035 36.7304 54.7559 36.7304 54.7821Z" fill="#E0E0E0"/>
<path d="M36.8432 57.216C36.8345 57.2858 36.0144 57.1287 34.6883 57.1985C34.0252 57.216 33.24 57.3468 32.385 57.5213C31.53 57.7307 30.614 58.0099 29.6805 58.3938C28.7557 58.7951 27.9094 59.2575 27.1678 59.7286C26.4437 60.2259 25.8068 60.697 25.3357 61.1594C24.3585 62.058 23.9049 62.756 23.8438 62.7211C23.8176 62.7037 23.9223 62.5204 24.123 62.2064C24.219 62.0406 24.3585 61.8574 24.533 61.648C24.6988 61.4386 24.8995 61.203 25.1437 60.9675C25.6061 60.4702 26.243 59.9642 26.9672 59.4407C27.7175 58.9434 28.5812 58.4548 29.5321 58.0448C30.4918 57.6522 31.4428 57.3643 32.3153 57.1811C33.1964 57.024 34.0078 56.9193 34.6883 56.9368C35.0286 56.9281 35.3339 56.9455 35.6044 56.9804C35.8748 56.9979 36.1017 57.0328 36.2849 57.0764C36.6513 57.1287 36.852 57.1898 36.8432 57.216Z" fill="#E0E0E0"/>
<path d="M18.2778 62.0406C18.2254 62.0842 17.7107 61.3862 16.6638 60.5138C15.6255 59.6414 13.9854 58.6206 11.9613 58.1582C9.9372 57.6958 8.01782 57.8877 6.70043 58.2193C5.37432 58.5508 4.61529 58.9521 4.58039 58.8911C4.57167 58.8649 4.74615 58.7427 5.09513 58.5595C5.43539 58.3763 5.95885 58.1495 6.63064 57.9488C7.95675 57.5388 9.95465 57.2857 12.0572 57.7656C14.1598 58.2542 15.8437 59.3447 16.8557 60.2957C17.3704 60.7755 17.7369 61.203 17.9724 61.5171C18.1905 61.8399 18.2952 62.0231 18.2778 62.0406Z" fill="#E0E0E0"/>
<path d="M18.0864 58.9087C18.034 58.9524 17.5193 58.2544 16.4724 57.382C15.4341 56.5095 13.7939 55.4888 11.7699 55.0264C9.7458 54.564 7.82642 54.7559 6.50903 55.0874C5.18291 55.419 4.42388 55.8203 4.38898 55.7592C4.38026 55.733 4.55475 55.6109 4.90373 55.4277C5.24398 55.2445 5.76745 55.0176 6.43923 54.817C7.76535 54.4069 9.76325 54.1539 11.8658 54.6338C13.9684 55.1223 15.6523 56.2129 16.6643 57.1638C17.179 57.6437 17.5455 58.0712 17.781 58.3853C17.9991 58.7081 18.1038 58.8913 18.0864 58.9087Z" fill="#E0E0E0"/>
<path d="M17.8938 55.7764C17.8415 55.82 17.3268 55.1221 16.2798 54.2496C15.2416 53.3772 13.6014 52.3564 11.5773 51.894C9.55327 51.4316 7.63389 51.6236 6.3165 51.9551C4.99038 52.2866 4.23135 52.688 4.19645 52.6269C4.17901 52.6007 4.36222 52.4786 4.70247 52.2954C5.04273 52.1121 5.56619 51.8853 6.23798 51.6846C7.56409 51.2746 9.56199 51.0216 11.6646 51.5014C13.7672 51.99 15.451 53.0806 16.463 54.0315C16.9778 54.5114 17.3442 54.9389 17.5798 55.253C17.8066 55.5758 17.9113 55.759 17.8938 55.7764Z" fill="#E0E0E0"/>
<path d="M17.7016 52.6446C17.6493 52.6882 17.1345 51.9902 16.0876 51.1178C15.0494 50.2454 13.4092 49.2246 11.3851 48.7622C9.36103 48.2998 7.44165 48.4917 6.12426 48.8233C4.79814 49.1548 4.03912 49.5561 4.00422 49.4951C3.99549 49.4689 4.16998 49.3467 4.51896 49.1635C4.85921 48.9803 5.38268 48.7535 6.05446 48.5528C7.38058 48.1428 9.37848 47.8898 11.4811 48.3696C13.5837 48.8582 15.2675 49.9487 16.2795 50.8997C16.7943 51.3795 17.1607 51.807 17.3963 52.1211C17.6144 52.4439 17.7191 52.6271 17.7016 52.6446Z" fill="#E0E0E0"/>
<path d="M17.5102 49.5123C17.4579 49.5559 16.9431 48.8579 15.8962 47.9855C14.858 47.113 13.2178 46.0923 11.1937 45.6299C9.16963 45.1675 7.25025 45.3594 5.93285 45.6909C4.60674 46.0225 3.84771 46.4238 3.81281 46.3627C3.80409 46.3366 3.97858 46.2144 4.32755 46.0312C4.66781 45.848 5.19128 45.6212 5.86306 45.4205C7.18918 45.0104 9.18708 44.7574 11.2897 45.2373C13.3923 45.7258 15.0761 46.8164 16.0881 47.7674C16.6029 48.2472 16.9693 48.6747 17.2048 48.9888C17.423 49.3116 17.5277 49.4948 17.5102 49.5123Z" fill="#E0E0E0"/>
<path d="M17.3188 46.3804C17.2665 46.424 16.7517 45.7261 15.7048 44.8536C14.6666 43.9812 13.0264 42.9604 11.0023 42.498C8.97822 42.0356 7.05884 42.2276 5.74145 42.5591C4.41533 42.8906 3.6563 43.292 3.62141 43.2309C3.61268 43.2047 3.78717 43.0826 4.13615 42.8994C4.4764 42.7161 4.99987 42.4893 5.67165 42.2887C6.99777 41.8786 8.99567 41.6256 11.0983 42.1054C13.2009 42.594 14.8847 43.6846 15.8967 44.6355C16.4115 45.1154 16.7779 45.5429 17.0134 45.857C17.2316 46.1798 17.3362 46.363 17.3188 46.3804Z" fill="#E0E0E0"/>
<path d="M296.701 54.5552L296.753 56.7538C296.753 56.7538 284.731 52.7492 278.022 56.8584C277.812 57.3208 277.393 57.6524 276.887 57.7309L274.017 58.2107C273.398 58.298 272.778 57.9926 272.473 57.443C272.473 57.443 265.328 54.7035 258.496 59.0047L255.888 60.4355L259.055 32.2293L291.867 23.3042L296.701 54.5552Z" fill="#E0E0E0"/>
<path d="M298.341 51.3356L298.533 55.2965C298.533 55.2965 286.476 49.2853 275.457 57.2769L276.949 38.1006C276.949 38.1006 297.155 47.3921 298.341 51.3356Z" fill="#EBEBEB"/>
<path d="M298.341 22.6236C298.341 22.6236 283.693 13.0354 274.366 28.6958L275.457 57.2771C275.457 57.2771 287.13 43.4663 299.693 52.0948L298.341 22.6236Z" fill="#F5F5F5"/>
<path d="M275.456 57.2771C275.456 57.2771 262.946 50.5767 254.937 59.3012L255.443 33.0842L274.401 29.6816L275.456 57.2771Z" fill="#EBEBEB"/>
<path d="M274.384 28.7132C274.384 28.7132 269.009 21.437 259.133 22.388L252.59 23.3215L251.281 49.6955C251.281 49.6955 267.928 46.3191 275.474 57.2945L274.384 28.7132Z" fill="#F5F5F5"/>
<path d="M275.457 57.2773C275.492 57.2773 275.501 56.876 275.492 56.1519C275.475 55.3318 275.457 54.311 275.431 53.0983C275.344 50.4199 275.23 46.9127 275.099 43.0303C274.969 39.1479 274.855 35.6407 274.768 32.9623C274.724 31.7496 274.698 30.7288 274.672 29.9087C274.646 29.1846 274.611 28.792 274.585 28.792C274.55 28.792 274.524 29.1933 274.497 29.9087C274.463 30.6329 274.454 31.6711 274.445 32.9623C274.436 35.5447 274.506 39.1043 274.637 43.0477C274.768 46.9825 274.942 50.5421 275.099 53.1158C275.178 54.407 275.248 55.4452 275.309 56.1606C275.37 56.876 275.422 57.2773 275.457 57.2773Z" fill="#E0E0E0"/>
<path d="M258.654 26.6456C258.671 26.7241 259.543 26.4973 260.957 26.41C262.37 26.3228 264.359 26.4624 266.418 27.1429C268.469 27.8409 270.144 28.9227 271.217 29.8475C272.299 30.7723 272.848 31.479 272.918 31.4266C272.944 31.4092 272.822 31.2172 272.587 30.8857C272.351 30.5542 271.967 30.1092 271.435 29.6032C270.388 28.5912 268.687 27.4134 266.567 26.698C264.438 25.9913 262.379 25.8953 260.931 26.0785C260.207 26.1658 259.631 26.2792 259.238 26.41C258.854 26.5409 258.645 26.6194 258.654 26.6456Z" fill="#E0E0E0"/>
<path d="M258.148 29.6642C258.165 29.7427 259.038 29.5158 260.451 29.4286C261.864 29.3414 263.854 29.4809 265.912 30.1615C267.963 30.8594 269.638 31.9412 270.711 32.866C271.793 33.7908 272.342 34.4975 272.412 34.4452C272.438 34.4277 272.316 34.2358 272.081 33.9042C271.845 33.5727 271.461 33.1278 270.929 32.6218C269.882 31.6097 268.181 30.4319 266.061 29.7165C263.932 29.0098 261.873 28.9139 260.425 29.0971C259.701 29.1843 259.125 29.2977 258.732 29.4286C258.348 29.5595 258.139 29.638 258.148 29.6642Z" fill="#E0E0E0"/>
<path d="M258.217 32.9186C258.235 32.9971 259.107 32.7702 260.52 32.683C261.934 32.5957 263.923 32.7353 265.982 33.4158C268.032 34.1138 269.707 35.1956 270.78 36.1204C271.862 37.0452 272.412 37.7519 272.482 37.6996C272.508 37.6821 272.386 37.4902 272.15 37.1586C271.914 36.8271 271.531 36.3822 270.998 35.8761C269.951 34.8641 268.25 33.6863 266.13 32.9709C264.001 32.2642 261.942 32.1683 260.494 32.3515C259.77 32.4387 259.194 32.5521 258.802 32.683C258.418 32.8051 258.208 32.8837 258.217 32.9186Z" fill="#E0E0E0"/>
<path d="M257.833 35.9635C257.851 36.042 258.723 35.8152 260.137 35.7279C261.55 35.6407 263.539 35.7803 265.598 36.4608C267.648 37.1587 269.323 38.2406 270.396 39.1654C271.478 40.0901 272.028 40.7968 272.098 40.7445C272.124 40.727 272.002 40.5351 271.766 40.2036C271.531 39.872 271.147 39.4271 270.615 38.9211C269.568 37.909 267.866 36.7312 265.746 36.0158C263.618 35.3091 261.559 35.2132 260.11 35.3964C259.386 35.4836 258.81 35.5971 258.418 35.7279C258.034 35.8588 257.825 35.9373 257.833 35.9635Z" fill="#E0E0E0"/>
<path d="M257.363 39.1827C257.38 39.2612 258.252 39.0344 259.666 38.9472C261.079 38.8599 263.068 38.9995 265.127 39.68C267.178 40.378 268.853 41.4598 269.926 42.3846C271.008 43.3094 271.557 44.0161 271.627 43.9637C271.653 43.9463 271.531 43.7543 271.296 43.4228C271.06 43.0913 270.676 42.6463 270.144 42.1403C269.097 41.1283 267.396 39.9505 265.276 39.2351C263.147 38.5284 261.088 38.4324 259.64 38.6156C258.916 38.7029 258.34 38.8163 257.947 38.9472C257.563 39.078 257.354 39.1565 257.363 39.1827Z" fill="#E0E0E0"/>
<path d="M256.717 42.8032C256.734 42.8817 257.677 42.6287 259.23 42.5677C260.006 42.5153 260.922 42.5764 261.943 42.6724C262.955 42.8032 264.063 43.0126 265.197 43.3441C266.323 43.6931 267.37 44.1206 268.286 44.5743C269.184 45.0629 269.978 45.534 270.58 46.0225C271.81 46.9648 272.395 47.7413 272.465 47.6889C272.491 47.6715 272.36 47.4621 272.09 47.1131C271.967 46.9299 271.784 46.7292 271.557 46.5024C271.339 46.2756 271.086 46.0138 270.781 45.7695C270.188 45.2373 269.394 44.7226 268.486 44.1991C267.562 43.7106 266.488 43.2569 265.337 42.9079C264.176 42.5677 263.034 42.367 261.995 42.2536C260.948 42.1751 260.006 42.1576 259.212 42.2536C258.82 42.2798 258.462 42.3408 258.157 42.4019C257.842 42.4542 257.581 42.5066 257.371 42.5764C256.935 42.6811 256.708 42.7683 256.717 42.8032Z" fill="#E0E0E0"/>
<path d="M256.795 45.6475C256.813 45.7347 257.764 45.473 259.317 45.4381C260.093 45.4032 261.018 45.4817 262.039 45.6038C263.051 45.7696 264.159 46.0139 265.284 46.389C266.41 46.7729 267.439 47.244 268.346 47.7239C269.236 48.2386 270.021 48.7272 270.615 49.2245C271.836 50.1929 272.429 50.9694 272.499 50.9083C272.525 50.8909 272.394 50.6815 272.124 50.3238C271.993 50.1406 271.819 49.9399 271.601 49.7131C271.391 49.4775 271.138 49.2245 270.833 48.9628C270.248 48.4218 269.463 47.8809 268.564 47.34C267.648 46.8253 266.593 46.3367 265.441 45.9441C264.289 45.5689 263.155 45.3247 262.108 45.1763C261.061 45.0716 260.11 45.0193 259.317 45.1065C258.915 45.124 258.566 45.1763 258.252 45.2374C257.938 45.281 257.676 45.3421 257.458 45.4119C257.013 45.534 256.786 45.6213 256.795 45.6475Z" fill="#E0E0E0"/>
<path d="M278.92 49.6346C278.99 49.6783 279.522 48.8233 280.674 47.7065C281.808 46.5898 283.64 45.2637 285.961 44.5308C288.29 43.8067 290.55 43.859 292.111 44.1382C293.69 44.4087 294.615 44.81 294.65 44.7315C294.659 44.7053 294.441 44.5745 294.022 44.3912C293.603 44.208 292.975 43.9899 292.172 43.8154C290.585 43.449 288.238 43.3356 285.812 44.0859C283.396 44.8362 281.529 46.267 280.429 47.471C279.871 48.073 279.478 48.6052 279.234 48.9978C278.998 49.3904 278.894 49.6259 278.92 49.6346Z" fill="#E0E0E0"/>
<path d="M278.859 45.9613C278.929 46.0049 279.461 45.1499 280.613 44.0332C281.747 42.9165 283.579 41.5903 285.9 40.8575C288.229 40.1334 290.489 40.1857 292.051 40.4649C293.63 40.7354 294.555 41.1367 294.589 41.0582C294.598 41.032 294.38 40.9011 293.961 40.7179C293.543 40.5347 292.914 40.3166 292.112 40.1421C290.524 39.7757 288.177 39.6622 285.752 40.4125C283.335 41.1628 281.468 42.5937 280.369 43.7976C279.81 44.3996 279.418 44.9318 279.173 45.3244C278.947 45.717 278.842 45.9439 278.859 45.9613Z" fill="#E0E0E0"/>
<path d="M278.807 42.2797C278.877 42.3233 279.409 41.4683 280.561 40.3516C281.695 39.2348 283.527 37.9087 285.848 37.1759C288.177 36.4517 290.437 36.5041 291.999 36.7833C293.578 37.0537 294.503 37.455 294.538 37.3765C294.546 37.3503 294.328 37.2195 293.909 37.0363C293.491 36.853 292.863 36.6349 292.06 36.4604C290.472 36.094 288.125 35.9806 285.7 36.7309C283.283 37.4812 281.416 38.912 280.317 40.116C279.758 40.718 279.366 41.2502 279.121 41.6428C278.895 42.0354 278.781 42.2709 278.807 42.2797Z" fill="#E0E0E0"/>
<path d="M278.754 38.6068C278.824 38.6504 279.356 37.7954 280.508 36.6787C281.642 35.562 283.474 34.2359 285.795 33.503C288.124 32.7789 290.384 32.8312 291.945 33.1104C293.524 33.3809 294.449 33.7822 294.484 33.7037C294.493 33.6775 294.275 33.5466 293.856 33.3634C293.437 33.1802 292.809 32.9621 292.006 32.7876C290.419 32.4212 288.072 32.3077 285.646 33.0581C283.23 33.8084 281.363 35.2392 280.263 36.4431C279.705 37.0451 279.312 37.5773 279.068 37.9699C278.832 38.3625 278.728 38.5894 278.754 38.6068Z" fill="#E0E0E0"/>
<path d="M278.702 34.9252C278.772 34.9688 279.304 34.1138 280.456 32.9971C281.59 31.8803 283.422 30.5542 285.743 29.8214C288.072 29.0972 290.332 29.1496 291.894 29.4288C293.473 29.6992 294.397 30.1005 294.432 30.022C294.441 29.9958 294.223 29.865 293.804 29.6818C293.385 29.4986 292.757 29.2804 291.955 29.106C290.367 28.7395 288.02 28.6261 285.594 29.3764C283.178 30.1267 281.311 31.5575 280.211 32.7615C279.653 33.3635 279.261 33.8957 279.016 34.2883C278.781 34.6809 278.676 34.9164 278.702 34.9252Z" fill="#E0E0E0"/>
<path d="M278.65 31.2518C278.72 31.2954 279.252 30.4405 280.404 29.3237C281.538 28.207 283.37 26.8809 285.691 26.148C288.02 25.4239 290.28 25.4762 291.842 25.7554C293.421 26.0259 294.346 26.4272 294.381 26.3487C294.389 26.3225 294.171 26.1916 293.752 26.0084C293.334 25.8252 292.705 25.6071 291.903 25.4326C290.315 25.0662 287.968 24.9528 285.543 25.7031C283.126 26.4534 281.259 27.8842 280.16 29.0882C279.601 29.6901 279.209 30.2223 278.964 30.6149C278.729 31.0075 278.624 31.2344 278.65 31.2518Z" fill="#E0E0E0"/>
<path d="M46.5536 137.813L48.2549 139.976C48.2549 139.976 56.6216 126.567 66.3494 125.18C66.9165 125.459 67.5883 125.441 68.1292 125.119L71.27 123.295C71.9418 122.885 72.2908 122.109 72.1424 121.332C72.1424 121.332 76.8275 113.018 86.8257 111.718L90.4725 111.02L65.3897 88.0659L26.3652 103.936L46.5536 137.813Z" fill="#E8505B"/>
<path d="M42.4171 136.016L45.3747 139.977C45.3747 139.977 52.1885 124.604 69.1401 123.531L52.4589 106.292C52.4589 106.283 40.4192 131.278 42.4171 136.016Z" fill="#EBEBEB"/>
<path d="M19.5859 108.411C19.5859 108.411 26.0508 87.5512 47.4693 95.1764L69.1496 123.522C69.1496 123.522 46.9458 119.526 41.7199 137.813L19.5859 108.411Z" fill="#F5F5F5"/>
<path d="M69.1487 123.531C69.1487 123.531 75.8491 107.146 90.48 109.162L69.1487 84.3579L48.2188 96.1621L69.1487 123.531Z" fill="#EBEBEB"/>
<path d="M47.4701 95.22C47.4701 95.22 45.0359 82.8313 54.6067 77.4308L60.8795 74.1592L82.8215 98.7272C82.8215 98.7272 67.6759 107.015 69.1503 123.566L47.4701 95.22Z" fill="#F5F5F5"/>
<path d="M69.1497 123.531C69.1235 123.548 68.8007 123.173 68.2424 122.466C67.6404 121.699 66.8465 120.687 65.8955 119.465C63.8801 116.857 61.193 113.367 58.218 109.511C55.2342 105.663 52.5296 102.182 50.5143 99.5735C49.5633 98.3521 48.7694 97.3488 48.1674 96.5723C47.6178 95.8656 47.3211 95.4556 47.3473 95.4381C47.3735 95.4207 47.7137 95.7784 48.307 96.4589C48.909 97.1307 49.7378 98.134 50.7673 99.3728C52.8175 101.859 55.5832 105.34 58.5844 109.231C61.5856 113.123 64.2553 116.673 66.1572 119.273C67.0646 120.53 67.8149 121.568 68.3907 122.362C68.8967 123.095 69.1672 123.505 69.1497 123.531Z" fill="#263238"/>
<path d="M61.3496 81.3829C61.3671 81.4702 60.3027 81.6708 58.837 82.552C57.3713 83.4157 55.5304 84.9687 53.9949 87.08C52.4158 89.1651 51.5346 91.4073 51.142 93.065C50.7581 94.7313 50.8192 95.8132 50.7232 95.8132C50.6883 95.8132 50.6709 95.5514 50.6534 95.0629C50.6185 94.5743 50.6883 93.8676 50.8279 93.0039C51.1507 91.2939 52.0057 88.9557 53.6285 86.8182C55.2076 84.6546 57.1357 83.1016 58.6799 82.2815C59.4564 81.8715 60.1282 81.6272 60.5993 81.505C61.0791 81.4004 61.3409 81.3567 61.3496 81.3829Z" fill="#263238"/>
<path d="M72.1516 91.7562C72.1865 91.8347 71.1657 92.2884 69.7262 93.3266C69.0021 93.8414 68.1994 94.5393 67.3793 95.3681C66.5767 96.2231 65.7653 97.2265 65.0412 98.3694C64.3345 99.521 63.7936 100.699 63.3835 101.798C62.9996 102.906 62.7292 103.936 62.5896 104.808C62.293 106.562 62.3453 107.678 62.2581 107.678C62.2232 107.678 62.197 107.399 62.1708 106.893C62.1534 106.64 62.1446 106.326 62.1708 105.968C62.197 105.611 62.197 105.201 62.2755 104.747C62.3802 103.848 62.6158 102.784 62.9909 101.641C63.3835 100.507 63.9332 99.2941 64.6573 98.1076C65.3989 96.9298 66.2451 95.9091 67.0827 95.0453C67.9377 94.2078 68.784 93.5186 69.5517 93.03C69.9181 92.7595 70.2846 92.5763 70.5986 92.4018C70.9127 92.2186 71.1919 92.0877 71.4275 91.9918C71.8811 91.826 72.1429 91.7213 72.1516 91.7562Z" fill="#263238"/>
<path d="M75.6492 94.7142C75.6841 94.7927 74.5761 95.2813 73.0231 96.4504C72.2379 97.0088 71.3829 97.8027 70.4843 98.7013C69.6118 99.6348 68.7045 100.717 67.8844 101.938C67.073 103.168 66.41 104.416 65.8952 105.585C65.4241 106.771 65.0402 107.862 64.8483 108.813C64.4295 110.706 64.4906 111.919 64.4034 111.919C64.3685 111.919 64.351 111.622 64.3248 111.064C64.3074 110.785 64.3161 110.453 64.3597 110.061C64.3859 109.668 64.4295 109.223 64.5342 108.743C64.6825 107.766 65.0402 106.641 65.5026 105.419C66.0087 104.215 66.6717 102.941 67.5005 101.685C68.3468 100.437 69.2716 99.3382 70.1789 98.4047C71.1212 97.5061 72.0024 96.7296 72.8312 96.1887C73.2325 95.9008 73.6164 95.6739 73.9566 95.482C74.2969 95.2813 74.5935 95.1243 74.8465 95.0196C75.3525 94.7927 75.6404 94.6793 75.6492 94.7142Z" fill="#263238"/>
<path d="M77.8385 97.5147C77.8821 97.5932 76.7567 98.0818 75.2212 99.277C74.436 99.8528 73.6072 100.664 72.726 101.598C71.8797 102.557 71.016 103.683 70.2221 104.93C69.4456 106.195 68.8262 107.469 68.3376 108.656C67.8926 109.86 67.5349 110.968 67.3604 111.919C66.9678 113.821 67.0289 115.042 66.9329 115.051C66.8981 115.051 66.8719 114.745 66.8544 114.196C66.837 113.917 66.8457 113.585 66.8806 113.193C66.9068 112.8 66.9417 112.355 67.0376 111.866C67.1685 110.881 67.5088 109.746 67.9363 108.507C68.4161 107.286 69.0355 105.986 69.8207 104.695C70.6321 103.412 71.522 102.278 72.4032 101.319C73.3192 100.385 74.1917 99.5824 75.0118 99.024C75.4044 98.7186 75.7883 98.4918 76.1285 98.2999C76.4601 98.0905 76.7567 97.9334 77.0184 97.8287C77.5419 97.5932 77.8298 97.4885 77.8385 97.5147Z" fill="#263238"/>
<path d="M59.7437 118.942C59.7175 119.02 58.531 118.61 56.5331 118.436C54.5526 118.252 51.7259 118.418 48.8992 119.579C46.0725 120.739 43.9437 122.606 42.6612 124.124C41.3613 125.651 40.8029 126.785 40.7244 126.741C40.6982 126.733 40.8116 126.436 41.0821 125.93C41.3438 125.424 41.78 124.726 42.4082 123.923C43.6558 122.318 45.8107 120.355 48.7247 119.16C51.6387 117.965 54.5526 117.851 56.568 118.122C57.58 118.252 58.3827 118.444 58.9236 118.619C59.4645 118.785 59.7524 118.916 59.7437 118.942Z" fill="#263238"/>
<path d="M56.8745 115.365C56.8484 115.444 55.6618 115.033 53.6639 114.859C51.6835 114.676 48.8568 114.842 46.03 116.002C43.2033 117.162 41.0746 119.029 39.7921 120.547C38.4921 122.074 37.9337 123.208 37.8552 123.165C37.8291 123.156 37.9425 122.859 38.2129 122.353C38.4747 121.847 38.9109 121.149 39.539 120.347C40.7866 118.741 42.9416 116.778 45.8556 115.583C48.7695 114.388 51.6835 114.274 53.6988 114.545C54.7109 114.676 55.5135 114.868 56.0544 115.042C56.5954 115.208 56.8833 115.339 56.8745 115.365Z" fill="#263238"/>
<path d="M53.9956 111.788C53.9695 111.866 52.7829 111.456 50.785 111.282C48.8046 111.099 45.9779 111.264 43.1511 112.425C40.3244 113.585 38.1956 115.452 36.9132 116.97C35.6132 118.497 35.0548 119.631 34.9763 119.588C34.9501 119.579 35.0636 119.282 35.334 118.776C35.5958 118.27 36.032 117.572 36.6601 116.77C37.9077 115.164 40.0627 113.201 42.9766 112.006C45.8906 110.811 48.8046 110.697 50.8199 110.968C51.832 111.099 52.6346 111.291 53.1755 111.465C53.7252 111.631 54.0044 111.762 53.9956 111.788Z" fill="#263238"/>
<path d="M51.1245 108.211C51.0984 108.289 49.9118 107.879 47.9139 107.705C45.9335 107.521 43.1068 107.687 40.28 108.848C37.4533 110.008 35.3246 111.875 34.0421 113.393C32.7421 114.92 32.1837 116.054 32.1052 116.01C32.0791 116.002 32.1925 115.705 32.4629 115.199C32.7247 114.693 33.1609 113.995 33.789 113.192C35.0366 111.587 37.1916 109.624 40.1056 108.429C43.0195 107.234 45.9335 107.12 47.9488 107.391C48.9609 107.521 49.7635 107.713 50.3044 107.888C50.8454 108.054 51.1333 108.185 51.1245 108.211Z" fill="#263238"/>
<path d="M48.2534 104.625C48.2273 104.703 47.0407 104.293 45.0428 104.119C43.0624 103.936 40.2357 104.101 37.409 105.262C34.5822 106.422 32.4535 108.289 31.171 109.807C29.871 111.334 29.3127 112.468 29.2341 112.424C29.208 112.416 29.3214 112.119 29.5918 111.613C29.8536 111.107 30.2898 110.409 30.918 109.606C32.1656 108.001 34.3205 106.038 37.2345 104.843C40.1484 103.648 43.0624 103.534 45.0777 103.805C46.0898 103.936 46.8924 104.127 47.4333 104.302C47.9743 104.476 48.2622 104.599 48.2534 104.625Z" fill="#263238"/>
<path d="M45.3834 101.048C45.3572 101.127 44.1707 100.717 42.1728 100.542C40.1923 100.359 37.3656 100.525 34.5389 101.685C31.7122 102.845 29.5834 104.712 28.3009 106.23C27.001 107.757 26.4426 108.891 26.3728 108.848C26.3466 108.839 26.4601 108.542 26.7305 108.036C26.9922 107.53 27.4285 106.832 28.0566 106.03C29.3042 104.424 31.4592 102.461 34.3731 101.266C37.2871 100.071 40.2011 99.9576 42.2164 100.228C43.2285 100.359 44.0311 100.551 44.572 100.725C45.1042 100.9 45.3921 101.022 45.3834 101.048Z" fill="#263238"/>
<path d="M53.3496 96.668L59.3433 103.316C59.3433 103.316 61.2103 94.1205 69.3503 90.6307L63.025 83.8867C63.025 83.8867 54.7193 86.6873 53.3496 96.668Z" fill="#EBEBEB"/>
<path d="M74.8567 29.4198L73.9668 31.3741C73.9668 31.3741 86.2596 32.3774 90.7003 38.6154C90.709 39.1126 90.962 39.5663 91.3808 39.8281L93.7713 41.3548C94.2948 41.6689 94.9578 41.634 95.4464 41.2589C95.4464 41.2589 102.888 41.5293 107.364 47.9941L109.153 50.2712L117.083 23.8012L91.1016 3.29004L74.8567 29.4198Z" fill="#E8505B"/>
<path d="M74.6213 25.9128L72.9375 29.3851C72.9375 29.3851 86.0329 28.6086 92.8467 39.9679L98.823 22.231C98.823 22.2223 77.1863 22.833 74.6213 25.9128Z" fill="#EBEBEB"/>
<path d="M85.5796 0.193033C85.5796 0.193033 102.357 -2.79945 104.739 14.7803L92.8471 39.9591C92.8471 39.9591 87.6648 23.1383 73.1211 26.061L85.5796 0.193033Z" fill="#F5F5F5"/>
<path d="M92.8457 39.9679C92.8457 39.9679 106.604 38.7465 110.452 49.6084L120.005 25.939L104.327 15.6528L92.8457 39.9679Z" fill="#EBEBEB"/>
<path d="M104.712 14.798C104.712 14.798 112.433 8.67342 119.605 13.3759L124.115 16.5516L114.946 40.5613C114.946 40.5613 103.778 33.0234 92.8379 39.9768L104.712 14.798Z" fill="#F5F5F5"/>
<path d="M92.8469 39.968C92.8207 39.9506 92.9603 39.5928 93.2395 38.9472C93.571 38.2231 93.9723 37.3158 94.4609 36.2339C95.5602 33.8696 96.9997 30.7724 98.5963 27.3437C100.193 23.915 101.632 20.8178 102.74 18.4535C103.238 17.3804 103.656 16.4818 103.997 15.7576C104.293 15.1208 104.477 14.7805 104.503 14.7892C104.529 14.798 104.407 15.1731 104.154 15.8274C103.909 16.4818 103.517 17.424 103.028 18.5844C102.051 20.8963 100.629 24.0633 99.0063 27.5357C97.3836 31.008 95.8655 34.1313 94.7488 36.3735C94.1904 37.499 93.728 38.3976 93.3965 39.0258C93.0737 39.6452 92.873 39.9767 92.8469 39.968Z" fill="#263238"/>
<path d="M119.587 18.9505C119.535 19.0116 118.846 18.4794 117.607 17.86C116.377 17.2405 114.545 16.6037 112.442 16.4379C110.339 16.2721 108.429 16.6124 107.111 17.0312C105.785 17.4499 105.026 17.8687 104.991 17.7989C104.974 17.7727 105.157 17.6506 105.497 17.4412C105.829 17.2318 106.352 16.9788 107.015 16.7258C108.342 16.2198 110.305 15.8185 112.486 15.9842C114.658 16.1587 116.543 16.8654 117.773 17.5808C118.392 17.9298 118.863 18.2613 119.16 18.523C119.448 18.776 119.605 18.9244 119.587 18.9505Z" fill="#263238"/>
<path d="M118.88 21.847C118.828 21.9081 118.139 21.3759 116.9 20.7565C115.67 20.137 113.838 19.5001 111.735 19.3344C109.632 19.1686 107.722 19.5089 106.404 19.9276C105.087 20.3464 104.319 20.7652 104.284 20.6954C104.267 20.6692 104.45 20.5471 104.79 20.3377C105.122 20.1283 105.645 19.8753 106.308 19.6223C107.635 19.1163 109.598 18.7149 111.779 18.8807C113.951 19.0552 115.836 19.7619 117.066 20.4773C117.685 20.8263 118.156 21.1578 118.453 21.4195C118.749 21.6725 118.907 21.8208 118.88 21.847Z" fill="#263238"/>
<path d="M117.58 24.7264C117.527 24.7875 116.847 24.2553 115.599 23.6359C114.369 23.0164 112.537 22.3795 110.434 22.2138C108.332 22.048 106.421 22.3883 105.104 22.807C103.777 23.2258 103.018 23.6446 102.984 23.5748C102.966 23.5486 103.149 23.4265 103.49 23.2171C103.821 23.0077 104.345 22.7547 105.008 22.5017C106.334 21.9957 108.297 21.5943 110.478 21.7601C112.65 21.9346 114.535 22.6413 115.765 23.3567C116.384 23.7057 116.855 24.0372 117.152 24.2989C117.44 24.5519 117.597 24.709 117.58 24.7264Z" fill="#263238"/>
<path d="M116.761 27.6141C116.709 27.6752 116.02 27.143 114.781 26.5236C113.551 25.9041 111.718 25.2672 109.616 25.1015C107.513 24.9357 105.603 25.276 104.285 25.6947C102.968 26.1135 102.2 26.5323 102.165 26.4625C102.148 26.4363 102.331 26.3142 102.671 26.1048C103.003 25.8954 103.526 25.6424 104.189 25.3894C105.515 24.8834 107.478 24.482 109.66 24.6478C111.832 24.8223 113.716 25.529 114.947 26.2444C115.566 26.5933 116.037 26.9249 116.334 27.1866C116.63 27.4309 116.779 27.5879 116.761 27.6141Z" fill="#263238"/>
<path d="M115.949 30.6673C115.896 30.7284 115.207 30.1962 113.968 29.5768C112.738 28.9573 110.906 28.3205 108.803 28.1547C106.701 27.9889 104.79 28.3292 103.473 28.748C102.147 29.1667 101.388 29.5855 101.353 29.5157C101.335 29.4895 101.518 29.3674 101.859 29.158C102.19 28.9486 102.714 28.6956 103.377 28.4426C104.703 27.9366 106.666 27.5353 108.847 27.701C111.019 27.8755 112.904 28.5822 114.134 29.2976C114.753 29.6466 115.225 29.9781 115.521 30.2398C115.809 30.4928 115.966 30.6412 115.949 30.6673Z" fill="#263238"/>
<path d="M115.154 34.1575C115.102 34.2273 114.361 33.634 112.999 32.9884C112.328 32.6482 111.481 32.3428 110.53 32.0462C109.571 31.7757 108.498 31.5402 107.363 31.4093C106.221 31.2872 105.121 31.2697 104.135 31.3308C103.15 31.4268 102.26 31.5402 101.536 31.7496C100.079 32.1247 99.2498 32.5958 99.2061 32.5173C99.1887 32.4911 99.3893 32.3603 99.7645 32.1422C99.9477 32.0287 100.183 31.9153 100.471 31.8019C100.75 31.6798 101.073 31.5489 101.448 31.4442C102.181 31.1912 103.089 31.0341 104.109 30.9207C105.13 30.8335 106.255 30.8422 107.425 30.9644C108.594 31.1039 109.693 31.357 110.67 31.6536C111.638 31.9851 112.493 32.3254 113.157 32.7092C113.497 32.8837 113.793 33.0757 114.046 33.2414C114.308 33.4072 114.518 33.5555 114.683 33.7038C114.997 33.9656 115.172 34.1313 115.154 34.1575Z" fill="#263238"/>
<path d="M113.995 36.6789C113.943 36.7487 113.202 36.1554 111.823 35.5272C111.143 35.1957 110.279 34.9165 109.328 34.6461C108.359 34.4018 107.278 34.2098 106.126 34.1052C104.974 34.0266 103.875 34.0441 102.88 34.1313C101.886 34.2535 100.996 34.3931 100.272 34.6112C98.8149 35.0125 97.9774 35.4749 97.9425 35.4051C97.925 35.3789 98.1257 35.2481 98.5008 35.0299C98.684 34.9165 98.9196 34.8031 99.2075 34.681C99.4867 34.5501 99.8095 34.4192 100.185 34.3058C100.917 34.0441 101.825 33.8609 102.837 33.7126C103.858 33.5991 104.983 33.5642 106.17 33.6515C107.347 33.7562 108.455 33.9656 109.45 34.236C110.427 34.5414 111.3 34.8642 111.98 35.2393C112.329 35.4051 112.626 35.5883 112.887 35.7628C113.149 35.9286 113.367 36.0769 113.533 36.2165C113.838 36.4869 114.013 36.6527 113.995 36.6789Z" fill="#263238"/>
<path d="M92.6548 31.8019C92.5763 31.8194 92.428 30.8422 91.826 29.4027C91.2327 27.9719 90.1072 26.0787 88.3013 24.5432C86.4953 23.0077 84.4451 22.1963 82.9445 21.8386C81.4264 21.4722 80.4406 21.4809 80.4493 21.4024C80.4493 21.3762 80.6936 21.3413 81.1385 21.3413C81.5835 21.3413 82.2291 21.3849 83.0143 21.5245C84.5759 21.8037 86.7222 22.5976 88.5979 24.1942C90.4737 25.7908 91.5991 27.7887 92.1226 29.2806C92.3931 30.0309 92.5414 30.659 92.6112 31.104C92.681 31.5489 92.6897 31.8019 92.6548 31.8019Z" fill="#263238"/>
<path d="M94.1118 28.53C94.0333 28.5474 93.885 27.5703 93.283 26.1307C92.6897 24.6999 91.5643 22.8067 89.7583 21.2712C87.9524 19.7357 85.9021 18.9243 84.4015 18.5666C82.8834 18.2002 81.8976 18.2089 81.9063 18.1304C81.9063 18.1042 82.1506 18.0693 82.5955 18.0693C83.0405 18.0693 83.6861 18.113 84.4713 18.2526C86.033 18.5317 88.1792 19.3257 90.055 20.9222C91.9307 22.5188 93.0562 24.5167 93.5796 26.0086C93.8501 26.7589 93.9984 27.3871 94.0682 27.832C94.1293 28.2769 94.138 28.53 94.1118 28.53Z" fill="#263238"/>
<path d="M95.5591 25.2585C95.4806 25.2759 95.3322 24.2988 94.7303 22.8592C94.137 21.4284 93.0115 19.5352 91.2056 17.9997C89.3996 16.4642 87.3494 15.6528 85.8488 15.2951C84.3307 14.9287 83.3448 14.9374 83.3536 14.8589C83.3536 14.8328 83.5979 14.7979 84.0428 14.7979C84.4878 14.7979 85.1334 14.8415 85.9186 14.9811C87.4802 15.2602 89.6265 16.0542 91.5022 17.6507C93.378 19.2473 94.5034 21.2452 95.0269 22.7371C95.2973 23.4874 95.4457 24.1156 95.5155 24.5605C95.5853 25.0055 95.594 25.2497 95.5591 25.2585Z" fill="#263238"/>
<path d="M97.0161 21.9865C96.9376 22.0039 96.7893 21.0268 96.1873 19.5873C95.594 18.1565 94.4686 16.2633 92.6626 14.7278C90.8567 13.1922 88.8064 12.3809 87.3058 12.0232C85.7877 11.6567 84.8019 11.6655 84.8106 11.5869C84.8106 11.5608 85.0549 11.5259 85.4998 11.5259C85.9448 11.5259 86.5904 11.5695 87.3756 11.7091C88.9373 11.9883 91.0835 12.7822 92.9592 14.3788C94.835 15.9753 95.9605 17.9732 96.4839 19.4651C96.7544 20.2154 96.9027 20.8436 96.9638 21.2885C97.0336 21.7335 97.0423 21.9778 97.0161 21.9865Z" fill="#263238"/>
<path d="M98.4653 18.715C98.3868 18.7325 98.2385 17.7553 97.6365 16.3158C97.0432 14.885 95.9178 12.9918 94.1118 11.4563C92.3059 9.92077 90.2556 9.10939 88.755 8.75169C87.237 8.38526 86.2511 8.39399 86.2598 8.31547C86.2598 8.28929 86.5041 8.25439 86.9491 8.25439C87.394 8.25439 88.0396 8.29802 88.8248 8.43761C90.3865 8.71679 92.5327 9.51072 94.4085 11.1073C96.2842 12.7039 97.4097 14.7018 97.9331 16.1936C98.2036 16.9439 98.3519 17.5721 98.4217 18.0171C98.4915 18.462 98.4915 18.7063 98.4653 18.715Z" fill="#263238"/>
<path d="M99.9224 15.4435C99.8438 15.461 99.6955 14.4838 99.0935 13.0443C98.5003 11.6135 97.3748 9.72029 95.5689 8.18478C93.7629 6.64928 91.7127 5.83791 90.212 5.4802C88.694 5.11378 87.7081 5.1225 87.7169 5.04398C87.7169 5.01781 87.9611 4.98291 88.4061 4.98291C88.851 4.98291 89.4966 5.02653 90.2818 5.16612C91.8435 5.44531 93.9897 6.23923 95.8655 7.83581C97.7412 9.43238 98.8667 11.4303 99.3902 12.9222C99.6606 13.6725 99.8089 14.3006 99.8787 14.7456C99.9398 15.1905 99.9485 15.4348 99.9224 15.4435Z" fill="#263238"/>
<path d="M236.172 112.258L234.697 114.579C234.697 114.579 250.131 118.008 254.676 126.715C254.598 127.343 254.842 127.962 255.331 128.381L258.096 130.737C258.707 131.234 259.553 131.304 260.234 130.911C260.234 130.911 269.63 132.56 274.184 141.555L276.051 144.757L290.761 112.546L261.385 81.9321L236.172 112.258Z" fill="#E8505B"/>
<path d="M236.486 107.756L233.737 111.866C233.737 111.866 250.497 113.174 257.162 128.791L267.867 107.32C267.867 107.32 240.289 104.293 236.486 107.756Z" fill="#EBEBEB"/>
<path d="M254.912 77.0291C254.912 77.0291 276.74 76.1741 276.671 98.91L257.163 128.791C257.163 128.791 253.533 106.526 234.558 107.687L254.912 77.0291Z" fill="#F5F5F5"/>
<path d="M257.162 128.8C257.162 128.8 274.847 129.664 277.813 144.129L294.093 115.757L275.989 99.9482L257.162 128.8Z" fill="#EBEBEB"/>
<path d="M276.636 98.9276C276.636 98.9276 287.506 92.5064 295.786 99.739L300.951 104.564L285.099 133.433C285.099 133.433 272.239 121.908 257.128 128.818L276.636 98.9276Z" fill="#F5F5F5"/>
<path d="M257.162 128.8C257.136 128.782 257.389 128.355 257.86 127.587C258.383 126.758 259.073 125.677 259.901 124.368C261.69 121.602 264.08 117.903 266.733 113.811C269.368 109.711 271.749 106.012 273.538 103.237C274.367 101.929 275.056 100.847 275.588 100.027C276.077 99.2676 276.356 98.8576 276.382 98.875C276.408 98.8925 276.181 99.3287 275.736 100.123C275.3 100.908 274.637 102.033 273.808 103.412C272.151 106.169 269.786 109.938 267.117 114.064C264.447 118.191 261.987 121.89 260.172 124.551C259.291 125.825 258.567 126.881 258.008 127.692C257.494 128.416 257.188 128.817 257.162 128.8Z" fill="#263238"/>
<path d="M294.791 106.814C294.73 106.876 293.962 106.064 292.497 105.052C291.773 104.537 290.848 104.014 289.783 103.517C288.71 103.046 287.489 102.609 286.171 102.313C284.845 102.033 283.554 101.911 282.385 101.894C281.216 101.903 280.152 101.99 279.279 102.147C277.526 102.452 276.487 102.871 276.461 102.792C276.452 102.766 276.697 102.644 277.168 102.452C277.403 102.348 277.691 102.243 278.04 102.147C278.389 102.051 278.773 101.911 279.227 101.833C280.108 101.623 281.19 101.501 282.394 101.475C283.598 101.475 284.924 101.58 286.276 101.868C287.628 102.173 288.876 102.627 289.967 103.141C291.048 103.674 291.973 104.241 292.689 104.799C293.064 105.061 293.36 105.34 293.631 105.576C293.91 105.802 294.119 106.029 294.294 106.221C294.643 106.579 294.817 106.788 294.791 106.814Z" fill="#263238"/>
<path d="M293.395 110.365C293.334 110.426 292.566 109.615 291.1 108.603C290.376 108.088 289.451 107.565 288.387 107.067C287.314 106.596 286.092 106.16 284.775 105.863C283.449 105.584 282.158 105.462 280.989 105.445C279.82 105.453 278.755 105.541 277.883 105.698C276.129 106.003 275.091 106.422 275.065 106.343C275.056 106.317 275.3 106.195 275.771 106.003C276.007 105.898 276.295 105.794 276.644 105.698C276.993 105.602 277.377 105.462 277.83 105.384C278.712 105.174 279.793 105.052 280.997 105.026C282.201 105.026 283.527 105.131 284.88 105.418C286.232 105.724 287.48 106.178 288.57 106.692C289.652 107.224 290.577 107.792 291.292 108.35C291.667 108.612 291.964 108.891 292.234 109.126C292.514 109.353 292.723 109.58 292.897 109.772C293.238 110.13 293.421 110.339 293.395 110.365Z" fill="#263238"/>
<path d="M291.24 113.794C291.179 113.855 290.412 113.044 288.946 112.032C288.222 111.517 287.297 110.993 286.233 110.496C285.16 110.025 283.938 109.589 282.621 109.292C281.295 109.013 280.003 108.891 278.834 108.873C277.665 108.882 276.601 108.969 275.728 109.126C273.975 109.432 272.937 109.851 272.91 109.772C272.902 109.746 273.146 109.624 273.617 109.432C273.853 109.327 274.141 109.222 274.49 109.126C274.838 109.03 275.222 108.891 275.676 108.812C276.557 108.603 277.639 108.481 278.843 108.455C280.047 108.455 281.373 108.559 282.725 108.847C284.078 109.153 285.325 109.606 286.416 110.121C287.498 110.653 288.422 111.22 289.138 111.779C289.513 112.04 289.81 112.32 290.08 112.555C290.359 112.782 290.569 113.009 290.743 113.201C291.083 113.558 291.258 113.777 291.24 113.794Z" fill="#263238"/>
<path d="M258.358 118.401C258.271 118.409 258.271 117.144 257.765 115.208C257.276 113.279 256.177 110.662 254.144 108.385C252.111 106.108 249.642 104.721 247.784 104.014C245.917 103.299 244.66 103.15 244.678 103.063C244.678 103.037 245.001 103.046 245.559 103.124C246.126 103.203 246.929 103.377 247.897 103.709C249.825 104.346 252.399 105.733 254.493 108.08C256.587 110.427 257.669 113.14 258.087 115.129C258.306 116.124 258.384 116.952 258.401 117.519C258.41 118.087 258.384 118.401 258.358 118.401Z" fill="#263238"/>
<path d="M260.774 114.501C260.687 114.509 260.687 113.244 260.181 111.308C259.692 109.379 258.593 106.762 256.56 104.485C254.527 102.208 252.058 100.821 250.2 100.114C248.333 99.3987 247.076 99.2504 247.094 99.1632C247.094 99.137 247.417 99.1457 247.975 99.2242C248.542 99.3028 249.345 99.4772 250.313 99.8088C252.241 100.446 254.815 101.833 256.909 104.18C259.003 106.527 260.085 109.24 260.503 111.229C260.722 112.224 260.8 113.052 260.818 113.62C260.826 114.187 260.8 114.501 260.774 114.501Z" fill="#263238"/>
<path d="M263.191 110.601C263.104 110.61 263.104 109.345 262.598 107.408C262.109 105.48 261.01 102.862 258.977 100.585C256.944 98.3081 254.475 96.9209 252.617 96.2142C250.75 95.4988 249.493 95.3505 249.511 95.2633C249.511 95.2371 249.834 95.2458 250.392 95.3243C250.959 95.4029 251.762 95.5773 252.73 95.9089C254.658 96.5458 257.232 97.9329 259.326 100.28C261.42 102.627 262.502 105.34 262.92 107.329C263.139 108.324 263.217 109.153 263.234 109.72C263.243 110.287 263.217 110.601 263.191 110.601Z" fill="#263238"/>
<path d="M265.608 106.701C265.521 106.71 265.521 105.445 265.015 103.508C264.526 101.58 263.427 98.9624 261.394 96.6853C259.361 94.4082 256.892 93.021 255.034 92.3143C253.167 91.5989 251.91 91.4506 251.928 91.3634C251.928 91.3372 252.251 91.3459 252.809 91.4244C253.367 91.503 254.179 91.6774 255.147 92.009C257.075 92.6459 259.649 94.033 261.743 96.3799C263.837 98.7268 264.919 101.44 265.337 103.429C265.556 104.424 265.634 105.253 265.651 105.82C265.66 106.387 265.634 106.701 265.608 106.701Z" fill="#263238"/>
<path d="M268.024 102.801C267.937 102.81 267.937 101.545 267.431 99.6079C266.942 97.6798 265.843 95.0625 263.81 92.7854C261.777 90.5083 259.308 89.1211 257.45 88.4144C255.583 87.699 254.326 87.5507 254.344 87.4635C254.344 87.4373 254.667 87.446 255.225 87.5245C255.783 87.603 256.595 87.7775 257.563 88.1091C259.491 88.746 262.065 90.1331 264.159 92.48C266.253 94.8269 267.335 97.5402 267.753 99.5294C267.972 100.524 268.05 101.353 268.068 101.92C268.076 102.487 268.05 102.801 268.024 102.801Z" fill="#263238"/>
<path d="M270.441 98.9011C270.354 98.9099 270.354 97.6448 269.848 95.708C269.359 93.7799 268.26 91.1626 266.227 88.8855C264.194 86.6084 261.725 85.2212 259.867 84.5145C258 83.7991 256.743 83.6508 256.761 83.5636C256.761 83.5374 257.084 83.5461 257.642 83.6246C258.209 83.7031 259.012 83.8776 259.98 84.2092C261.908 84.846 264.482 86.2332 266.576 88.5801C268.67 90.927 269.752 93.6403 270.17 95.6295C270.389 96.6241 270.467 97.4529 270.484 98.02C270.493 98.5871 270.476 98.9011 270.441 98.9011Z" fill="#263238"/>
<path d="M272.229 113.794L266.541 122.03C266.541 122.03 275.239 121 282.856 125.842L288.134 117.013C288.125 117.022 280.064 110.697 272.229 113.794Z" fill="#EBEBEB"/>
</svg>
