<svg width="41" height="41" viewBox="0 0 41 41" fill="none" xmlns="http://www.w3.org/2000/svg">
<g id="book 3" clip-path="url(#clip0_501_5438)">
<g id="Page 1">
<g id="030   Messy Books">
<path id="Shape" d="M4.04416 36.9067L0.120885 14.6324C0.0830019 14.4174 0.0593871 14.2002 0.0501949 13.9821C-0.00811056 11.4567 1.80519 9.27534 4.29864 8.87119L11.8695 7.53516L11.6645 36.9067H4.04416Z" fill="#27A857"/>
<path id="Shape_2" d="M33.183 35.9315C33.0517 36.4766 32.6108 36.8925 32.059 36.9919L9.77763 40.9222C8.37323 41.1674 6.93126 40.7959 5.82013 39.9027C4.70901 39.0095 4.03635 37.681 3.97401 36.2567C3.91833 33.8423 5.58063 31.7266 7.9397 31.2095L14.1816 32.9626H14.1745L8.5547 33.9593C7.92793 34.0695 7.38356 34.4548 7.07138 35.0094C6.75919 35.5639 6.71207 36.2292 6.94298 36.8222C7.34281 37.7774 8.3583 38.3205 9.3747 38.1229L26.4038 35.1186L33.183 35.9315Z" fill="#218D49"/>
<path id="Shape_3" d="M14.1732 32.9624L8.55338 33.9591C7.9266 34.0693 7.38224 34.4547 7.07005 35.0092C6.75786 35.5638 6.71074 36.2291 6.94165 36.8221C7.34149 37.7772 8.35697 38.3203 9.37337 38.1228L26.4025 35.1184L14.1732 32.9624Z" fill="white"/>
<path id="Shape_4" d="M9.06836 23.4483L12.9966 1.17117C13.1372 0.405422 13.8668 -0.105355 14.6345 0.0245789L36.7441 3.92311C39.2393 4.32758 41.054 6.51036 40.996 9.03751C40.9864 9.25465 40.9628 9.47093 40.9254 9.68503L36.9971 31.9622L9.06836 23.4483Z" fill="#EB763C"/>
<path id="Shape_5" d="M32.1206 7.40399C32.0792 7.40397 32.0378 7.40042 31.9969 7.39338L15.985 4.57004C15.6237 4.48092 15.3933 4.1269 15.4582 3.76043C15.5231 3.39396 15.861 3.14059 16.231 3.18099L32.2422 6.0008C32.6033 6.06406 32.8561 6.39288 32.8245 6.75811C32.7928 7.12335 32.4872 7.40378 32.1206 7.40399Z" fill="white"/>
<path id="Shape_6" d="M28.7223 10.3913C28.6808 10.3914 28.6394 10.3876 28.5986 10.38L18.1564 8.54138C17.7807 8.46519 17.5341 8.10343 17.6007 7.7259C17.6672 7.34837 18.0225 7.09267 18.4016 7.1495L28.8446 8.98743C29.2078 9.04881 29.463 9.37882 29.4311 9.74579C29.3991 10.1128 29.0907 10.3937 28.7223 10.3913Z" fill="white"/>
<path id="Rectangle path" d="M30.1974 13.5488L15.5752 10.9658C15.1906 10.8978 14.8238 11.1545 14.7559 11.5391L13.5259 18.502C13.458 18.8866 13.7146 19.2534 14.0992 19.3213L28.7214 21.9043C29.1059 21.9722 29.4727 21.7156 29.5406 21.331L30.7706 14.3681C30.8386 13.9835 30.5819 13.6167 30.1974 13.5488Z" fill="#ECF0F1"/>
<path id="Shape_7" d="M40.9942 9.03381C40.9858 9.25197 40.9621 9.46928 40.9235 9.68416L36.9931 31.9585L31.543 30.2973L34.7028 12.3845L35.4521 8.15726L36.2156 3.83105L36.7457 3.92295C39.238 4.32909 41.0503 6.50924 40.9942 9.03381Z" fill="#E75D18"/>
<path id="Shape_8" d="M32.8158 26.1975L10.7041 22.3025C10.6224 22.2884 10.5396 22.2813 10.4567 22.2812C9.72401 22.2831 9.11415 22.8444 9.05163 23.5744C8.98911 24.3044 9.49465 24.9612 10.2163 25.0876L32.4907 29.0109C33.1169 29.1243 33.6596 29.5118 33.9702 30.0673C34.2807 30.6228 34.3266 31.288 34.0953 31.8809C33.6976 32.8339 32.6837 33.3749 31.6707 33.1745L9.48116 29.2654C9.39944 29.2513 9.31667 29.2442 9.23375 29.2442C8.49972 29.2424 7.8864 29.8026 7.82194 30.5338C7.75747 31.265 8.26331 31.9239 8.98634 32.0506L31.2677 35.9738C32.6711 36.2199 34.1125 35.8496 35.2236 34.9578C36.3347 34.0659 37.0079 32.7388 37.0713 31.3154C37.1268 28.7872 35.3117 26.6042 32.8158 26.1975Z" fill="#B94A13"/>
<path id="Shape_9" d="M34.0946 31.8807C33.6969 32.8337 32.683 33.3747 31.6699 33.1743L9.48047 29.2652L10.2156 25.0874L32.4899 29.0107C33.1162 29.1241 33.6589 29.5116 33.9695 30.0671C34.28 30.6225 34.3259 31.2878 34.0946 31.8807Z" fill="white"/>
</g>
</g>
</g>
<defs>
<clipPath id="clip0_501_5438">
<rect width="41" height="41" fill="white"/>
</clipPath>
</defs>
</svg>
