<svg width="25" height="16" viewBox="0 0 25 16" fill="none" xmlns="http://www.w3.org/2000/svg">
<path d="M1.76 15C1.37333 15 1.06667 14.8933 0.84 14.68C0.626667 14.4667 0.52 14.1667 0.52 13.78V2.12C0.52 1.73333 0.626667 1.43333 0.84 1.22C1.06667 1.00667 1.37333 0.899999 1.76 0.899999H8.98C9.36667 0.899999 9.66667 0.986666 9.88 1.16C10.0933 1.33333 10.2 1.58 10.2 1.9C10.2 2.23333 10.0933 2.49333 9.88 2.68C9.66667 2.85333 9.36667 2.94 8.98 2.94H3.04V6.82H8.58C8.96667 6.82 9.26667 6.90667 9.48 7.08C9.69333 7.25333 9.8 7.50667 9.8 7.84C9.8 8.16 9.69333 8.40667 9.48 8.58C9.26667 8.75333 8.96667 8.84 8.58 8.84H3.04V12.96H8.98C9.36667 12.96 9.66667 13.0533 9.88 13.24C10.0933 13.4133 10.2 13.6667 10.2 14C10.2 14.32 10.0933 14.5667 9.88 14.74C9.66667 14.9133 9.36667 15 8.98 15H1.76ZM23.5773 0.799999C23.9507 0.799999 24.244 0.919999 24.4573 1.16C24.684 1.38667 24.7973 1.69333 24.7973 2.08V13.82C24.7973 14.2067 24.684 14.52 24.4573 14.76C24.2307 15 23.9373 15.12 23.5773 15.12C23.1507 15.12 22.824 14.9667 22.5973 14.66L15.2973 5.16V13.82C15.2973 14.2067 15.1907 14.52 14.9773 14.76C14.764 15 14.4707 15.12 14.0973 15.12C13.724 15.12 13.4307 15 13.2173 14.76C13.004 14.52 12.8973 14.2067 12.8973 13.82V2.08C12.8973 1.69333 13.0107 1.38667 13.2373 1.16C13.464 0.919999 13.764 0.799999 14.1373 0.799999C14.5507 0.799999 14.8707 0.953333 15.0973 1.26L22.3773 10.72V2.08C22.3773 1.69333 22.484 1.38667 22.6973 1.16C22.924 0.919999 23.2173 0.799999 23.5773 0.799999Z" fill="#212121"/>
</svg>
