<svg width="118" height="108" viewBox="0 0 118 108" fill="none" xmlns="http://www.w3.org/2000/svg">
<g id="Frame" clip-path="url(#clip0_501_4848)">
<g id="Group">
<g id="Group_2">
<g id="Group_3">
<g id="Group_4">
<path id="Vector" d="M98.2234 6.39657C98.392 5.56809 98.2458 4.69454 97.9029 3.91679C97.5656 3.15595 97.0316 2.47401 96.3176 2.05695C95.5587 1.61172 94.6142 1.50464 93.771 1.75262C93.2706 1.90478 92.8096 2.18094 92.433 2.54727C92.3318 2.08513 92.1294 1.6399 91.8371 1.2623C91.303 0.56345 90.471 0.101309 89.594 0.0167712C88.7732 -0.0621309 87.9356 0.180211 87.2216 0.597265C86.4908 1.02559 85.8668 1.65117 85.5183 2.41765C85.0798 3.38138 84.9224 4.54237 85.1641 5.57373C85.4171 6.66145 86.0636 7.68718 86.8 8.53256C88.0312 9.95279 89.6783 11.7619 89.6783 11.7619C89.6783 11.7619 91.7921 11.0349 93.6192 10.6066C94.7042 10.3529 95.8285 9.90207 96.6718 9.16377C97.4701 8.47056 98.0154 7.43356 98.2234 6.39657Z" fill="#EB763C"/>
</g>
</g>
</g>
<g id="Group_5">
<g id="Group_6">
<g id="Group_7">
<path id="Vector_2" d="M85.979 21.399C85.8441 21.0158 85.5742 20.6945 85.2482 20.4578C84.9277 20.2268 84.5398 20.0746 84.1463 20.0802C83.7303 20.0802 83.3143 20.2662 83.0276 20.5705C82.8589 20.7509 82.7353 20.9763 82.6734 21.2187C82.5216 21.0552 82.3305 20.92 82.1225 20.8354C81.7346 20.6776 81.2792 20.6889 80.9026 20.8692C80.5428 21.0383 80.2617 21.337 80.0706 21.6808C79.8738 22.0302 79.767 22.4417 79.812 22.8418C79.8682 23.3434 80.0818 23.8563 80.4304 24.2226C80.7958 24.6058 81.313 24.8707 81.8133 25.0398C82.6622 25.3216 83.7753 25.6654 83.7753 25.6654C83.7753 25.6654 84.4668 24.8538 85.1133 24.2339C85.4955 23.8675 85.8497 23.4054 86.0184 22.9038C86.1701 22.436 86.1477 21.8781 85.979 21.399Z" fill="#EB763C"/>
</g>
</g>
</g>
<g id="Group_8">
<g id="Group_9">
<g id="Group_10">
<path id="Vector_3" d="M6.2517 104.624C6.34164 104.229 6.27981 103.812 6.12802 103.44C5.97623 103.074 5.72888 102.742 5.3972 102.539C5.04303 102.319 4.59329 102.257 4.18852 102.364C3.94679 102.432 3.72754 102.556 3.54203 102.725C3.49705 102.505 3.4071 102.291 3.27218 102.105C3.02483 101.767 2.63693 101.535 2.22092 101.485C1.8274 101.434 1.42826 101.541 1.08533 101.733C0.731163 101.93 0.42759 102.217 0.253317 102.578C0.0340693 103.035 -0.0558783 103.581 0.0453127 104.077C0.152125 104.601 0.450077 105.097 0.78738 105.503C1.3608 106.196 2.11973 107.076 2.11973 107.076C2.11973 107.076 3.13726 106.754 4.00863 106.574C4.53145 106.467 5.07114 106.264 5.4759 105.92C5.86942 105.605 6.13926 105.12 6.2517 104.624Z" fill="#EB763C"/>
</g>
</g>
</g>
<g id="Group_11">
<g id="Group_12">
<g id="Group_13">
<path id="Vector_4" d="M117.916 105.317C117.831 105.081 117.663 104.872 117.455 104.725C117.252 104.579 117.01 104.489 116.763 104.489C116.499 104.489 116.24 104.607 116.06 104.799C115.954 104.911 115.875 105.058 115.836 105.205C115.74 105.103 115.622 105.019 115.487 104.962C115.245 104.866 114.959 104.872 114.722 104.985C114.498 105.092 114.318 105.278 114.2 105.498C114.076 105.717 114.008 105.977 114.037 106.23C114.07 106.546 114.205 106.867 114.424 107.098C114.655 107.341 114.975 107.504 115.296 107.611C115.83 107.791 116.527 108.006 116.527 108.006C116.527 108.006 116.96 107.498 117.37 107.104C117.612 106.873 117.831 106.585 117.938 106.264C118.034 105.965 118.017 105.616 117.916 105.317Z" fill="#EB763C"/>
</g>
</g>
</g>
<g id="Group_14">
<g id="Group_15">
<g id="Group_16">
<path id="Vector_5" d="M12.4361 86.3863C12.3518 86.1496 12.1831 85.9411 11.9751 85.7946C11.7727 85.648 11.531 85.5522 11.2836 85.5579C11.0194 85.5579 10.7608 85.6762 10.5809 85.8678C10.4741 85.9805 10.3954 86.1271 10.3561 86.2736C10.2605 86.1722 10.1424 86.0876 10.0075 86.0313C9.76578 85.9355 9.47908 85.9411 9.24296 86.0538C9.01809 86.1609 8.8382 86.3469 8.72014 86.5667C8.59646 86.7865 8.529 87.0457 8.55711 87.2993C8.59084 87.6149 8.72576 87.9362 8.94501 88.1673C9.1755 88.4096 9.49594 88.573 9.81638 88.6801C10.3504 88.8605 11.0475 89.0746 11.0475 89.0746C11.0475 89.0746 11.4804 88.5674 11.8908 88.1729C12.1325 87.9418 12.3518 87.6544 12.4586 87.3332C12.5598 87.0345 12.5429 86.685 12.4361 86.3863Z" fill="#EB763C"/>
</g>
</g>
</g>
<g id="Group_17">
<g id="Group_18">
<g id="Group_19">
<path id="Vector_6" d="M110.99 15.4308C110.905 15.1941 110.737 14.9855 110.529 14.839C110.326 14.6925 110.085 14.5967 109.837 14.6023C109.573 14.6023 109.315 14.7206 109.135 14.9123C109.028 15.025 108.949 15.1715 108.91 15.318C108.814 15.2166 108.696 15.1321 108.561 15.0757C108.319 14.9799 108.033 14.9855 107.797 15.0982C107.572 15.2053 107.392 15.3913 107.274 15.6111C107.15 15.8309 107.083 16.0902 107.111 16.3438C107.145 16.6594 107.279 16.9806 107.499 17.2117C107.729 17.454 108.05 17.6175 108.37 17.7246C108.904 17.9049 109.601 18.1191 109.601 18.1191C109.601 18.1191 110.034 17.6118 110.444 17.223C110.686 16.9919 110.905 16.7045 111.012 16.3832C111.108 16.0789 111.091 15.7295 110.99 15.4308Z" fill="#EB763C"/>
</g>
</g>
</g>
<g id="Group_20">
<g id="Group_21">
<g id="Group_22">
<path id="Vector_7" d="M109.871 91.9488C109.933 91.2161 109.719 90.4778 109.343 89.8409C108.977 89.221 108.449 88.6856 107.785 88.3982C107.083 88.0938 106.262 88.0938 105.559 88.3925C105.143 88.5729 104.772 88.8603 104.486 89.2097C104.351 88.8209 104.131 88.4545 103.845 88.1615C103.311 87.6148 102.546 87.2992 101.781 87.3161C101.062 87.3273 100.365 87.6204 99.7914 88.0544C99.2067 88.4996 98.7289 89.097 98.504 89.8015C98.2229 90.6807 98.2004 91.6951 98.5152 92.5631C98.8413 93.4761 99.5047 94.2989 100.224 94.9527C101.433 96.0517 103.029 97.4494 103.029 97.4494C103.029 97.4494 104.783 96.6096 106.318 96.0517C107.229 95.7191 108.156 95.2176 108.809 94.4962C109.427 93.8199 109.798 92.8674 109.871 91.9488Z" fill="#EB763C"/>
</g>
</g>
</g>
</g>
</g>
<defs>
<clipPath id="clip0_501_4848">
<rect width="118" height="108" fill="white"/>
</clipPath>
</defs>
</svg>
