<svg width="150" height="224" viewBox="0 0 150 224" fill="none" xmlns="http://www.w3.org/2000/svg">
<g clip-path="url(#clip0_501_4952)">
<path d="M142.712 120.533H117.924V150.033H142.712V120.533Z" fill="#F5F5F5"/>
<path d="M118.778 118.608H6.75195V151.89H118.778V118.608Z" fill="#1AA928"/>
<path d="M143.464 121.405H115.775V118.608H143.464C144.239 118.608 144.861 119.237 144.861 120.006C144.861 120.782 144.239 121.405 143.464 121.405Z" fill="#1AA928"/>
<path d="M143.464 151.884H115.775V149.088H143.464C144.239 149.088 144.861 149.717 144.861 150.486C144.861 151.262 144.239 151.884 143.464 151.884Z" fill="#1AA928"/>
<g opacity="0.4">
<path opacity="0.4" d="M109.969 118.608H96.7324V151.89H109.969V118.608Z" fill="black"/>
</g>
<g opacity="0.4">
<path opacity="0.4" d="M29.9279 118.608H16.6914V151.89H29.9279V118.608Z" fill="black"/>
</g>
<path d="M142.712 125.412C142.712 125.491 137.347 125.559 130.731 125.559C124.11 125.559 118.75 125.491 118.75 125.412C118.75 125.333 124.116 125.265 130.731 125.265C137.347 125.265 142.712 125.327 142.712 125.412Z" fill="#E0E0E0"/>
<path d="M142.712 129.832C142.712 129.911 137.347 129.979 130.731 129.979C124.11 129.979 118.75 129.911 118.75 129.832C118.75 129.753 124.116 129.685 130.731 129.685C137.347 129.685 142.712 129.753 142.712 129.832Z" fill="#E0E0E0"/>
<path d="M142.712 135.283C142.712 135.363 137.347 135.431 130.731 135.431C124.11 135.431 118.75 135.363 118.75 135.283C118.75 135.204 124.116 135.136 130.731 135.136C137.347 135.136 142.712 135.198 142.712 135.283Z" fill="#E0E0E0"/>
<path d="M142.712 140.728C142.712 140.807 137.347 140.875 130.731 140.875C124.11 140.875 118.75 140.807 118.75 140.728C118.75 140.649 124.116 140.581 130.731 140.581C137.347 140.581 142.712 140.649 142.712 140.728Z" fill="#E0E0E0"/>
<path d="M142.712 146.173C142.712 146.252 137.347 146.32 130.731 146.32C124.11 146.32 118.75 146.252 118.75 146.173C118.75 146.094 124.116 146.026 130.731 146.026C137.347 146.026 142.712 146.094 142.712 146.173Z" fill="#E0E0E0"/>
<g opacity="0.2">
<path opacity="0.2" d="M89.6202 132.283H39.2188V138.277H89.6202V132.283Z" fill="black"/>
</g>
<path d="M142.458 152.541H117.291V170.518H142.458V152.541Z" fill="#FAFAFA"/>
<path d="M117.574 151.884H10.4609V171.163H117.574V151.884Z" fill="#455A64"/>
<path d="M116.793 153.192H143.848C144.21 153.192 144.498 152.898 144.498 152.541C144.498 152.179 144.204 151.89 143.848 151.89H116.793V153.192Z" fill="#455A64"/>
<path d="M116.793 171.169H143.848C144.21 171.169 144.498 170.874 144.498 170.518C144.498 170.155 144.204 169.867 143.848 169.867H116.793V171.169Z" fill="#455A64"/>
<path d="M142.464 155.954C142.464 156.033 136.895 156.101 130.019 156.101C123.144 156.101 117.574 156.033 117.574 155.954C117.574 155.875 123.144 155.807 130.019 155.807C136.889 155.807 142.464 155.875 142.464 155.954Z" fill="#E0E0E0"/>
<path d="M142.464 159.356C142.464 159.435 136.895 159.503 130.019 159.503C123.144 159.503 117.574 159.435 117.574 159.356C117.574 159.276 123.144 159.208 130.019 159.208C136.889 159.208 142.464 159.271 142.464 159.356Z" fill="#E0E0E0"/>
<path d="M142.464 162.758C142.464 162.837 136.895 162.905 130.019 162.905C123.144 162.905 117.574 162.837 117.574 162.758C117.574 162.678 123.144 162.61 130.019 162.61C136.889 162.61 142.464 162.673 142.464 162.758Z" fill="#E0E0E0"/>
<path d="M142.464 166.153C142.464 166.233 136.895 166.301 130.019 166.301C123.144 166.301 117.574 166.233 117.574 166.153C117.574 166.074 123.144 166.006 130.019 166.006C136.889 166.006 142.464 166.074 142.464 166.153Z" fill="#E0E0E0"/>
<path d="M101.025 158.79H27.1582V163.821H101.025V158.79Z" fill="#263238"/>
<path d="M146.279 172.878H120.586V221.606H146.279V172.878Z" fill="#EBEBEB"/>
<path d="M120.587 171.168H0V224H120.587V171.168Z" fill="#1AA928"/>
<path d="M148.287 224H117.291V220.576H148.287C149.232 220.576 150.001 221.345 150.001 222.291C150.001 223.236 149.237 224 148.287 224Z" fill="#1AA928"/>
<path d="M148.287 174.593H117.291V171.168H148.287C149.232 171.168 150.001 171.938 150.001 172.883C150.001 173.829 149.237 174.593 148.287 174.593Z" fill="#1AA928"/>
<g opacity="0.4">
<path opacity="0.4" d="M94.6518 171.168L69.2871 224H90.7165L114.764 171.168H94.6518Z" fill="white"/>
</g>
<g opacity="0.4">
<path opacity="0.4" d="M54.6364 171.168L29.2773 224H50.7011L74.754 171.168H54.6364Z" fill="white"/>
</g>
<path d="M146.279 179.41C146.279 179.489 140.528 179.557 133.432 179.557C126.336 179.557 120.586 179.489 120.586 179.41C120.586 179.331 126.336 179.263 133.432 179.263C140.528 179.263 146.279 179.331 146.279 179.41Z" fill="#E0E0E0"/>
<path d="M146.279 185.664C146.279 185.743 140.528 185.811 133.432 185.811C126.336 185.811 120.586 185.743 120.586 185.664C120.586 185.585 126.336 185.517 133.432 185.517C140.528 185.517 146.279 185.579 146.279 185.664Z" fill="#E0E0E0"/>
<path d="M146.279 191.913C146.279 191.992 140.528 192.06 133.432 192.06C126.336 192.06 120.586 191.992 120.586 191.913C120.586 191.834 126.336 191.766 133.432 191.766C140.528 191.766 146.279 191.828 146.279 191.913Z" fill="#E0E0E0"/>
<path d="M146.279 198.162C146.279 198.241 140.528 198.309 133.432 198.309C126.336 198.309 120.586 198.241 120.586 198.162C120.586 198.083 126.336 198.015 133.432 198.015C140.528 198.015 146.279 198.083 146.279 198.162Z" fill="#E0E0E0"/>
<path d="M146.279 204.41C146.279 204.49 140.528 204.558 133.432 204.558C126.336 204.558 120.586 204.49 120.586 204.41C120.586 204.331 126.336 204.263 133.432 204.263C140.528 204.263 146.279 204.331 146.279 204.41Z" fill="#E0E0E0"/>
<path d="M146.279 210.659C146.279 210.739 140.528 210.807 133.432 210.807C126.336 210.807 120.586 210.739 120.586 210.659C120.586 210.58 126.336 210.512 133.432 210.512C140.528 210.512 146.279 210.58 146.279 210.659Z" fill="#E0E0E0"/>
<path d="M146.279 216.908C146.279 216.987 140.528 217.055 133.432 217.055C126.336 217.055 120.586 216.987 120.586 216.908C120.586 216.829 126.336 216.761 133.432 216.761C140.528 216.761 146.279 216.829 146.279 216.908Z" fill="#E0E0E0"/>
<path d="M130.988 29.2178L123.112 16.573C122.937 16.29 122.524 16.2957 122.354 16.5843L114.631 29.9479L130.988 29.2178Z" fill="#1AA928"/>
<g opacity="0.3">
<path opacity="0.3" d="M130.988 29.2178L123.112 16.573C122.937 16.29 122.524 16.2957 122.354 16.5843L114.631 29.9479L130.988 29.2178Z" fill="black"/>
</g>
<path d="M123.118 17.1729L130.475 29.1667L128.603 28.8724L116.588 26.9819L121.06 17.5464L123.118 17.1729Z" fill="#EBEBEB"/>
<path d="M123.904 40.7531L130.989 29.2178L112.636 25.8387C112.036 25.7311 111.437 26.0028 111.126 26.5292L100.779 44.0813C100.462 44.619 100.779 45.3152 101.395 45.4228L118.64 48.4849L123.904 40.7531Z" fill="#1AA928"/>
<path d="M119.009 17.8975L129.192 28.9347L114.406 26.1613L119.009 17.8975Z" fill="#EBEBEB"/>
<path d="M114.405 26.1611C114.399 26.1555 114.422 26.1045 114.473 26.0026C114.535 25.8781 114.609 25.731 114.705 25.5498C114.931 25.131 115.231 24.565 115.609 23.8575C116.418 22.3745 117.549 20.3085 118.906 17.8407L118.991 17.6879L119.109 17.8181C121.038 19.901 123.316 22.3575 125.747 24.9838C126.986 26.3309 128.184 27.6328 129.298 28.8384L129.078 29.0195C126.76 25.731 124.747 22.8839 123.294 20.8236C122.598 19.8218 122.044 19.018 121.637 18.4294C121.462 18.1634 121.315 17.9539 121.201 17.7841C121.105 17.637 121.06 17.5577 121.066 17.5521C121.071 17.5464 121.134 17.62 121.241 17.7558C121.365 17.92 121.518 18.1237 121.71 18.3784C122.134 18.9558 122.717 19.7425 123.435 20.7274C124.911 22.7707 126.946 25.5951 129.304 28.861L129.083 29.0421C127.97 27.8365 126.765 26.5347 125.527 25.1932C123.107 22.5556 120.84 20.0878 118.917 17.9992L119.121 17.9766C117.73 20.4274 116.571 22.4707 115.734 23.9424C115.332 24.6329 115.01 25.1932 114.767 25.6008C114.66 25.7762 114.575 25.9177 114.507 26.0309C114.445 26.1159 114.411 26.1668 114.405 26.1611Z" fill="#263238"/>
<g opacity="0.3">
<path opacity="0.3" d="M114.61 30.9609C114.452 31.1987 108.436 41.2397 108.436 41.2397L118.24 43.0736L124.748 32.6646L114.61 30.9609Z" fill="white"/>
</g>
<path d="M40.8338 202.152L46.2223 195.105L46.4993 194.737L55.6818 201.575L47.1779 210.925L47.4945 220.395C52.2327 221.623 52.9395 223.989 52.9395 223.989L43.0955 223.978L34.1562 206.737L40.8338 202.152Z" fill="#455A64"/>
<path d="M34.1562 206.737L43.0955 223.978L52.9395 223.989C52.7133 223.445 52.3401 222.953 51.8312 222.506L43.8249 222.059L35.5698 205.763L34.1562 206.737Z" fill="#EBEBEB"/>
<path d="M47.4315 216.059C47.358 216.161 46.7926 215.838 46.0293 215.855C45.2659 215.855 44.7062 216.195 44.6327 216.093C44.5422 216.02 45.0963 215.431 46.0236 215.42C46.9509 215.408 47.522 215.98 47.4315 216.059Z" fill="#263238"/>
<path d="M47.2734 213.71C47.1773 213.778 46.7363 213.195 45.9503 213.042C45.1644 212.878 44.5368 213.246 44.4746 213.144C44.4407 213.099 44.5538 212.935 44.8308 212.782C45.1022 212.629 45.5489 212.516 46.0351 212.612C46.5214 212.708 46.8889 212.991 47.0812 213.235C47.2791 213.49 47.3243 213.682 47.2734 213.71Z" fill="#263238"/>
<path d="M47.3416 210.699C47.2342 210.755 46.9006 210.184 46.2107 209.946C45.5266 209.697 44.9103 209.929 44.8594 209.821C44.8311 209.77 44.9555 209.635 45.2326 209.533C45.4983 209.431 45.928 209.386 46.3578 209.538C46.7875 209.691 47.0928 209.991 47.2341 210.24C47.3812 210.489 47.3925 210.676 47.3416 210.699Z" fill="#263238"/>
<path d="M49.9767 208.361C49.8579 208.401 49.5809 207.841 48.9702 207.444C48.3709 207.031 47.7489 206.992 47.7433 206.867C47.7094 206.754 48.4727 206.584 49.2134 207.088C49.9597 207.58 50.0954 208.35 49.9767 208.361Z" fill="#263238"/>
<path d="M51.2597 206.34C51.2088 206.374 50.8866 205.978 50.4003 205.31C50.1289 204.92 49.8518 204.529 49.5691 204.127C49.4278 203.895 49.2299 203.697 49.1111 203.329C49.0602 203.148 49.0659 202.927 49.1733 202.729C49.2751 202.52 49.5522 202.39 49.767 202.418C50.1967 202.48 50.4342 202.701 50.6887 202.893C50.9318 203.103 51.1297 203.335 51.288 203.578C51.6046 204.065 51.7516 204.574 51.8025 204.999C51.8987 205.871 51.6103 206.369 51.5764 206.346C51.5029 206.329 51.6612 205.825 51.4972 205.05C51.4124 204.665 51.2484 204.224 50.9544 203.805C50.8074 203.595 50.6265 203.397 50.4116 203.222C50.2024 203.052 49.9366 202.871 49.7331 202.848C49.637 202.842 49.5861 202.871 49.5465 202.939C49.5069 203.012 49.4956 203.12 49.5182 203.216C49.5691 203.425 49.7614 203.669 49.8971 203.901C50.1515 204.32 50.4059 204.733 50.6491 205.135C51.0788 205.848 51.3106 206.306 51.2597 206.34Z" fill="#263238"/>
<path d="M51.6165 206.629C51.5712 206.623 51.6052 206.108 52.1423 205.514C52.6625 204.954 53.799 204.354 55.0599 204.988C55.1503 205.067 55.2182 205.203 55.2125 205.339C55.2069 205.474 55.1503 205.576 55.0938 205.65C54.9751 205.803 54.8507 205.876 54.7432 205.961C54.5171 206.12 54.2796 206.256 54.0478 206.357C53.5841 206.572 53.1318 206.674 52.753 206.72C51.9896 206.799 51.526 206.652 51.5373 206.606C51.543 206.539 52.001 206.572 52.7021 206.42C53.0526 206.34 53.4597 206.216 53.8725 206.001C54.0817 205.893 54.2909 205.769 54.4944 205.616C54.5962 205.537 54.7037 205.463 54.7489 205.395C54.7998 205.31 54.7828 205.333 54.7658 205.31C54.7319 205.276 54.6019 205.231 54.4831 205.203C54.3644 205.174 54.24 205.152 54.1156 205.146C53.8725 205.129 53.635 205.146 53.4145 205.197C52.9735 205.293 52.6116 205.508 52.3515 205.735C51.8257 206.205 51.6787 206.657 51.6165 206.629Z" fill="#263238"/>
<path d="M42.0108 206.443C42.0108 207.088 41.4906 207.614 40.8403 207.614C40.1958 207.614 39.6699 207.094 39.6699 206.443C39.6699 205.797 40.1901 205.271 40.8403 205.271C41.4849 205.277 42.0108 205.797 42.0108 206.443Z" fill="#EBEBEB"/>
<g opacity="0.3">
<path opacity="0.3" d="M54.8285 202.52L52.94 204.597L44.9902 196.718L46.0985 195.275L54.8285 202.52Z" fill="black"/>
</g>
<path d="M79.3615 205.735L78.3551 217.717C78.3551 217.717 90.1836 221.759 90.2119 223.989L66.9336 223.876L67.7365 205.141L79.3615 205.735Z" fill="#455A64"/>
<path d="M71.2083 216.365C70.7503 216.467 70.4167 216.959 70.5015 217.418C70.5863 217.876 71.0839 218.227 71.5419 218.131C71.9999 218.035 72.4183 217.457 72.2882 217.01C72.1525 216.563 71.5475 216.189 71.1291 216.387" fill="#EBEBEB"/>
<path d="M66.9395 223.882L67.0186 222.014L89.0587 222.546C89.0587 222.546 90.2291 223.48 90.2178 223.995L66.9395 223.882Z" fill="#EBEBEB"/>
<path d="M78.7396 217.616C78.7283 217.729 78.1572 217.752 77.5805 218.091C76.9924 218.414 76.6814 218.895 76.5797 218.844C76.4779 218.816 76.6758 218.142 77.3826 217.746C78.0893 217.344 78.7678 217.514 78.7396 217.616Z" fill="#263238"/>
<path d="M81.1315 218.748C81.1541 218.861 80.6509 219.031 80.2438 219.489C79.8197 219.942 79.701 220.457 79.5879 220.446C79.4805 220.457 79.4353 219.789 79.9554 219.223C80.4643 218.651 81.1372 218.64 81.1315 218.748Z" fill="#263238"/>
<path d="M82.3808 221.736C82.2791 221.753 82.1434 221.181 82.4657 220.57C82.7823 219.959 83.3308 219.738 83.376 219.834C83.4382 219.93 83.0763 220.247 82.8162 220.751C82.5505 221.255 82.4939 221.73 82.3808 221.736Z" fill="#263238"/>
<path d="M78.6654 214.859C78.6145 214.961 78.0999 214.78 77.4554 214.791C76.8108 214.791 76.3019 214.984 76.2454 214.882C76.1832 214.797 76.692 214.401 77.4497 214.395C78.213 214.389 78.7276 214.774 78.6654 214.859Z" fill="#263238"/>
<path d="M78.8254 212.442C78.8254 212.487 78.373 212.538 77.6606 212.38C77.3044 212.301 76.8916 212.165 76.4562 211.944C76.2414 211.836 76.0209 211.706 75.806 211.553C75.7042 211.48 75.5798 211.406 75.4668 211.265C75.348 211.14 75.2915 210.835 75.4441 210.659C75.5742 210.484 75.7891 210.421 75.953 210.421C76.1226 210.421 76.264 210.467 76.3884 210.501C76.6428 210.574 76.886 210.676 77.1008 210.784C77.5362 211.01 77.8868 211.282 78.1412 211.542C78.6557 212.068 78.8197 212.504 78.7801 212.521C78.7292 212.555 78.4805 212.187 77.949 211.746C77.6832 211.525 77.344 211.299 76.9369 211.112C76.7333 211.021 76.5128 210.936 76.2753 210.874C76.0322 210.795 75.823 210.784 75.7551 210.891C75.7325 210.931 75.7269 210.948 75.7721 211.021C75.823 211.089 75.9191 211.163 76.0209 211.236C76.2188 211.384 76.4223 211.508 76.6202 211.616C77.016 211.836 77.4005 211.995 77.7284 212.102C78.3956 212.329 78.831 212.38 78.8254 212.442Z" fill="#263238"/>
<path d="M78.6724 212.595C78.6328 212.612 78.4236 212.193 78.418 211.452C78.418 211.084 78.4745 210.642 78.6385 210.184C78.7233 209.952 78.8307 209.72 78.9721 209.488C79.1191 209.261 79.3 208.961 79.7467 208.933C79.9785 208.933 80.1595 209.126 80.216 209.284C80.2838 209.443 80.2952 209.584 80.3178 209.72C80.346 209.992 80.3291 210.263 80.2782 210.507C80.1821 210.999 79.9559 211.401 79.7241 211.69C79.2378 212.273 78.7572 212.386 78.7516 212.346C78.7176 212.29 79.1247 212.086 79.4979 211.525C79.6845 211.248 79.8541 210.88 79.922 210.444C79.9559 210.229 79.9616 210.003 79.9333 209.771C79.9107 209.522 79.8259 209.318 79.7297 209.341C79.6166 209.335 79.4074 209.51 79.3057 209.703C79.1756 209.907 79.0682 210.116 78.989 210.32C78.8251 210.733 78.7403 211.135 78.7063 211.475C78.6328 212.148 78.7346 212.584 78.6724 212.595Z" fill="#263238"/>
<path d="M126.574 44.5281C126.8 43.8546 126.772 43.1244 126.495 42.4679C125.528 40.1812 123.267 35.104 122.452 35.2512C121.729 35.3814 121.191 36.7624 122.017 38.285L119.354 36.0153C118.811 35.5512 117.974 36.0153 118.093 36.7172C118.138 37.0002 118.24 37.3341 118.421 37.7133C119.246 39.468 121.542 41.1321 121.542 41.1321L116.906 41.1604C116.906 41.1604 116.04 42.3716 117.629 43.1867C117.985 43.3678 118.381 43.4697 118.783 43.5093L121.18 43.7527C121.18 43.7527 116.849 48.5468 116.702 48.994C116.374 50.0015 116.318 51.2015 116.318 51.2015L108.006 60.4614L110.228 74.5325L125.245 48.5185L126.574 44.5281Z" fill="#FFBE9D"/>
<path d="M125.369 42.4058C125.329 42.4341 125.177 42.2134 124.849 41.9643C124.526 41.7153 124.001 41.4606 123.384 41.3474C122.762 41.2399 122.174 41.2568 121.75 41.2568C121.326 41.2625 121.055 41.2568 121.055 41.2172C121.049 41.1776 121.309 41.1097 121.739 41.0531C122.163 40.9965 122.774 40.9399 123.441 41.0587C124.108 41.1776 124.673 41.4889 124.99 41.8059C125.307 42.1228 125.397 42.3945 125.369 42.4058Z" fill="#AA6550"/>
<path d="M125.444 40.9624C125.393 41.0247 124.55 40.4473 123.555 39.6606C122.566 38.8795 121.802 38.1946 121.848 38.1267C121.899 38.0644 122.741 38.6417 123.736 39.4285C124.731 40.2096 125.495 40.8945 125.444 40.9624Z" fill="#AA6550"/>
<path d="M84.4494 110.345C84.5737 110.362 85.0035 138.057 85.1957 150.571C85.2522 154.505 84.2401 158.382 82.2668 161.784L55.2115 209.369L39.6738 196.418L64.8067 153.905L55.5564 109.088L73.876 93.3188L84.4494 110.345Z" fill="#3B4A51"/>
<path d="M97.5951 104.679C97.5159 106.275 82.8998 209.131 82.8998 209.131L64.8008 207.835L71.4388 104.034L97.5951 104.679Z" fill="#3B4A51"/>
<path d="M82.4413 111.901C82.4413 111.901 82.4583 111.991 82.4752 112.173C82.4922 112.365 82.5205 112.625 82.5487 112.965C82.6109 113.678 82.6958 114.703 82.8088 116.016C83.018 118.682 83.3177 122.519 83.6909 127.251C84.0414 132 84.4599 137.649 84.9235 143.92C85.0253 145.488 85.1327 147.101 85.2401 148.743C85.2797 149.563 85.3532 150.401 85.3249 151.244C85.3023 152.094 85.2232 152.943 85.0762 153.792C84.7935 155.495 84.2563 157.182 83.5043 158.795C83.1311 159.605 82.6788 160.38 82.2491 161.161C81.8137 161.942 81.3727 162.729 80.9316 163.521C73.8469 176.189 67.4407 187.656 62.793 195.971C60.4635 200.108 58.5806 203.459 57.2689 205.786C56.6186 206.935 56.1041 207.829 55.7535 208.446C55.5839 208.74 55.4482 208.967 55.3521 209.136C55.2616 209.289 55.2051 209.368 55.2051 209.368C55.2051 209.368 55.239 209.284 55.3238 209.125C55.4143 208.955 55.5387 208.723 55.697 208.423C56.0362 207.795 56.5338 206.895 57.1671 205.735C58.4619 203.397 60.3165 200.029 62.6121 195.875C67.2428 187.549 73.6264 176.07 80.6772 163.385C81.1182 162.593 81.5593 161.806 81.9946 161.025C82.43 160.238 82.8767 159.474 83.2442 158.676C83.9906 157.086 84.5164 155.427 84.7935 153.752C84.9348 152.914 85.0196 152.077 85.0366 151.244C85.0648 150.412 84.9913 149.586 84.9518 148.765C84.8443 147.124 84.7426 145.516 84.6408 143.949C84.1998 137.677 83.804 132.028 83.476 127.279C83.1424 122.542 82.871 118.704 82.6844 116.038C82.5996 114.72 82.5318 113.695 82.4809 112.982C82.4639 112.642 82.447 112.376 82.4357 112.184C82.4413 111.991 82.4413 111.901 82.4413 111.901Z" fill="#67818E"/>
<path d="M70.0704 160.539C70.0648 160.556 69.9347 160.539 69.7029 160.476C69.4711 160.426 69.1432 160.307 68.7587 160.126C67.984 159.763 66.9946 159.05 66.203 157.997C65.417 156.939 65.0156 155.79 64.8855 154.941C64.8177 154.516 64.7951 154.171 64.812 153.933C64.8233 153.696 64.8403 153.565 64.8573 153.565C64.9082 153.565 64.9082 154.092 65.0891 154.901C65.2644 155.711 65.6828 156.803 66.4348 157.822C67.1981 158.835 68.1254 159.543 68.8491 159.939C69.5842 160.341 70.0874 160.488 70.0704 160.539Z" fill="#67818E"/>
<path d="M72.1229 157.443C72.1229 157.471 71.6197 157.539 70.8055 157.437C69.9969 157.341 68.8887 157.03 67.8031 156.396C66.7231 155.756 65.9089 154.941 65.4283 154.284C64.9421 153.622 64.7498 153.152 64.7781 153.141C64.8233 153.118 65.0778 153.549 65.5866 154.154C66.0955 154.765 66.9041 155.524 67.9501 156.141C68.9961 156.752 70.0534 157.08 70.8394 157.233C71.6197 157.386 72.1229 157.392 72.1229 157.443Z" fill="#67818E"/>
<path d="M59.3683 113.384C59.391 113.367 59.4927 113.548 59.8037 113.684C60.109 113.826 60.6349 113.865 61.1777 113.588C61.7205 113.316 62.3029 112.824 62.9588 112.314C63.609 111.794 64.3044 111.199 64.9999 110.537C66.4022 109.224 67.533 107.9 68.3189 106.915C69.0992 105.924 69.5459 105.285 69.5855 105.307C69.6024 105.319 69.512 105.488 69.3254 105.794C69.1388 106.094 68.8561 106.524 68.4829 107.039C67.7365 108.064 66.617 109.422 65.2035 110.752C64.4967 111.42 63.7899 112.015 63.1284 112.524C62.4555 113.028 61.8675 113.497 61.2625 113.769C60.6575 114.047 60.0638 113.967 59.7472 113.78C59.4249 113.599 59.357 113.384 59.3683 113.384Z" fill="#67818E"/>
<path d="M69.4423 112.547C69.4762 112.564 69.2331 113.186 68.7299 114.143C68.221 115.088 67.4181 116.401 66.1233 117.477C64.8228 118.552 63.2849 118.999 62.188 118.982C61.6395 118.982 61.1985 118.897 60.9101 118.801C60.6218 118.705 60.4691 118.626 60.4748 118.609C60.4917 118.552 61.1193 118.824 62.1823 118.773C63.234 118.733 64.6871 118.28 65.9367 117.25C67.1806 116.214 67.9948 114.952 68.549 114.041C69.0918 113.118 69.3971 112.524 69.4423 112.547Z" fill="#67818E"/>
<path d="M97.5949 104.679C97.5949 104.679 83.6234 111.205 78.6195 108.958C73.6099 106.711 70.3304 101.526 66.7061 102.737C63.0818 103.948 57.552 104.984 55.6522 110.169C55.6522 110.169 54.4478 109.082 54.4478 106.914C54.4478 104.899 56.1441 102.165 56.1441 102.165L53.8711 78.8117L53.9672 39.5474C53.9672 39.5474 57.8573 33.7457 68.3911 34.091L82.9393 36.1852C82.9393 36.1852 90.3632 38.4323 92.4383 42.2359C94.5134 46.0395 93.6427 73.0724 93.6427 73.0724C93.6427 73.0724 98.2508 99.3128 98.2508 101.362C98.2452 103.405 97.5949 104.679 97.5949 104.679Z" fill="#EB763C"/>
<path d="M105.863 60.0429L99.8636 65.3974L92.4397 42.2305L86.2031 56.1827L88.7136 78.8063C89.115 82.4344 91.7442 85.423 95.2894 86.2833C98.0486 86.9512 100.961 86.2267 103.081 84.3419L109.419 78.9195C110.324 78.144 110.765 76.9554 110.578 75.7781L108.221 60.8806C108.034 59.7712 106.7 59.2958 105.863 60.0429Z" fill="#EB763C"/>
<path d="M60.4417 53.7713C60.4417 54.292 57.6542 79.5759 57.6542 79.5759L69.4658 105.16C68.3011 107.571 66.1185 109.761 63.6816 111.901C63.6816 111.901 60.6622 109.133 60.487 103.258C60.487 103.258 47.0639 87.4718 45.6786 83.3229C44.299 79.174 48.0986 50.8394 48.0986 50.8394L60.4417 53.7713Z" fill="#FFBE9D"/>
<path d="M90.4477 58.1807C90.4646 58.1921 90.3741 58.3732 90.2045 58.6958C90.0292 59.0184 89.7692 59.4769 89.4412 60.0373C89.102 60.5976 88.7514 61.2825 88.2312 61.9957C87.9655 62.3466 87.6375 62.6975 87.2135 62.9522C86.7894 63.207 86.2862 63.3598 85.766 63.3768C84.72 63.422 83.7701 63.0315 83.052 62.5164C82.3395 61.99 81.8363 61.3674 81.4518 60.8354C81.073 60.2976 80.8129 59.8392 80.632 59.5165C80.4567 59.1939 80.3719 59.0128 80.3888 59.0015C80.4341 58.9732 80.8468 59.675 81.6215 60.7052C82.0173 61.2146 82.5205 61.8032 83.2103 62.29C83.8888 62.7655 84.7935 63.1164 85.749 63.0768C86.224 63.0598 86.6763 62.9239 87.0608 62.6975C87.4453 62.4711 87.7506 62.1542 88.0107 61.8259C88.5196 61.1523 88.8984 60.4674 89.2546 59.9241C89.6052 59.375 89.8935 58.9335 90.0971 58.6279C90.312 58.3279 90.4307 58.1694 90.4477 58.1807Z" fill="#263238"/>
<path d="M99.1506 79.1568C99.1336 79.1625 99.0488 78.9814 98.9244 78.6417C98.7887 78.3078 98.636 77.8041 98.4777 77.1758C98.1554 75.9249 97.901 74.1306 97.9971 72.1496C98.0989 70.1685 98.5343 68.4082 98.9809 67.197C99.2015 66.5857 99.4107 66.1045 99.5746 65.7876C99.7386 65.465 99.8347 65.2895 99.8517 65.3008C99.8969 65.3234 99.5633 66.0479 99.1732 67.2649C98.7831 68.4818 98.3873 70.2195 98.2855 72.1666C98.1894 74.1193 98.4099 75.8796 98.6756 77.1305C98.9414 78.3814 99.2015 79.1398 99.1506 79.1568Z" fill="#263238"/>
<path d="M102.311 74.5156C102.282 74.5326 101.971 74.0854 101.576 73.2987C101.18 72.5176 100.716 71.3912 100.366 70.095C100.021 68.7988 99.8624 67.5876 99.8172 66.7102C99.772 65.8329 99.8116 65.2896 99.8455 65.2896C99.8907 65.2896 99.9246 65.8273 100.021 66.6876C100.117 67.5479 100.309 68.7366 100.648 70.0101C100.988 71.2893 101.417 72.41 101.762 73.2024C102.113 74.0118 102.35 74.4929 102.311 74.5156Z" fill="#263238"/>
<path d="M90.0593 62.9183C90.0706 62.9126 90.1158 62.9975 90.1893 63.1673C90.2628 63.3371 90.3646 63.5862 90.472 63.9201C90.6756 64.588 90.9187 65.5955 90.8395 66.8634C90.7773 68.1143 90.3193 69.6539 89.1828 70.9104C88.6174 71.533 87.8937 72.0821 87.0343 72.4217C86.1748 72.7613 85.1853 72.8518 84.2241 72.6594C83.2629 72.4669 82.3809 71.9972 81.7419 71.3179C81.103 70.6331 80.7525 69.784 80.5489 68.9746C80.3454 68.1596 80.2718 67.3728 80.2096 66.637C80.1531 65.9068 80.0966 65.2276 80.0513 64.605C79.9665 63.3937 79.893 62.3976 79.8421 61.6561C79.8252 61.3335 79.8139 61.0731 79.8025 60.8523C79.7969 60.6712 79.7969 60.5693 79.8082 60.5693C79.8195 60.5693 79.8365 60.6656 79.8647 60.8467C79.893 61.0618 79.9213 61.3278 79.9609 61.6448C80.04 62.3862 80.1418 63.3768 80.2662 64.5824C80.3284 65.205 80.3906 65.8842 80.4641 66.6144C80.5376 67.3389 80.6224 68.12 80.826 68.9011C81.0295 69.6822 81.3688 70.4802 81.9681 71.1142C82.5618 71.7481 83.393 72.1839 84.2976 72.3651C85.2023 72.5462 86.1352 72.4669 86.9438 72.15C87.758 71.8387 88.4535 71.3179 88.9963 70.7293C90.0988 69.535 90.5568 68.0634 90.6473 66.8464C90.7491 65.6182 90.5399 64.6163 90.3759 63.9484C90.1836 63.2862 90.0366 62.9296 90.0593 62.9183Z" fill="#263238"/>
<g opacity="0.2">
<g opacity="0.2">
<path opacity="0.2" d="M61.4416 87.7775C61.7808 85.5361 61.9787 84.5456 62.7929 82.4004C63.6071 80.2552 64.6645 78.1213 64.6984 75.8289C64.721 74.3856 64.3309 72.9649 63.9464 71.5725C62.5724 66.6199 61.1928 61.6616 59.8188 56.709C59.6662 60.5522 59.5079 64.3955 59.3552 68.2387C59.3156 69.1783 59.293 70.1801 59.7849 70.9782C60.3956 71.9744 61.6451 72.4102 62.3406 73.3498C62.8721 74.0686 63.0191 75.0592 62.7138 75.8969C62.4085 76.7346 61.6565 76.9553 60.7857 77.1647C60.1977 77.3062 60.1864 77.3119 59.587 77.4081C58.9933 77.5043 58.1395 77.3742 57.8681 77.9062C57.184 79.242 57.9134 80.0514 58.2017 80.6853C59.5135 83.606 61.4416 87.7775 61.4416 87.7775Z" fill="black"/>
</g>
</g>
<path d="M56.3981 37.5381C56.3981 37.5381 44.2247 43.702 42.5284 76.5761C42.4097 78.8401 44.4395 80.6174 46.6616 80.1986C51.6543 79.2477 59.2196 77.7817 59.1743 77.5779C59.1065 77.2723 62.0127 48.6433 62.0127 48.6433L56.3981 37.5381Z" fill="#EB763C"/>
<path d="M61.7881 48.1338C61.7994 48.1338 61.805 48.2866 61.805 48.5753C61.805 48.8639 61.805 49.2885 61.7881 49.8375C61.7655 50.9299 61.7033 52.5147 61.5676 54.4675C61.4375 56.4202 61.2396 58.7409 60.9682 61.3106C60.8269 62.5954 60.6742 63.9426 60.5159 65.3406C60.4311 66.0368 60.3463 66.75 60.2558 67.4688C60.1936 68.2046 59.9505 68.9235 59.8374 69.6423C59.7865 69.9989 59.7582 70.3612 59.8317 70.6894C59.9052 71.0121 60.0918 71.329 60.3236 71.5724C60.7873 72.0818 61.4771 72.3535 62.0142 72.8686C62.5684 73.3837 62.8171 74.1025 62.9359 74.7817C62.9924 75.127 63.015 75.4779 62.9641 75.8232C62.9189 76.1685 62.7945 76.5194 62.5344 76.7854C62.2743 77.0571 61.8785 77.1194 61.5902 77.1703C61.2792 77.2269 60.9795 77.2892 60.6799 77.3458C60.0805 77.4646 59.4981 77.5835 58.9384 77.6967C57.8188 77.9288 56.7671 78.1438 55.8116 78.342C53.9231 78.7325 52.3851 79.0551 51.2826 79.2815C51.0168 79.3325 50.7794 79.3834 50.5702 79.423C50.4684 79.4457 50.3723 79.4627 50.2874 79.4796L50.2535 79.4853H50.2479C50.2535 79.5023 50.2139 79.3551 50.2309 79.4174H50.2366L50.2535 79.4117L50.3157 79.4004C50.3553 79.3947 50.3892 79.3834 50.4288 79.3778C50.7115 79.3268 50.8585 79.3042 50.8642 79.3098C50.8642 79.3212 50.7228 79.3608 50.4401 79.4344C50.4062 79.4457 50.3666 79.4513 50.327 79.4627L50.2648 79.4796L50.2479 79.4853H50.2422C50.2535 79.5476 50.2196 79.4004 50.2253 79.4174H50.2309L50.2648 79.4117C50.3553 79.3891 50.4458 79.3664 50.5475 79.3438C50.7567 79.2929 50.9942 79.2363 51.2543 79.174C52.3512 78.9249 53.8835 78.574 55.7664 78.1438C56.7219 77.9344 57.7679 77.708 58.8875 77.4646C59.4529 77.3458 60.0296 77.2269 60.629 77.1024C60.9286 77.0401 61.234 76.9835 61.5449 76.9213C61.8672 76.8647 62.1443 76.8137 62.3478 76.6043C62.7436 76.1798 62.7662 75.4723 62.6588 74.844C62.5401 74.2044 62.3026 73.5478 61.8107 73.095C61.3301 72.6309 60.6346 72.3592 60.1031 71.7932C59.843 71.5045 59.6338 71.1762 59.5434 70.78C59.4529 70.3895 59.4868 69.9932 59.5434 69.6197C59.6621 68.8612 59.8996 68.1707 59.9618 67.4575C60.0522 66.7387 60.137 66.0255 60.2275 65.3293C60.3915 63.9312 60.5441 62.5898 60.6968 61.3049C60.9795 58.7352 61.2 56.4202 61.3584 54.4731C61.5167 52.5261 61.6128 50.9469 61.6693 49.8545C61.6976 49.3337 61.7202 48.9149 61.7372 48.5979C61.7655 48.2866 61.7824 48.1338 61.7881 48.1338Z" fill="#263238"/>
<path d="M56.784 68.2894C56.801 68.2951 56.7784 68.431 56.7105 68.68C56.6823 68.8045 56.637 68.9573 56.5635 69.1215C56.49 69.2913 56.4222 69.4894 56.3034 69.6818C56.0942 70.095 55.7832 70.5478 55.3761 71.0007C54.9634 71.4478 54.4489 71.8893 53.8552 72.2629C53.2502 72.6251 52.6282 72.8798 52.0458 73.0496C51.4578 73.2024 50.9093 73.2817 50.4513 73.2817C50.2195 73.2987 50.016 73.2704 49.835 73.259C49.6541 73.2477 49.5014 73.2194 49.377 73.1911C49.1283 73.1345 48.9926 73.1006 48.9982 73.0779C49.0095 73.0213 49.558 73.1345 50.4513 73.0779C50.8924 73.0553 51.4182 72.9591 51.978 72.7949C52.5377 72.6195 53.1314 72.3648 53.7138 72.0138C54.2849 71.6572 54.7825 71.2384 55.1896 70.8195C55.5853 70.3894 55.9076 69.9705 56.1338 69.58C56.5805 68.8158 56.7275 68.2725 56.784 68.2894Z" fill="#263238"/>
<g opacity="0.2">
<g opacity="0.2">
<path opacity="0.2" d="M69.901 97.6206C75.5609 100.977 82.4873 101.781 88.9952 100.79C90.0639 100.626 91.1495 100.411 92.0994 99.8903C93.0493 99.3695 93.8522 98.4866 94.0501 97.4224C94.2423 96.3527 93.6826 95.1301 92.6592 94.7848C91.6244 94.4339 90.5219 94.9999 89.5494 95.4923C83.4428 98.5771 76.1885 99.3073 69.5957 97.5074" fill="black"/>
</g>
</g>
<path d="M96.2663 98.1353C96.272 98.141 96.1871 98.2089 96.0232 98.3277C95.8535 98.441 95.6161 98.6277 95.2825 98.8145C94.6266 99.222 93.6258 99.7371 92.3197 100.207C89.7244 101.169 85.8343 101.713 81.6389 101.158C77.4435 100.603 73.8192 99.3126 71.2409 98.3617C69.9517 97.8749 68.917 97.4617 68.2046 97.1674C67.8766 97.0259 67.6052 96.9127 67.3847 96.8222C67.1981 96.7372 67.102 96.692 67.1077 96.6806C67.1133 96.6693 67.2151 96.6976 67.4073 96.7656C67.6278 96.8448 67.9049 96.941 68.2441 97.0599C69.0075 97.3372 70.0478 97.7108 71.3087 98.1636C73.8983 99.0692 77.517 100.314 81.6728 100.863C85.8287 101.413 89.6622 100.909 92.2462 100.009C93.541 99.573 94.5474 99.0919 95.2203 98.7126C95.8931 98.3447 96.2493 98.1127 96.2663 98.1353Z" fill="#263238"/>
<g opacity="0.2">
<g opacity="0.2">
<path opacity="0.2" d="M95.9441 86.3964C97.6516 84.6927 97.6573 81.6362 97.3011 79.2476C96.9449 76.859 96.0402 74.578 95.7179 72.1894C95.4126 69.9197 95.6331 67.6104 95.5313 65.318C95.4295 63.0257 94.9376 60.6371 93.4506 58.8994C92.5685 68.1141 93.4223 77.493 95.9441 86.3964Z" fill="black"/>
</g>
</g>
<g opacity="0.2">
<g opacity="0.2">
<path opacity="0.2" d="M79.8864 61.5259C79.6263 63.0371 79.8694 64.6107 79.7563 66.1502C79.6433 67.6898 79.5302 69.252 79.7733 70.7745C80.0164 72.3028 80.6384 73.814 81.7918 74.8498C82.9396 75.88 84.6755 76.3328 86.089 75.7215C87.5195 75.1045 88.3846 73.4631 88.2602 71.9066C87.2425 72.3877 86.0947 72.6424 84.9751 72.5292C83.85 72.416 82.7531 71.9235 81.9954 71.0858C80.8815 69.8576 80.4461 68.1539 80.3387 66.4955C80.2256 64.8484 80.0221 63.156 79.8864 61.5259Z" fill="black"/>
</g>
</g>
<path d="M60.9959 57.286C60.9959 57.3087 60.781 57.354 60.3852 57.4162C59.9894 57.4841 59.4184 57.5634 58.7059 57.6483C57.2867 57.8068 55.2852 57.9936 53.097 57.6596C50.9088 57.3257 49.0542 56.3974 47.9573 55.4465C47.4032 54.9767 47.0187 54.5296 46.7869 54.2013C46.5551 53.873 46.4477 53.6749 46.4646 53.6636C46.5155 53.6239 46.9735 54.405 48.093 55.2824C49.1956 56.1653 51.0049 57.037 53.1479 57.3653C55.2908 57.6936 57.2698 57.5408 58.6946 57.4389C59.3562 57.3823 59.9216 57.337 60.3852 57.2974C60.7697 57.2691 60.9959 57.2634 60.9959 57.286Z" fill="#FAFAFA"/>
<path d="M60.1993 61.6277C60.205 61.6447 59.9901 61.7239 59.6 61.8428C59.4021 61.905 59.1646 61.973 58.8763 62.0296C58.5935 62.0862 58.2713 62.1711 57.9037 62.2107C57.18 62.3296 56.3036 62.3918 55.3311 62.3805C54.3586 62.3522 53.2956 62.2503 52.193 62.0183C51.0961 61.7749 50.0783 61.4296 49.185 61.056C48.2973 60.6655 47.5226 60.2466 46.912 59.8391C46.5954 59.6523 46.3353 59.4429 46.1034 59.2731C45.866 59.1033 45.6737 58.9448 45.5211 58.8033C45.2101 58.5316 45.0518 58.3788 45.0631 58.3618C45.097 58.3165 45.7811 58.9108 47.0251 59.6636C47.6414 60.0429 48.4103 60.4334 49.2924 60.807C50.1801 61.1636 51.1809 61.4975 52.2552 61.7352C53.3352 61.9616 54.3812 62.0749 55.3367 62.1145C56.2923 62.1371 57.1574 62.0975 57.8755 62.0069C59.3173 61.8315 60.1824 61.5711 60.1993 61.6277Z" fill="#FAFAFA"/>
<path d="M79.4116 60.92C79.4116 60.9992 75.3066 60.9596 70.2518 60.8294C65.1913 60.6992 61.0977 60.5294 61.0977 60.4445C61.0977 60.3653 65.2026 60.4049 70.2574 60.5351C75.3123 60.6653 79.4116 60.8351 79.4116 60.92Z" fill="#FAFAFA"/>
<path d="M80.0003 65.4879C80.0059 65.5049 79.7402 65.5898 79.2483 65.7256C78.762 65.8614 78.0439 66.0256 77.1562 66.2011C75.3808 66.552 72.8873 66.8746 70.1168 66.9086C67.3462 66.9369 64.847 66.6652 63.0603 66.3482C62.167 66.1954 61.4489 66.0426 60.957 65.918C60.4651 65.7935 60.1937 65.7199 60.1993 65.6973C60.205 65.6747 60.482 65.7143 60.9796 65.8048C61.4772 65.8954 62.1952 66.0143 63.0886 66.1445C64.8753 66.4048 67.3575 66.6425 70.1111 66.6142C72.859 66.5803 75.3412 66.2916 77.1166 65.9973C78.0044 65.8501 78.7224 65.7143 79.22 65.6124C79.7176 65.5162 79.9946 65.4709 80.0003 65.4879Z" fill="#FAFAFA"/>
<path d="M90.6188 64.6503C90.6358 64.6559 90.5792 64.8144 90.4322 65.0691C90.2852 65.3295 90.0138 65.6691 89.6011 66.0087C88.7869 66.6936 87.3055 67.2539 85.6771 67.0841C84.0487 66.9086 82.7199 66.2238 81.8209 65.7087C80.9163 65.1823 80.3961 64.7918 80.4187 64.7635C80.4413 64.7238 81.0011 65.0521 81.9227 65.5276C82.8387 65.9917 84.1561 66.6256 85.711 66.7954C87.2659 66.9539 88.6738 66.4558 89.4823 65.8502C90.3022 65.2389 90.5623 64.6163 90.6188 64.6503Z" fill="#FAFAFA"/>
<path d="M93.168 61.1748C93.1849 61.2541 92.5347 61.4578 91.7149 61.6333C90.895 61.8088 90.2165 61.8823 90.1995 61.8031C90.1826 61.7239 90.8328 61.5201 91.6527 61.3446C92.4725 61.1692 93.151 61.0956 93.168 61.1748Z" fill="#FAFAFA"/>
<path d="M98.6355 61.3617C98.6694 61.4296 97.5329 62.1031 96.0063 62.6635C94.4796 63.2238 93.1735 63.4389 93.1565 63.3597C93.1339 63.2748 94.4005 62.9352 95.9045 62.3861C97.4085 61.8315 98.5959 61.2824 98.6355 61.3617Z" fill="#FAFAFA"/>
<path d="M96.8256 55.9333C96.8369 56.0182 96.0396 56.1767 95.0897 56.4427C94.1398 56.7144 93.3765 56.9918 93.3426 56.9125C93.3143 56.8446 94.0324 56.4371 95.0106 56.1597C95.9888 55.8881 96.8143 55.8598 96.8256 55.9333Z" fill="#FAFAFA"/>
<path d="M93.7501 53.8618C93.7614 53.8618 93.7558 53.9807 93.7388 54.1958C93.7162 54.4448 93.6879 54.7618 93.6596 55.1467C93.6144 55.5599 93.5748 56.0636 93.5352 56.6523C93.49 57.2409 93.4335 57.9088 93.3995 58.6446C93.3034 60.1219 93.2638 61.8879 93.2469 63.8463C93.2525 65.8047 93.3091 67.9556 93.4504 70.214C93.6031 72.4724 93.8236 74.6119 94.0667 76.5533C94.3325 78.4947 94.5982 80.2381 94.8866 81.6927C95.0166 82.4229 95.158 83.0795 95.2767 83.6568C95.3898 84.2341 95.4973 84.7322 95.5934 85.1341C95.6782 85.5133 95.7404 85.8246 95.7969 86.068C95.8422 86.2831 95.8591 86.3963 95.8478 86.3963C95.8365 86.3963 95.8026 86.2888 95.7404 86.0793C95.6725 85.8359 95.5877 85.5303 95.4859 85.1567C95.3729 84.7549 95.2485 84.2624 95.1184 83.6908C94.9827 83.1191 94.8301 82.4625 94.6887 81.7323C94.3777 80.2777 94.0894 78.5344 93.8066 76.5873C93.5466 74.6402 93.3147 72.4893 93.1677 70.2309C93.0264 67.9669 92.9811 65.8104 92.9868 63.8463C93.0151 61.8822 93.0773 60.1163 93.2016 58.6333C93.2469 57.8918 93.3204 57.2239 93.3769 56.6353C93.4335 56.0466 93.49 55.5429 93.5522 55.1297C93.6088 54.7448 93.654 54.4335 93.6879 54.1844C93.7162 53.975 93.7388 53.8618 93.7501 53.8618Z" fill="#263238"/>
<g opacity="0.2">
<g opacity="0.2">
<path opacity="0.2" d="M81.4141 60.5127C83.1047 61.6108 85.3607 61.7806 87.1927 60.9372C87.4132 60.8353 87.628 60.7221 87.8712 60.6882C88.1086 60.6542 88.38 60.7278 88.5101 60.9315C88.691 61.2089 88.5327 61.5825 88.3291 61.8428C87.498 62.9183 85.9657 63.2975 84.6483 62.9579C83.3365 62.6183 82.2452 61.656 81.5102 60.5127" fill="black"/>
</g>
</g>
<path d="M70.7952 12.1637C70.4956 10.8675 70.1902 9.56005 70.1507 8.22992C70.1111 6.89979 70.3486 5.52438 71.0553 4.39801C71.7621 3.27164 72.9947 2.42828 74.3234 2.39998C75.1433 2.383 75.9688 2.66601 76.7774 2.51884C77.7103 2.34904 78.4397 1.64152 79.2369 1.12645C80.4809 0.311388 81.9905 -0.0791612 83.4719 0.0227213C84.2466 0.0793227 85.0381 0.277427 85.6657 0.741559C86.2877 1.20569 86.7231 1.97547 86.6439 2.75091C87.5938 2.6094 88.555 2.46224 89.5049 2.56978C90.4605 2.67733 91.4161 3.06788 92.0154 3.82067C92.6147 4.57347 92.7504 5.72248 92.1794 6.49226C93.0275 6.18095 94.0509 6.71867 94.3902 7.55637C94.7294 8.39407 94.441 9.41289 93.8021 10.0525C93.1575 10.6921 91.8458 11.1279 90.9411 11.094C90.0364 11.06 88.9961 10.9638 88.1988 10.5336" fill="#263238"/>
<path d="M73.9622 42.1513C77.8919 43.057 81.7197 40.3005 82.1155 36.2874C82.3304 34.1366 82.517 32.297 82.5566 32.0367C82.5566 32.0367 87.9676 32.1385 88.9515 26.8803C89.9409 21.622 91.1453 9.35649 91.1453 9.35649C85.508 5.66608 78.3159 5.31515 72.3508 8.44521L71.463 8.90934L68.7999 34.946C68.4607 38.3024 70.6715 41.3929 73.9622 42.1513Z" fill="#FFBE9D"/>
<path d="M82.5796 31.963C82.5796 31.963 79.2041 31.6517 76.0547 28.8047C76.0547 28.8047 77.0159 32.8856 82.3535 33.3271L82.5796 31.963Z" fill="#AA6550"/>
<path d="M71.1632 14.4847C71.0784 14.4281 67.7311 12.781 67.2166 16.4035C66.7021 20.026 70.4395 19.7996 70.4621 19.6977C70.4847 19.5901 71.1632 14.4847 71.1632 14.4847Z" fill="#FFBE9D"/>
<path d="M69.5513 18.1636C69.5344 18.1523 69.4835 18.1976 69.3704 18.2315C69.2573 18.2655 69.0764 18.2711 68.8954 18.1749C68.5336 17.9825 68.2961 17.3259 68.3752 16.6693C68.4148 16.341 68.5279 16.0354 68.6806 15.792C68.8276 15.543 69.0255 15.3845 69.2234 15.3732C69.4213 15.3562 69.54 15.492 69.5683 15.5996C69.6022 15.7071 69.5683 15.775 69.5853 15.7863C69.5966 15.7977 69.6701 15.7354 69.6644 15.5826C69.6588 15.509 69.6305 15.4184 69.557 15.3335C69.4778 15.2486 69.3591 15.1977 69.2234 15.192C68.9407 15.1694 68.6523 15.3901 68.4827 15.6618C68.2961 15.9278 68.1604 16.2675 68.1208 16.641C68.0416 17.3768 68.3187 18.1127 68.8163 18.3391C69.0594 18.4409 69.2856 18.3957 69.4043 18.3277C69.5344 18.2485 69.5626 18.1749 69.5513 18.1636Z" fill="#AA6550"/>
<path d="M88.5047 17.4333C88.4482 17.8352 88.0637 18.1182 87.6453 18.0672C87.2269 18.0163 86.9328 17.654 86.9894 17.2522C87.0459 16.8503 87.4304 16.5673 87.8488 16.6182C88.2616 16.6692 88.5556 17.0314 88.5047 17.4333Z" fill="#263238"/>
<path d="M88.8551 16.5956C88.7421 16.6749 88.2502 16.1541 87.4416 16.0183C86.6331 15.8655 85.9659 16.1824 85.898 16.0636C85.8641 16.0126 85.9885 15.8541 86.2825 15.707C86.5709 15.5655 87.0345 15.4579 87.5377 15.5485C88.041 15.6391 88.4311 15.8994 88.6459 16.1315C88.8552 16.3692 88.906 16.5617 88.8551 16.5956Z" fill="#263238"/>
<path d="M80.6551 16.0349C80.5985 16.4367 80.2141 16.7197 79.7957 16.6688C79.3773 16.6179 79.0832 16.2556 79.1398 15.8537C79.1963 15.4519 79.5808 15.1689 79.9992 15.2198C80.412 15.2707 80.706 15.633 80.6551 16.0349Z" fill="#263238"/>
<path d="M80.8708 15.3559C80.7577 15.4351 80.2658 14.9144 79.4572 14.7785C78.6487 14.6257 77.9815 14.9427 77.9136 14.8238C77.8797 14.7729 78.0041 14.6144 78.2981 14.4672C78.5865 14.3257 79.0501 14.2182 79.5533 14.3087C80.0566 14.3993 80.4467 14.6597 80.6616 14.8917C80.8708 15.1238 80.9273 15.3163 80.8708 15.3559Z" fill="#263238"/>
<path d="M82.7598 21.8762C82.7655 21.8309 83.28 21.8309 84.1168 21.8705C84.326 21.8875 84.5296 21.8762 84.5918 21.746C84.6653 21.6045 84.62 21.3667 84.5635 21.1064C84.4561 20.5743 84.343 20.014 84.2299 19.4253C83.7719 17.0367 83.4836 15.084 83.5797 15.067C83.6758 15.05 84.1225 16.9745 84.5805 19.3631C84.6879 19.9517 84.7897 20.5121 84.8914 21.0498C84.931 21.2988 85.0158 21.5875 84.8575 21.8818C84.7727 22.029 84.6031 22.1139 84.4674 22.1252C84.326 22.1422 84.2129 22.1252 84.1055 22.1139C83.263 22.0063 82.7542 21.9214 82.7598 21.8762Z" fill="#263238"/>
<path d="M80.277 22.0181C80.4127 22.0351 80.26 22.9124 80.8989 23.6708C81.5379 24.4293 82.4934 24.4916 82.4765 24.6161C82.4765 24.6727 82.239 24.7519 81.8432 24.6897C81.453 24.6331 80.9102 24.4123 80.5144 23.9482C80.1243 23.484 80.0169 22.9407 80.0508 22.5728C80.0847 22.2049 80.2204 22.0011 80.277 22.0181Z" fill="#263238"/>
<path d="M88.803 15.1183C88.6278 15.2768 88.1019 14.9881 87.4347 14.8636C86.7732 14.7164 86.1738 14.7674 86.0777 14.5523C86.0381 14.4504 86.1569 14.2806 86.4396 14.1504C86.7166 14.0202 87.1464 13.9523 87.6044 14.0429C88.0623 14.1391 88.4299 14.3768 88.6334 14.6032C88.837 14.8353 88.8822 15.0391 88.803 15.1183Z" fill="#263238"/>
<path d="M80.3341 12.2428C80.2267 12.3277 80.0231 12.2485 79.763 12.1466C79.5029 12.0447 79.1693 11.9202 78.7848 11.8353C78.4004 11.7561 78.0498 11.7391 77.7671 11.7278C77.49 11.7164 77.2752 11.7051 77.2073 11.5863C77.1451 11.4787 77.2639 11.258 77.5862 11.0769C77.9028 10.8957 78.4286 10.7882 78.9771 10.9014C79.5312 11.0146 79.9666 11.3259 80.1814 11.6202C80.4133 11.9202 80.4359 12.1636 80.3341 12.2428Z" fill="#263238"/>
<path d="M91.1289 11.0205C91.1289 11.0205 87.3972 11.5866 83.5184 9.28288C80.974 7.77162 77.9377 6.89996 77.2196 7.38108C76.5015 7.86219 76.1623 10.5791 73.4822 11.1847C73.4822 11.1847 73.2843 16.3977 71.2262 16.0637C69.168 15.7298 71.0509 7.76596 71.0509 7.76596L76.298 5.66039L81.9069 5.01514L87.0862 5.39437L91.7961 7.22825L91.1289 11.0205Z" fill="#263238"/>
</g>
<defs>
<clipPath id="clip0_501_4952">
<rect width="150" height="224" fill="white"/>
</clipPath>
</defs>
</svg>
