<svg width="80" height="53" viewBox="0 0 80 53" fill="none" xmlns="http://www.w3.org/2000/svg">
<g id="Frame" clip-path="url(#clip0_501_5489)">
<g id="Group">
<g id="Group_2">
<path id="Vector" d="M32.1212 53.0002L65.1709 42.8226L57.907 36.6777L30.9521 46.4168L32.1212 53.0002Z" fill="#4E8F3D"/>
<path id="Vector_2" d="M62.7412 36.8291V42.591L32.5928 51.4378V46.1884L62.7412 36.8291Z" fill="#ECEFF2"/>
<path id="Vector_3" opacity="0.38" d="M32.5928 47.2445V46.1885L62.7412 36.9805V39.8861L32.5928 47.2445Z" fill="#D3DBE0"/>
<path id="Vector_4" d="M8.50293 15.7669L28.9611 43.4094L32.593 46.1885L63.6456 36.7057L39.5707 6.99121L8.50293 15.7669Z" fill="#27A857"/>
<path id="Vector_5" d="M32.121 53.0004L32.5928 46.1886L29.9229 42.9927L24.8662 45.1943L32.121 53.0004Z" fill="#4E8F3D"/>
<path id="Vector_6" d="M29.9237 48.5785L30.1429 46.6084L27.5917 44.0054L26.1943 44.6168L29.9237 48.5785Z" fill="#27A857"/>
<g id="Group_3">
<g id="Group_4">
<path id="Vector_7" d="M62.7418 39.1761C62.7662 39.2626 56.3608 41.3191 48.4333 43.7709C40.5027 46.2257 34.0577 48.1433 34.0303 48.0599C34.006 47.9765 40.4113 45.9169 48.3389 43.4652C56.2695 41.0103 62.7175 39.0897 62.7418 39.1761Z" fill="#A0927F"/>
</g>
</g>
<g id="Group_5">
<g id="Group_6">
<path id="Vector_8" d="M62.742 41.0535C62.745 41.0627 62.6476 41.0998 62.4588 41.1554C62.2701 41.214 61.993 41.2912 61.6308 41.39C60.9123 41.5876 59.8681 41.8625 58.5742 42.196C55.9774 42.8598 52.4154 43.7677 48.476 44.7743C44.5336 45.7871 40.9747 46.7382 38.4052 47.4515C37.1296 47.8066 36.0946 48.0938 35.3609 48.2976C35.0016 48.3964 34.7215 48.4705 34.5298 48.5199C34.338 48.5662 34.2375 48.5878 34.2344 48.5755C34.2314 48.5631 34.3258 48.523 34.5115 48.4581C34.6972 48.3902 34.9712 48.2976 35.3243 48.1802C36.0337 47.9425 37.0627 47.6182 38.3413 47.2353C40.8986 46.4665 44.4514 45.4784 48.3969 44.4625C52.3393 43.4496 55.9226 42.585 58.5194 41.9736C59.8163 41.6679 60.8697 41.4271 61.5973 41.2665C61.9626 41.1862 62.2457 41.1276 62.4375 41.0905C62.6384 41.0596 62.742 41.0442 62.742 41.0535Z" fill="#A0927F"/>
</g>
</g>
</g>
<g id="Group_7">
<path id="Vector_9" d="M0 21.6149L14.5856 50.0509L40.5693 38.7216L41.5952 41.0344L55.3862 36.9893L53.5627 34.2133L80 35.1397L56.8658 8.43896L0 21.6149Z" fill="#EB763C"/>
<path id="Vector_10" d="M51.9097 35.5999L50.2566 33.0555C50.2566 33.0555 68.261 29.1247 79.4308 31.3202C79.4308 31.3202 75.8994 24.3848 71.1106 23.5758C66.3248 22.7699 4.32921 14.6797 4.32921 14.6797L1.70801 15.7203L16.6376 42.5383C16.6376 42.5383 35.7837 34.2166 44.2166 34.3308L43.6473 37.7985L51.9097 35.5999Z" fill="#ACB8BF"/>
<path id="Vector_11" d="M77.2662 26.0089C77.2662 26.0089 58.9178 24.6225 46.6094 33.7533L55.8399 4.73975H59.9437L77.2662 26.0089Z" fill="#E3E8EC"/>
<path id="Vector_12" d="M2.50875 12.5987C2.04296 12.8087 18.4643 36.9866 18.4643 36.9866C18.4643 36.9866 37.1537 30.0513 46.6126 33.7505L35.3119 12.5987C35.3088 12.5987 14.1322 7.39873 2.50875 12.5987Z" fill="#D3DBE0"/>
<path id="Vector_13" d="M5.12695 9.70809L19.8282 32.1321C19.8282 32.1321 40.5695 26.0058 46.6096 34.2133L33.9602 10.7487C33.9602 10.7487 21.1982 3.23594 5.12695 9.70809Z" fill="#E3E8EC"/>
<path id="Vector_14" d="M6.49707 3.81346L21.5393 26.5864L23.9322 26.009C23.9322 26.009 36.6972 18.4962 46.1531 33.0586L33.9604 10.0571C33.9604 10.0571 26.2124 -3.00453 6.49707 3.81346Z" fill="#ECEFF2"/>
<path id="Vector_15" d="M54.3603 5.51537e-05C54.3603 5.51537e-05 37.9511 -0.114195 33.96 10.0572L46.6093 33.7534C46.6093 33.7534 55.8399 16.5294 69.8562 20.5775L54.3603 5.51537e-05Z" fill="#ECEFF2"/>
<path id="Vector_16" d="M1.70789 21.2197L15.5933 48.0903L40.5693 36.9894L42.1706 39.7036L54.5521 35.7234L55.3863 36.9894L41.5953 41.0345L40.5693 38.7217L14.5856 50.0511L0 21.615L1.70789 21.2197Z" fill="#B26539"/>
<path id="Vector_17" d="M54.144 35.0996L79.9998 36.4305V35.1397L53.5625 34.2134L54.144 35.0996Z" fill="#B26539"/>
<g id="Group_8">
<path id="Vector_18" d="M38.4048 14.4233C38.3804 14.4202 38.4139 14.1361 38.5479 13.639C38.7001 13.148 38.9984 12.4532 39.5464 11.7091C40.0883 10.9649 40.8768 10.1929 41.8541 9.4827C42.8283 8.76941 43.9821 8.12096 45.2425 7.55588C46.4998 6.98771 47.7388 6.54924 48.8805 6.2034C50.0191 5.85756 51.0603 5.59818 51.9401 5.41291C52.8199 5.22455 53.5384 5.10721 54.0346 5.04236C54.5339 4.97752 54.8109 4.96517 54.817 4.99296C54.8261 5.05163 53.7393 5.26469 52.0071 5.70934C50.2809 6.16634 47.8971 6.83641 45.4129 7.95113C42.9287 9.04423 40.8799 10.4955 39.7808 11.8943C39.2268 12.586 38.898 13.2345 38.7031 13.6945C38.5266 14.1639 38.4383 14.4325 38.4048 14.4233Z" fill="#B8AC98"/>
</g>
<g id="Group_9">
<path id="Vector_19" d="M39.7505 16.4955C39.7261 16.4925 39.7596 16.2084 39.8936 15.7112C40.0458 15.2203 40.3442 14.5255 40.8921 13.7813C41.434 13.0371 42.2225 12.2652 43.1998 11.555C44.174 10.8417 45.3278 10.1932 46.5882 9.62815C47.8455 9.05998 49.0845 8.6215 50.2262 8.27566C51.3648 7.92982 52.4059 7.67044 53.2858 7.48517C54.1656 7.29681 54.8841 7.17948 55.3803 7.11463C55.8796 7.04979 56.1566 7.03743 56.1627 7.06522C56.1718 7.12389 55.085 7.33696 53.3527 7.78161C51.6266 8.23861 49.2428 8.90559 46.7586 10.0234C44.2744 11.1165 42.2256 12.5678 41.1266 13.9666C40.5725 14.6583 40.2437 15.3067 40.0488 15.7668C39.8723 16.2362 39.784 16.5048 39.7505 16.4955Z" fill="#B8AC98"/>
</g>
<g id="Group_10">
<path id="Vector_20" d="M41.3423 19.1357C41.3179 19.1326 41.3514 18.8485 41.4854 18.3514C41.6376 17.8604 41.9359 17.1656 42.4839 16.4215C43.0258 15.6773 43.8143 14.9053 44.7916 14.1951C45.7658 13.4818 46.9196 12.8334 48.18 12.2683C49.4373 11.7001 50.6763 11.2616 51.818 10.9158C52.9566 10.57 53.9977 10.3106 54.8776 10.1253C55.7574 9.94004 56.4759 9.81961 56.9721 9.75477C57.4714 9.68992 57.7484 9.67757 57.7545 9.70536C57.7636 9.76403 56.6768 9.97709 54.9445 10.4217C53.2184 10.8787 50.8346 11.5488 48.3504 12.6635C45.8662 13.7566 43.8174 15.2079 42.7184 16.6067C42.1643 17.2984 41.8355 17.9469 41.6406 18.4069C41.4641 18.8732 41.3758 19.1449 41.3423 19.1357Z" fill="#B8AC98"/>
</g>
<g id="Group_11">
<path id="Vector_21" d="M43.2329 21.5903C43.2086 21.5872 43.2421 21.3031 43.376 20.806C43.5282 20.315 43.8266 19.6202 44.3746 18.876C44.9165 18.1319 45.7049 17.3599 46.6822 16.6497C47.6564 15.9364 48.8102 15.288 50.0706 14.7229C51.3279 14.1547 52.567 13.7162 53.7086 13.3704C54.8472 13.0246 55.8884 12.7652 56.7682 12.5799C57.648 12.3915 58.3665 12.2742 58.8627 12.2094C59.362 12.1445 59.639 12.1322 59.6451 12.16C59.6543 12.2186 58.5674 12.4317 56.8352 12.8763C55.109 13.3333 52.7253 14.0003 50.2411 15.1181C47.7569 16.2112 45.708 17.6625 44.609 19.0613C44.0549 19.753 43.7261 20.4014 43.5313 20.8615C43.3517 21.3309 43.2664 21.5995 43.2329 21.5903Z" fill="#B8AC98"/>
</g>
<g id="Group_12">
<path id="Vector_22" d="M45.355 24.4159C45.3306 24.4129 45.3641 24.1288 45.4981 23.6316C45.6503 23.1407 45.9486 22.4459 46.4966 21.7017C47.0385 20.9575 47.827 20.1856 48.8043 19.4754C49.7785 18.7621 50.9323 18.1136 52.1927 17.5486C53.45 16.9804 54.689 16.5419 55.8307 16.1961C56.9693 15.8502 58.0104 15.5909 58.8903 15.4056C59.7701 15.2203 60.4886 15.0999 60.9848 15.035C61.4841 14.9702 61.7611 14.9578 61.7672 14.9856C61.7763 15.0443 60.6895 15.2574 58.9572 15.702C57.2311 16.159 54.8473 16.8291 52.3631 17.9438C49.8789 19.0369 47.8301 20.4882 46.731 21.887C46.177 22.5787 45.8482 23.2271 45.6533 23.6872C45.4768 24.1535 45.3885 24.4221 45.355 24.4159Z" fill="#B8AC98"/>
</g>
<g id="Group_13">
<path id="Vector_23" d="M35.4027 15.0103C35.3601 15.0782 34.5016 14.5008 32.9916 13.8276C32.8028 13.7474 32.6049 13.6609 32.3979 13.5714C32.1909 13.4849 31.9687 13.4139 31.7403 13.3274C31.2898 13.1483 30.7905 13.0124 30.2699 12.8581C29.2196 12.5801 28.0445 12.3516 26.7963 12.2405C25.545 12.1417 24.3486 12.1726 23.2679 12.2683C22.729 12.3362 22.2145 12.3856 21.7396 12.4875C21.5021 12.5338 21.2707 12.5647 21.0516 12.6172C20.8324 12.6697 20.6253 12.7222 20.4244 12.7716C18.8261 13.1823 17.8854 13.6084 17.855 13.5343C17.8428 13.5065 18.0681 13.383 18.4912 13.1792C18.5978 13.1298 18.7165 13.0742 18.8444 13.0124C18.9753 12.9569 19.1214 12.9044 19.2767 12.8457C19.5903 12.7315 19.9404 12.5832 20.3453 12.4782C20.5462 12.4196 20.7593 12.3578 20.9785 12.2961C21.1977 12.2343 21.4351 12.1942 21.6756 12.1386C22.1567 12.0212 22.6803 11.9564 23.2283 11.8761C24.3303 11.7557 25.5542 11.7125 26.8328 11.8144C28.1084 11.9286 29.3109 12.1756 30.3765 12.4813C30.9062 12.6512 31.4115 12.8025 31.8652 13.0001C32.0935 13.0958 32.3188 13.173 32.5258 13.2718C32.7328 13.3706 32.9307 13.4664 33.1194 13.559C33.503 13.7319 33.8257 13.9357 34.1149 14.1025C34.258 14.1889 34.395 14.263 34.5138 14.3402C34.6294 14.4205 34.736 14.4946 34.8334 14.5626C35.214 14.825 35.4179 14.9856 35.4027 15.0103Z" fill="#B8AC98"/>
</g>
<g id="Group_14">
<path id="Vector_24" d="M36.1458 16.823C36.1215 16.8847 35.2112 16.5111 33.7256 15.9769C32.2429 15.4489 30.1606 14.7665 27.789 14.4947C25.4175 14.223 23.2407 14.5194 21.7551 14.9919C20.2573 15.455 19.4261 15.9954 19.3866 15.9275C19.3713 15.9059 19.5662 15.7484 19.9467 15.5106C20.3273 15.2729 20.9057 14.9764 21.6607 14.7016C23.1616 14.1396 25.4022 13.7845 27.8377 14.0624C30.2702 14.3403 32.3678 15.0845 33.8352 15.6897C35.3025 16.3042 36.1671 16.7736 36.1458 16.823Z" fill="#B8AC98"/>
</g>
<g id="Group_15">
<path id="Vector_25" d="M37.4825 19.3056C37.4429 19.3674 36.6362 18.8393 35.2144 18.2465C33.8019 17.6536 31.7378 17.0515 29.4027 16.9959C27.0677 16.9372 24.9762 17.4344 23.5362 17.9593C22.0902 18.4811 21.256 18.969 21.2225 18.9042C21.2073 18.8795 21.4021 18.7313 21.7735 18.5028C22.145 18.2743 22.7082 17.9747 23.4297 17.6752C24.8666 17.0669 27.0099 16.5049 29.4119 16.5667C31.8139 16.6253 33.9267 17.2923 35.3332 17.9686C36.0395 18.3051 36.5875 18.6294 36.9467 18.8795C37.3151 19.1234 37.4977 19.2809 37.4825 19.3056Z" fill="#B8AC98"/>
</g>
<g id="Group_16">
<path id="Vector_26" d="M33.2291 12.2065C33.1895 12.2683 32.3523 11.7094 30.9184 10.9806C30.2 10.6224 29.3293 10.2241 28.3246 9.90296C27.323 9.57874 26.1844 9.33171 24.9758 9.28848C22.5464 9.19584 20.3697 9.78871 18.8231 10.2025C17.2705 10.6348 16.3115 10.922 16.2902 10.8602C16.275 10.8077 17.1974 10.4217 18.7379 9.90914C19.5081 9.65902 20.4397 9.3842 21.4961 9.16496C22.5525 8.95499 23.7398 8.80368 24.9941 8.85618C26.2484 8.9025 27.4265 9.16805 28.4494 9.52315C29.4754 9.87517 30.3491 10.3106 31.0615 10.7089C31.7739 11.1103 32.3188 11.4778 32.6872 11.7464C33.0556 12.0151 33.2474 12.1818 33.2291 12.2065Z" fill="#B8AC98"/>
</g>
<g id="Group_17">
<path id="Vector_27" d="M31.2776 9.1493C31.2411 9.21414 30.3978 8.71391 28.9548 8.09325C28.7721 8.01605 28.5834 7.93886 28.3855 7.85548C28.1876 7.7752 27.9745 7.70418 27.7614 7.6239C27.3321 7.45715 26.8602 7.3182 26.3671 7.1638C25.3715 6.88281 24.2634 6.6296 23.0822 6.46286C21.901 6.30847 20.7654 6.25289 19.7303 6.25906C19.2128 6.27759 18.7226 6.28068 18.266 6.33008C18.0376 6.3517 17.8154 6.36096 17.6023 6.38566C17.3922 6.41345 17.1883 6.43816 16.9934 6.46286C15.4408 6.67283 14.497 6.92913 14.4788 6.85811C14.4696 6.83031 14.698 6.74077 15.1211 6.6049C15.3312 6.53388 15.593 6.45668 15.9005 6.38566C16.208 6.31464 16.555 6.21892 16.9478 6.16025C17.1426 6.12628 17.3496 6.09232 17.5627 6.05526C17.7758 6.0213 18.0011 6.00277 18.2355 5.97498C18.6983 5.91322 19.1976 5.89161 19.7242 5.86382C20.7745 5.83602 21.9344 5.87925 23.14 6.03674C24.3425 6.20657 25.472 6.47521 26.4797 6.784C26.979 6.95383 27.4569 7.10513 27.8862 7.29041C28.1023 7.37995 28.3155 7.45715 28.5133 7.54979C28.7112 7.64242 28.9 7.73197 29.0796 7.81534C29.4419 7.979 29.7554 8.16118 30.0325 8.31249C30.3126 8.46071 30.5409 8.60583 30.7266 8.73244C31.095 8.97638 31.2928 9.12459 31.2776 9.1493Z" fill="#B8AC98"/>
</g>
<g id="Group_18">
<path id="Vector_28" d="M53.1857 3.36264C53.1918 3.43675 52.1628 3.54482 50.5401 3.90919C50.3362 3.95551 50.1261 4.00491 49.9039 4.05741C49.6847 4.1099 49.4563 4.18092 49.2219 4.24268C48.747 4.36311 48.2538 4.53294 47.7302 4.69968C46.692 5.05787 45.5717 5.5087 44.4301 6.06452C43.2945 6.62959 42.2533 7.25025 41.334 7.85547C40.8803 8.17044 40.445 8.46069 40.0584 8.7633C39.8635 8.91152 39.6687 9.05048 39.4921 9.19252C39.3155 9.33765 39.1481 9.4766 38.9837 9.60629C37.699 10.6747 36.9775 11.4281 36.9257 11.3787C36.9044 11.3571 37.0657 11.1533 37.3763 10.7951C37.5285 10.616 37.7233 10.3999 37.9638 10.1652C38.2013 9.93051 38.4662 9.64952 38.7858 9.3747C38.9441 9.23266 39.1085 9.08753 39.282 8.93314C39.4556 8.78183 39.6474 8.63361 39.8392 8.47613C40.2197 8.155 40.6551 7.8493 41.1087 7.52199C42.0311 6.88897 43.0845 6.24979 44.2383 5.67545C45.3982 5.11037 46.5429 4.66572 47.6023 4.32296C48.1381 4.16548 48.6435 4.00491 49.1275 3.89993C49.368 3.84435 49.5994 3.7795 49.8247 3.73627C50.05 3.69304 50.2661 3.6529 50.4731 3.61276C50.8841 3.5263 51.2647 3.48924 51.5935 3.44292C51.9253 3.39661 52.2115 3.37499 52.4459 3.36264C52.9239 3.33485 53.1826 3.33485 53.1857 3.36264Z" fill="#B8AC98"/>
</g>
</g>
</g>
</g>
<defs>
<clipPath id="clip0_501_5489">
<rect width="80" height="53" fill="white"/>
</clipPath>
</defs>
</svg>
