<svg width="24" height="24" viewBox="0 0 25 28" fill="none" xmlns="http://www.w3.org/2000/svg">
<g id="Iconly/Bold/Notification">
<g id="Notification">
<path id="Notification_2" fill-rule="evenodd" clip-rule="evenodd" d="M18.7071 12.7963C18.7071 14.0523 19.039 14.7925 19.7695 15.6456C20.3231 16.2741 20.5 17.0808 20.5 17.956C20.5 18.8302 20.2128 19.6601 19.6373 20.3339C18.884 21.1417 17.8215 21.6573 16.7372 21.747C15.1659 21.8809 13.5937 21.9937 12.0005 21.9937C10.4063 21.9937 8.83505 21.9263 7.26375 21.747C6.17846 21.6573 5.11602 21.1417 4.36367 20.3339C3.78822 19.6601 3.5 18.8302 3.5 17.956C3.5 17.0808 3.6779 16.2741 4.23049 15.6456C4.98384 14.7925 5.29392 14.0523 5.29392 12.7963V12.3703C5.29392 10.6883 5.71333 9.58852 6.577 8.51186C7.86106 6.9417 9.91935 6 11.9558 6H12.0452C14.1254 6 16.2502 6.98702 17.5125 8.62466C18.3314 9.67916 18.7071 10.7327 18.7071 12.3703V12.7963ZM9.07365 24.0608C9.07365 23.5573 9.5358 23.3266 9.96316 23.2279C10.4631 23.1222 13.5093 23.1222 14.0092 23.2279C14.4365 23.3266 14.8987 23.5573 14.8987 24.0608C14.8738 24.5402 14.5926 24.9653 14.204 25.2352C13.7001 25.628 13.1087 25.8767 12.4905 25.9664C12.1487 26.0107 11.8127 26.0117 11.4828 25.9664C10.8636 25.8767 10.2722 25.628 9.76935 25.2342C9.37976 24.9653 9.0985 24.5402 9.07365 24.0608Z" fill="#27A857"/>
</g>
<path id="Vector" d="M21 8C23.2091 8 25 6.20914 25 4C25 1.79086 23.2091 0 21 0C18.7909 0 17 1.79086 17 4C17 6.20914 18.7909 8 21 8Z" fill="#EB5757"/>
</g>
</svg>
