<svg width="107" height="180" viewBox="0 0 107 180" fill="none" xmlns="http://www.w3.org/2000/svg">
<path d="M36.19 73.7025L49.7644 71.6856L43.2768 62.4771L39.7955 62.6825C37.453 62.8231 35.3912 64.2723 34.4629 66.4297C33.9717 67.5761 33.8314 68.8468 34.0689 70.0688L36.19 73.7025Z" fill="#EB763C"/>
<path opacity="0.4" d="M36.19 73.7025L49.7644 71.6856L43.2768 62.4771L39.7955 62.6825C37.453 62.8231 35.3912 64.2723 34.4629 66.4297C33.9717 67.5761 33.8314 68.8468 34.0689 70.0688L36.19 73.7025Z" fill="black"/>
<path d="M94.4916 88.7724C94.6319 89.1617 94.783 89.6213 94.9395 90.1729C95.0745 90.6487 95.1177 91.1408 95.0853 91.6274C95.0475 92.2222 94.9611 93.0117 94.7776 93.428C94.5563 93.9417 95.0745 94.4608 95.5117 94.2067C95.9489 93.9471 96.6019 92.5412 96.5588 90.7352C96.521 88.9238 98.3615 91.0921 99.0469 91.8707C99.7324 92.6494 101.967 94.9583 102.372 94.9366C102.965 94.9042 103.041 94.2607 102.339 93.4983C101.627 92.7251 99.6892 90.3026 100.116 89.962C100.537 89.6267 103.975 93.6335 103.975 93.6335C103.975 93.6335 104.568 94.6122 105.076 94.2283C105.993 93.5416 102.026 89.551 101.638 89.1779C101.368 88.9184 101.821 88.5291 102.096 88.821C102.377 89.1239 105.432 92.9035 106.371 92.2114C107.089 91.6815 103.138 88.8967 102.938 87.7612C102.739 86.6257 105.723 90.1783 106.387 89.6484C106.636 89.4483 106.792 89.2698 104.79 87.4746C103.818 86.6041 100.116 84.0086 100.116 84.0086L88.9755 52.0518L80.3721 56.9886L94.4916 88.7724Z" fill="#FFBE9D"/>
<path d="M28.1743 28.341L15.728 13.4602C15.5661 12.9466 15.3718 12.4491 15.1181 11.9787C14.4974 10.8161 13.4665 9.80494 12.1819 9.52377C11.3939 9.35073 10.4871 9.43184 9.87185 8.91275C9.59658 8.68024 9.40768 8.35039 9.12162 8.1341C8.83016 7.91781 8.34979 7.87456 8.16088 8.18818C8.03135 8.40987 8.11231 8.69105 8.21486 8.92897C8.67903 10.0266 9.42927 10.9999 10.3738 11.7245C9.20797 12.0814 7.54019 12.6167 7.54019 12.6167C7.54019 12.6167 4.90628 9.75628 3.56233 9.76709C2.21299 9.77791 4.6526 12.3193 4.6526 12.3193C4.6526 12.3193 2.49365 10.3186 1.82438 10.8864C1.15511 11.4487 2.87147 12.9303 2.87147 12.9303C2.32634 12.6383 1.73263 12.3355 1.12272 12.4383C0.512823 12.541 -0.0107212 13.2602 0.318518 13.7847C0.442657 13.9847 0.658552 14.1091 0.869049 14.2227C1.97551 14.8391 3.07657 15.4555 4.18303 16.0719C4.73896 16.3802 5.32187 16.6992 5.95336 16.7208C7.63194 16.7749 8.91112 15.7313 10.5951 15.7745C10.5951 15.7745 19.9811 35.5705 20.931 36.5925C21.881 37.6144 42.5043 39.0041 42.5043 39.0041L54.4379 28.7033L28.1743 28.341Z" fill="#FFBE9D"/>
<path d="M65.5614 136.178L78.2722 141.726L71.4661 157.607C69.9926 156.86 70.473 147.338 70.473 147.338L62.1826 144.121L65.5614 136.178Z" fill="#EB763C"/>
<g opacity="0.6">
<path opacity="0.6" d="M71.8921 142.126C72.108 141.855 72.5452 141.79 72.8205 141.996C73.1011 142.201 73.1713 142.645 72.9554 142.921C72.7449 143.196 72.2214 143.288 71.9677 143.056C71.714 142.823 71.66 142.293 71.9299 142.077" fill="white"/>
</g>
<path opacity="0.6" d="M78.2769 141.72L76.9762 141.212L70.9365 156.628C70.9365 156.628 70.9419 157.466 71.4709 157.601L78.2769 141.72Z" fill="white"/>
<path d="M70.2835 147.554C70.3645 147.587 70.5642 147.214 70.9744 146.938C71.3792 146.651 71.8002 146.603 71.8002 146.516C71.8164 146.44 71.3036 146.354 70.8125 146.695C70.3159 147.035 70.208 147.544 70.2835 147.554Z" fill="#263238"/>
<path d="M70.2566 149.517C70.3213 149.566 70.602 149.29 71.0392 149.166C71.4764 149.031 71.8596 149.117 71.8866 149.036C71.9297 148.966 71.498 148.717 70.9528 148.885C70.4131 149.041 70.1864 149.485 70.2566 149.517Z" fill="#263238"/>
<path d="M71.8436 151.318C71.8922 151.253 71.5521 150.983 71.0394 150.999C70.532 151.01 70.2082 151.307 70.2568 151.367C70.2999 151.437 70.6292 151.302 71.0502 151.291C71.4658 151.275 71.8004 151.394 71.8436 151.318Z" fill="#263238"/>
<path d="M68.4755 146.614C68.5619 146.614 68.6051 146.208 68.821 145.786C69.0315 145.354 69.3229 145.078 69.2743 145.008C69.2366 144.937 68.8102 145.148 68.5565 145.651C68.3082 146.154 68.4 146.625 68.4755 146.614Z" fill="#263238"/>
<path d="M66.759 145.424C66.7914 145.441 66.9695 145.154 67.0936 144.629C67.1584 144.37 67.2016 144.045 67.1962 143.689C67.1962 143.51 67.18 143.321 67.1476 143.126C67.1314 143.034 67.1206 142.926 67.0613 142.807C67.0181 142.688 66.8346 142.548 66.6672 142.596C66.5107 142.623 66.3974 142.748 66.3434 142.861C66.2894 142.975 66.2732 143.083 66.257 143.175C66.2247 143.37 66.2139 143.559 66.2139 143.743C66.2193 144.105 66.2894 144.429 66.3812 144.684C66.5647 145.197 66.7968 145.446 66.8238 145.43C66.8669 145.408 66.6996 145.122 66.5809 144.624C66.5215 144.375 66.4783 144.078 66.4837 143.743C66.4891 143.575 66.5053 143.402 66.5377 143.224C66.5647 143.034 66.6241 142.894 66.7212 142.883C66.759 142.877 66.7698 142.883 66.8022 142.937C66.8346 142.991 66.8454 143.078 66.8616 143.169C66.8939 143.348 66.9101 143.526 66.9209 143.694C66.9371 144.029 66.9209 144.337 66.8831 144.592C66.8238 145.1 66.7158 145.408 66.759 145.424Z" fill="#263238"/>
<path d="M66.9104 145.37C66.932 145.348 66.7215 145.073 66.2358 144.829C65.9929 144.71 65.6798 144.608 65.3182 144.564C65.1401 144.543 64.9458 144.543 64.7515 144.559C64.5572 144.586 64.2981 144.608 64.1308 144.894C64.0552 145.051 64.1254 145.229 64.2117 145.321C64.2981 145.419 64.3845 145.467 64.4654 145.527C64.6381 145.635 64.8217 145.711 64.9998 145.759C65.356 145.857 65.696 145.835 65.9659 145.77C66.511 145.635 66.7431 145.354 66.7161 145.338C66.6891 145.294 66.4247 145.5 65.9281 145.57C65.6852 145.603 65.383 145.597 65.0753 145.5C64.9242 145.451 64.7677 145.381 64.6219 145.289C64.4654 145.192 64.3575 145.067 64.4007 145.013C64.433 144.932 64.6166 144.856 64.7785 144.846C64.9566 144.824 65.1293 144.824 65.2912 144.835C65.6205 144.856 65.9119 144.932 66.1494 145.024C66.6298 145.202 66.8834 145.408 66.9104 145.37Z" fill="#263238"/>
<path d="M55.7715 157.991L61.0285 169.027L62.6747 178.955C62.7935 179.669 63.4897 180.134 64.1968 179.966C64.5908 179.874 64.9146 179.598 65.0657 179.22C66.0319 176.824 69.5456 167.983 69.1138 167.199C68.6172 166.291 64.3371 155.19 64.3371 155.19L55.7715 157.991Z" fill="#EB763C"/>
<path opacity="0.6" d="M64.2021 179.971L68.7845 166.453L68.995 166.924C69.1785 167.335 69.2109 167.794 69.0868 168.221C68.7521 169.373 67.7644 172.531 65.1035 179.209C64.947 179.598 64.607 179.885 64.2021 179.971Z" fill="white"/>
<g opacity="0.6">
<path opacity="0.6" d="M64.8821 163.885C64.6878 164.204 64.7903 164.669 65.098 164.874C65.4056 165.08 65.8806 164.982 66.0749 164.669C66.2746 164.355 66.172 163.793 65.8428 163.625C65.5136 163.457 64.963 163.598 64.8497 163.955" fill="white"/>
</g>
<path d="M64.5577 173.953C64.5092 174.012 63.9964 173.542 63.1922 173.526C62.388 173.488 61.8429 173.92 61.7997 173.855C61.7781 173.834 61.8806 173.682 62.1235 173.526C62.3664 173.369 62.755 173.239 63.203 173.255C63.6456 173.272 64.0288 173.434 64.2609 173.601C64.4876 173.774 64.5793 173.931 64.5577 173.953Z" fill="#263238"/>
<path d="M64.4339 175.802C64.4015 175.873 63.8833 175.673 63.2303 175.765C62.5772 175.846 62.1292 176.176 62.0806 176.116C62.0212 176.073 62.453 175.597 63.1979 175.5C63.9373 175.397 64.4771 175.748 64.4339 175.802Z" fill="#263238"/>
<path d="M65.1735 171.374C65.1465 171.449 64.3477 171.136 63.3222 171.195C62.2967 171.238 61.5356 171.628 61.4979 171.552C61.4547 171.498 62.2103 170.973 63.3114 170.925C64.407 170.865 65.2166 171.32 65.1735 171.374Z" fill="#263238"/>
<path d="M63.8563 167.886C63.8563 167.967 63.1277 167.984 62.3127 168.319C61.4923 168.638 60.9525 169.13 60.8986 169.07C60.8446 169.027 61.3357 168.416 62.2155 168.07C63.0899 167.713 63.8671 167.816 63.8563 167.886Z" fill="#263238"/>
<path d="M62.394 164.604C62.3886 164.685 61.6006 164.593 60.7748 165.009C59.9382 165.41 59.5334 166.091 59.4632 166.048C59.4362 166.031 59.4956 165.837 59.6845 165.572C59.8734 165.307 60.208 164.988 60.656 164.766C61.104 164.544 61.5628 164.474 61.8866 164.485C62.2105 164.501 62.3994 164.571 62.394 164.604Z" fill="#263238"/>
<path d="M60.5148 164.382C60.4986 164.388 60.4068 164.252 60.3097 163.966C60.2125 163.685 60.1153 163.252 60.1477 162.711C60.1747 162.452 60.1801 162.127 60.423 161.841C60.5417 161.695 60.79 161.625 60.9843 161.711C61.1786 161.798 61.3028 161.96 61.3837 162.133C61.6914 162.847 61.3891 163.804 60.6389 164.263C59.8779 164.712 58.9549 164.577 58.3612 164.112C58.2209 163.982 58.0859 163.814 58.0859 163.587C58.0859 163.36 58.2802 163.182 58.4476 163.139C58.7984 163.041 59.0952 163.139 59.3543 163.193C59.8779 163.328 60.2611 163.544 60.504 163.717C60.7468 163.89 60.8602 164.015 60.8494 164.025C60.8224 164.074 60.3204 163.604 59.3111 163.376C59.0629 163.333 58.7714 163.268 58.5231 163.349C58.4044 163.393 58.3234 163.479 58.3234 163.593C58.3234 163.701 58.4098 163.831 58.5231 163.928C59.0143 164.307 59.8617 164.425 60.4986 164.036C61.1354 163.658 61.3945 162.814 61.157 162.236C61.0977 162.1 61.0005 161.976 60.8872 161.927C60.7792 161.879 60.6605 161.906 60.5741 161.992C60.396 162.176 60.3582 162.479 60.3258 162.728C60.2395 163.755 60.5687 164.366 60.5148 164.382Z" fill="#263238"/>
<path d="M73.4902 137.524L59.0738 127.802L63.8451 80.8726L50.1898 72.8861L37.7057 69.9878C37.7057 69.9878 32.4918 80.8564 30.1709 87.8155C25.2378 102.615 21.778 107.914 22.5661 118.642C22.8143 122.038 35.3308 130.527 43.2326 135.248C43.3405 136.329 43.4808 137.276 43.6536 138.06C46.3522 150.291 54.594 166.55 54.594 166.55L67.1213 160.716L63.0787 146.846L67.2886 149.307L73.4902 137.524ZM42.5039 107.26L44.1879 99.7385C43.8317 104.524 43.5078 109.509 43.2757 114.295C42.4661 112.083 42.1855 109.628 42.5039 107.26Z" fill="#D6F5E1"/>
<path d="M54.5941 166.545C54.5887 166.545 54.5563 166.48 54.497 166.345C54.4322 166.199 54.3458 166.004 54.2379 165.755C54.0112 165.22 53.6874 164.452 53.2718 163.468C52.4406 161.478 51.2478 158.591 49.8175 155.006C48.3926 151.421 46.6924 147.149 44.9868 142.337C44.5604 141.131 44.1448 139.893 43.7508 138.611C43.5781 137.962 43.3568 137.324 43.2435 136.637C43.2111 136.47 43.1733 136.297 43.1463 136.129L43.0869 135.615C43.0492 135.275 43.0114 134.929 42.9736 134.583C42.8279 133.198 42.7037 131.793 42.6174 130.36C42.5742 129.646 42.531 128.921 42.504 128.191C42.477 127.467 42.4447 126.726 42.4878 125.991C42.6983 120.091 43.1949 114.506 43.5997 109.417C44.0261 104.335 44.4039 99.7546 44.7277 95.9046C45.0408 92.0601 45.2567 88.9455 45.3808 86.788C45.4456 85.712 45.4834 84.8738 45.5104 84.3061C45.5266 84.0303 45.5373 83.8194 45.5427 83.6626C45.5535 83.5166 45.5589 83.4409 45.5643 83.4409C45.5697 83.4409 45.5697 83.5166 45.5697 83.6626C45.5697 83.8194 45.5643 84.0357 45.5589 84.3115C45.5535 84.8792 45.5319 85.7174 45.478 86.7988C45.3862 88.9563 45.1973 92.0763 44.9113 95.9263C44.6036 99.7762 44.242 104.356 43.8426 109.444C43.4486 114.533 42.9628 120.129 42.7523 126.007C42.7091 126.742 42.7415 127.467 42.7685 128.191C42.7955 128.916 42.8333 129.635 42.8818 130.349C42.9736 131.776 43.0923 133.182 43.2327 134.561C43.2705 134.907 43.3082 135.248 43.346 135.588L43.4054 136.097C43.4324 136.264 43.4702 136.427 43.5025 136.594C43.6105 137.254 43.8264 137.897 43.9991 138.541C44.3877 139.817 44.7979 141.055 45.2243 142.256C46.9191 147.063 48.5977 151.34 50.001 154.936C51.4205 158.51 52.5755 161.408 53.3797 163.425C53.7737 164.414 54.0868 165.193 54.3027 165.734C54.3998 165.988 54.4808 166.188 54.5401 166.334C54.5779 166.469 54.5995 166.54 54.5941 166.545Z" fill="#455A64"/>
<path d="M44.96 81.8568C44.9492 81.873 44.8359 81.7757 44.6308 81.5918C44.4419 81.3918 44.2152 81.0619 44.0209 80.6131C43.6323 79.7101 43.438 78.3583 43.4056 76.8875C43.3786 75.4113 43.4865 74.0812 43.5837 73.1295C43.6808 72.1724 43.7618 71.583 43.7996 71.5884C43.8374 71.5884 43.8212 72.1886 43.7726 73.1457C43.724 74.1028 43.6485 75.4276 43.6754 76.8875C43.7024 78.3421 43.8697 79.6614 44.199 80.5482C44.3609 80.9916 44.5552 81.3215 44.7117 81.5323C44.8845 81.7216 44.9708 81.8406 44.96 81.8568Z" fill="#455A64"/>
<path d="M39.5728 70.6856C39.5998 70.6802 39.7293 71.1777 39.6808 71.9996C39.6376 72.8106 39.3569 73.957 38.6499 75.006C37.9374 76.055 36.9767 76.7309 36.2373 77.0716C35.4924 77.4176 34.9851 77.4771 34.9797 77.4501C34.9689 77.4068 35.4546 77.277 36.1509 76.8985C36.8472 76.5254 37.7485 75.8549 38.4286 74.8546C39.1086 73.8542 39.4055 72.7674 39.4973 71.9833C39.5836 71.1939 39.5242 70.691 39.5728 70.6856Z" fill="#455A64"/>
<path d="M61.9666 97.9702C61.972 97.9702 61.972 98.0189 61.9612 98.1108C61.9504 98.2189 61.9396 98.3595 61.9288 98.5272C61.891 98.9111 61.8371 99.4518 61.7669 100.128C61.6158 101.539 61.3945 103.545 61.1246 106.016C60.5633 111.002 59.7861 117.858 58.9279 125.428C58.5986 129.219 58.9279 132.869 59.6403 136.081C59.9912 137.692 60.4553 139.19 60.9465 140.574C61.4323 141.958 61.8856 143.251 62.2958 144.435C63.1108 146.781 63.7693 148.69 64.2335 150.031C64.4494 150.68 64.6221 151.188 64.7462 151.556C64.8002 151.718 64.838 151.848 64.8758 151.956C64.9028 152.048 64.9136 152.091 64.9082 152.097C64.9028 152.097 64.8812 152.054 64.8488 151.967C64.811 151.864 64.757 151.734 64.6977 151.578C64.5627 151.215 64.3738 150.707 64.1363 150.069C63.6506 148.733 62.9651 146.836 62.1177 144.5C61.6967 143.321 61.2326 142.034 60.736 140.65C60.234 139.265 59.7591 137.757 59.3975 136.14C58.6688 132.906 58.3288 129.23 58.6634 125.407C59.5054 117.815 60.342 110.964 60.9357 105.995C61.238 103.529 61.4862 101.523 61.659 100.117C61.7507 99.441 61.8209 98.9057 61.8694 98.5218C61.8964 98.3541 61.9126 98.2135 61.9288 98.1054C61.9558 98.0189 61.9666 97.9702 61.9666 97.9702Z" fill="#455A64"/>
<path d="M37.7061 69.8958L39.919 64.2344L44.9601 71.7721L38.235 70.085" fill="#FFBE9D"/>
<path d="M90.5032 52.8796L84.5176 39.4317C83.7997 37.2688 82.4612 36.9336 81.3331 35.6791L66.3339 27.2059C55.4042 22.7179 49.4509 37.7663 49.4509 37.7663L39.5144 60.4713C27.8291 64.3537 36.1032 73.3406 36.1032 73.3406C36.1032 73.3406 32.9242 67.8036 36.0493 65.8083C39.3201 63.7157 42.9525 69.2257 46.4392 74.4599C50.5574 80.635 63.932 84.6471 63.932 84.6471C65.4973 82.9925 65.0601 77.2122 66.2853 74.1084C66.6739 73.1243 75.9358 51.6305 75.9358 51.6305L79.525 60.347C79.525 60.347 84.129 54.9397 86.3581 54.08C88.5818 53.2256 90.5032 52.8796 90.5032 52.8796Z" fill="#EB763C"/>
<path d="M63.9263 62.4396C63.9371 62.4558 63.7752 62.5748 63.4729 62.7586C63.1653 62.9425 62.7065 63.1804 62.1074 63.4075C60.9199 63.8671 59.1226 64.2186 57.1796 63.9212C55.2311 63.6184 53.6281 62.737 52.635 61.9421C52.133 61.5474 51.766 61.1797 51.5285 60.9147C51.2911 60.6444 51.1777 60.4876 51.1939 60.4768C51.2317 60.4389 51.7336 61.0553 52.7537 61.7961C53.7576 62.5369 55.3337 63.3696 57.2282 63.6616C59.1226 63.9536 60.8714 63.64 62.0534 63.2344C63.2354 62.8235 63.8993 62.3909 63.9263 62.4396Z" fill="#263238"/>
<path d="M39.0657 41.1132L48.3222 41.9892L63.1325 26.3081L54.4212 26.0107L38.9092 27.5464C38.9092 27.541 40.2855 34.0135 39.0657 41.1132Z" fill="#EB763C"/>
<path d="M51.9231 32.8508C51.9339 32.8562 51.8907 32.9536 51.8098 33.1374C51.7126 33.3483 51.5885 33.6132 51.4373 33.9377C51.0973 34.6622 50.6331 35.6572 50.061 36.8738C48.9114 39.3611 47.3839 42.8218 45.7269 46.6609C44.0699 50.5001 42.5641 53.9769 41.4252 56.4697C40.8585 57.7187 40.3889 58.7245 40.0489 59.4112C39.887 59.7356 39.7574 59.9952 39.6549 60.2007C39.5631 60.3791 39.5092 60.471 39.5038 60.471C39.493 60.4656 39.5308 60.3683 39.6063 60.179C39.6981 59.9682 39.8114 59.6978 39.9517 59.368C40.2702 58.6326 40.7128 57.6268 41.2471 56.394C42.3428 53.8472 43.8325 50.3865 45.4733 46.5582C47.1302 42.719 48.6847 39.2638 49.8829 36.7981C50.4766 35.5652 50.9732 34.5703 51.3348 33.8944C51.5021 33.5754 51.6424 33.3212 51.7504 33.1158C51.8583 32.9373 51.9177 32.8454 51.9231 32.8508Z" fill="#263238"/>
<path d="M80.178 37.4092C80.205 37.4524 79.6275 37.7552 78.8448 38.4203C78.4508 38.7502 78.0245 39.1936 77.5927 39.7181C77.1771 40.2534 76.7669 40.8806 76.416 41.5836C76.0814 42.2919 75.8439 43.0003 75.682 43.66C75.5363 44.3251 75.4553 44.9307 75.4391 45.4444C75.4013 46.4717 75.5201 47.1098 75.4715 47.1206C75.4553 47.126 75.4121 46.9692 75.3582 46.6772C75.3258 46.5312 75.2988 46.3582 75.288 46.1473C75.2718 45.9418 75.2394 45.7039 75.2502 45.439C75.2394 44.9145 75.3042 44.2872 75.4391 43.6005C75.5902 42.9192 75.8277 42.1892 76.1732 41.4592C76.5294 40.7346 76.9558 40.0966 77.3984 39.5559C77.8517 39.026 78.2997 38.588 78.7207 38.2689C78.9204 38.0959 79.1255 37.9769 79.2982 37.858C79.4709 37.739 79.6275 37.6525 79.757 37.5876C80.0215 37.4579 80.1672 37.393 80.178 37.4092Z" fill="#263238"/>
<path d="M82.7639 15.872L74.0795 32.137C72.66 34.7919 69.4378 35.895 66.6905 34.6676C63.668 33.3157 62.4212 29.6821 63.9649 26.7513C64.7853 25.1995 65.4653 23.9342 65.4653 23.9342C65.4653 23.9342 61.6872 21.4847 63.4575 17.3968C65.0335 13.7523 70.8195 3.45692 72.0447 1.2832L79.3635 4.5654C83.4763 6.69586 85.0146 11.8165 82.7639 15.872Z" fill="#FFBE9D"/>
<path d="M65.4872 23.8691C65.4872 23.8691 67.9592 25.2264 71.4513 24.7343C71.4513 24.7343 68.8929 27.0973 65.0068 24.9181L65.4872 23.8691Z" fill="#EB996E"/>
<path d="M68.2775 10.8647C68.1317 11.1675 68.2613 11.5406 68.5743 11.7028C68.8874 11.865 69.2598 11.7515 69.4055 11.4487C69.5512 11.1459 69.4217 10.7728 69.1087 10.6106C68.7956 10.4483 68.4232 10.5619 68.2775 10.8647Z" fill="#263238"/>
<path d="M68.31 10.3454C68.3478 10.4536 68.9307 10.3238 69.5568 10.605C70.1829 10.8753 70.4959 11.4053 70.5985 11.3566C70.6471 11.3404 70.6363 11.1673 70.5013 10.9348C70.3718 10.7023 70.0965 10.4103 69.7079 10.2373C69.3193 10.0643 68.9253 10.0643 68.677 10.1237C68.4126 10.1886 68.2884 10.2968 68.31 10.3454Z" fill="#263238"/>
<path d="M74.1124 13.7412C73.9667 14.044 74.0962 14.4171 74.4093 14.5793C74.7223 14.7415 75.0948 14.628 75.2405 14.3251C75.3862 14.0223 75.2567 13.6492 74.9436 13.487C74.6306 13.3248 74.2582 13.4384 74.1124 13.7412Z" fill="#263238"/>
<path d="M74.3872 13.2112C74.4249 13.3193 75.0079 13.1895 75.634 13.4707C76.26 13.7411 76.5731 14.271 76.6756 14.2223C76.7242 14.2007 76.7134 14.0331 76.5785 13.8005C76.449 13.568 76.1737 13.276 75.7851 13.103C75.3965 12.93 75.0025 12.93 74.7542 12.9895C74.4897 13.0543 74.3656 13.1625 74.3872 13.2112Z" fill="#263238"/>
<path d="M70.0533 16.8287C70.0695 16.7963 69.7133 16.553 69.125 16.1907C68.9739 16.1042 68.8389 16.0014 68.8605 15.8825C68.8767 15.7527 69.017 15.6067 69.179 15.4553C69.5028 15.1363 69.8374 14.801 70.1937 14.4495C71.6186 13.0112 72.7304 11.8054 72.6711 11.7459C72.6117 11.6864 71.4081 12.8057 69.9832 14.2441C69.6377 14.6009 69.3031 14.9416 68.9847 15.266C68.8443 15.4228 68.65 15.5797 68.623 15.8554C68.6122 15.996 68.6932 16.1312 68.7796 16.2069C68.8659 16.2826 68.9577 16.3259 69.0332 16.3637C69.6431 16.6881 70.0372 16.8666 70.0533 16.8287Z" fill="#263238"/>
<path d="M71.694 18.0831C71.5968 18.029 71.2892 18.7104 70.4958 18.9321C69.7024 19.1538 69.0169 18.7536 68.9683 18.8509C68.9413 18.8888 69.0709 19.0564 69.3731 19.197C69.6646 19.343 70.1449 19.4403 70.6307 19.3052C71.1165 19.17 71.4457 18.8401 71.5914 18.5752C71.7426 18.3048 71.7426 18.0993 71.694 18.0831Z" fill="#263238"/>
<path d="M75.3206 10.6915C75.3044 10.8916 75.9629 11.0863 76.6591 11.5026C77.3608 11.9028 77.852 12.384 78.0193 12.2759C78.0948 12.2218 78.0625 12.0163 77.9005 11.7459C77.7386 11.4756 77.431 11.1511 77.0154 10.9024C76.5998 10.6591 76.1626 10.5455 75.8495 10.5347C75.5203 10.5239 75.326 10.5996 75.3206 10.6915Z" fill="#263238"/>
<path d="M69.3461 8.64227C69.3947 8.83153 69.8859 8.88019 70.4094 9.10189C70.9384 9.30736 71.3216 9.62639 71.4889 9.52365C71.5645 9.46958 71.5591 9.29655 71.4295 9.08026C71.3 8.86397 71.0355 8.60983 70.6739 8.46383C70.3123 8.31784 69.9506 8.30702 69.7024 8.37191C69.4541 8.43139 69.3299 8.55035 69.3461 8.64227Z" fill="#263238"/>
<path d="M80.0332 18.3105C80.1142 18.3105 83.1907 18.7323 81.8575 21.4738C80.5244 24.2153 78.0578 22.3119 78.0902 22.2308C78.1279 22.1497 80.0332 18.3105 80.0332 18.3105Z" fill="#FFBE9D"/>
<path d="M79.4344 21.5979C79.4506 21.5925 79.4668 21.652 79.5261 21.7331C79.5855 21.8088 79.7096 21.8953 79.877 21.9115C80.217 21.944 80.6812 21.6033 80.9348 21.1167C81.0644 20.8733 81.1237 20.6084 81.1345 20.3705C81.1507 20.1271 81.086 19.9271 80.9564 19.8297C80.8269 19.727 80.6812 19.7649 80.611 19.8243C80.5354 19.8838 80.53 19.9487 80.5138 19.9433C80.503 19.9487 80.4761 19.8676 80.5516 19.7649C80.5894 19.7162 80.6542 19.6675 80.7405 19.6459C80.8323 19.6243 80.9402 19.6459 81.0374 19.7054C81.2425 19.8243 81.3342 20.1109 81.3288 20.3705C81.3342 20.6408 81.2695 20.9382 81.1237 21.214C80.8377 21.7547 80.3033 22.1386 79.8554 22.0575C79.6395 22.0143 79.5045 21.8791 79.456 21.7709C79.4074 21.6682 79.4236 21.5979 79.4344 21.5979Z" fill="#EB996E"/>
<path d="M81.6199 18.9056C81.2421 18.6136 80.3353 18.6785 79.9791 18.9921C79.6229 19.3058 79.38 19.7383 79.0238 20.0574C78.6675 20.3764 78.1008 20.5494 77.723 20.2628C77.4639 20.0628 77.3776 19.6951 77.4262 19.3706C77.4801 19.0462 77.6474 18.7542 77.8202 18.473C78.565 17.251 79.4124 16.083 80.0439 14.8015C80.6808 13.52 81.1018 12.0763 80.9128 10.6542C80.7239 9.23205 79.8334 7.84779 78.484 7.37195C77.5935 7.05293 76.6004 7.15026 75.6882 6.8853C74.6087 6.57168 73.6966 5.73356 73.2918 4.67914C73.2378 4.54396 72.9355 4.06272 72.9355 4.06272C72.9679 3.99783 73.2864 3.44088 73.6102 3.33274C76.012 2.52165 79.272 3.4517 81.2637 5.02521C83.2553 6.59872 84.6478 9.12931 84.6748 11.6707C84.7018 14.2121 83.1042 17.0131 81.6199 18.9056Z" fill="#263238"/>
<path d="M81.6465 18.6351C82.4075 17.3427 83.6381 16.4019 84.5772 15.2339C85.5164 14.0659 86.1641 12.4167 85.4948 11.0757C85.2681 10.6161 84.9011 10.2322 84.7068 9.75637C84.5125 9.28053 84.5125 8.75062 84.4423 8.23693C84.2156 6.65801 83.2171 5.21428 81.83 4.43563C80.8692 3.90032 79.7628 3.67862 78.7859 3.16493C77.2422 2.35384 76.1142 0.845221 74.495 0.207165C73.9552 -0.00371739 73.3291 -0.106455 72.8164 0.1585C72.3036 0.423455 72.0284 1.16966 72.4008 1.61305C72.336 1.09395 71.6613 0.812777 71.1864 1.02366C70.7114 1.23995 70.4685 1.80771 70.5009 2.32681C70.5333 2.8459 70.7924 3.32715 71.0892 3.75973C72.0715 5.17102 73.5774 6.20921 75.2452 6.62557L78.9694 6.33358L82.0243 8.59921L84.2858 12.2058L80.1838 17.5428L81.6465 18.6351Z" fill="#263238"/>
</svg>
