<svg width="41" height="41" viewBox="0 0 41 41" fill="none" xmlns="http://www.w3.org/2000/svg">
<g id="open-book 1">
<g id="Group">
<g id="Group_2">
<path id="Vector" d="M39.0161 9.59473H1.98387C0.889931 9.59473 0 10.4847 0 11.5786V33.4012C0 34.4951 0.889931 35.385 1.98387 35.385H39.0161C40.1101 35.385 41 34.4951 41 33.4012V11.5786C41 10.4847 40.1101 9.59473 39.0161 9.59473Z" fill="#EB763C"/>
</g>
<g id="Group_3">
<path id="Vector_2" d="M22.4834 32.0786H18.5156V35.3851H22.4834V32.0786Z" fill="#E3001E"/>
</g>
<g id="Group_4">
<path id="Vector_3" d="M38.3728 30.0947V32.0786C38.3728 32.4438 38.0767 32.7399 37.7115 32.7399H3.32438C2.95918 32.7399 2.66309 32.4438 2.66309 32.0786V30.0947L6.61272 28.1108L22.4837 28.7721L35.7095 28.1108L38.3728 30.0947Z" fill="#C1C9D7"/>
</g>
<g id="Group_5">
<path id="Vector_4" d="M3.59088 31.0077C9.02495 28.7643 15.1704 28.9009 20.5179 31.4172V7.61072C14.9941 5.01143 8.61892 4.9515 3.05581 7.43085C2.81642 7.53756 2.66309 7.77984 2.66309 8.04196V30.4031C2.66309 30.8808 3.14938 31.1899 3.59088 31.0077Z" fill="#DADFE7"/>
</g>
<g id="Group_6">
<path id="Vector_5" d="M20.5186 31.4172C25.8661 28.9008 32.0115 28.7643 37.4456 31.0077C37.8871 31.1899 38.3734 30.8808 38.3734 30.4031V8.04196C38.3734 7.77984 38.2201 7.53756 37.9807 7.43085C32.4176 4.9515 26.0423 5.01143 20.5186 7.61072V31.4172Z" fill="#E8EBF0"/>
</g>
<g id="Group_7">
<g id="Group_8">
<path id="Vector_6" d="M23.1633 27.0986C22.8818 27.0986 22.6208 26.9177 22.5324 26.6353C22.4233 26.2869 22.6169 25.9156 22.965 25.8061C23.6341 25.5959 24.3225 25.4164 25.0116 25.272C25.3681 25.1971 25.7194 25.4254 25.7943 25.7835C25.8692 26.141 25.6406 26.4914 25.2828 26.5663C24.6357 26.7019 23.9893 26.8708 23.3615 27.068C23.2957 27.0886 23.2285 27.0986 23.1633 27.0986Z" fill="#CAC9CF"/>
</g>
</g>
<g id="Group_9">
<g id="Group_10">
<path id="Vector_7" d="M35.7277 27.0984C35.6625 27.0984 35.5953 27.0884 35.5295 27.0677C33.0342 26.2841 30.4477 25.9905 27.8445 26.1978C27.4751 26.2243 27.1619 25.9547 27.1329 25.5908C27.1045 25.2266 27.3758 24.9082 27.74 24.8791C30.5181 24.6608 33.2693 24.9715 35.926 25.8059C36.2741 25.9153 36.4678 26.2866 36.3586 26.635C36.2701 26.9176 36.0092 27.0984 35.7277 27.0984Z" fill="#CAC9CF"/>
</g>
</g>
<g id="Group_11">
<g id="Group_12">
<path id="Vector_8" d="M35.7278 24.4455C35.6625 24.4455 35.5953 24.4355 35.5295 24.4148C31.5489 23.1646 27.3422 23.1646 23.3615 24.4148C23.0116 24.5243 22.6408 24.3302 22.5324 23.9822C22.4233 23.6337 22.6169 23.2624 22.965 23.153C27.2053 21.8214 31.6858 21.8214 35.9261 23.153C36.2742 23.2624 36.4679 23.6337 36.3587 23.9822C36.2702 24.2647 36.0093 24.4455 35.7278 24.4455Z" fill="#CAC9CF"/>
</g>
</g>
<g id="Group_13">
<g id="Group_14">
<path id="Vector_9" d="M23.1633 21.8082C22.8818 21.8082 22.6208 21.6273 22.5324 21.3449C22.4233 20.9965 22.6169 20.6251 22.965 20.5157C25.399 19.7517 27.9247 19.4266 30.4691 19.5461C30.8333 19.5635 31.1155 19.8732 31.0981 20.238C31.0813 20.6036 30.7764 20.8825 30.4058 20.8673C28.0183 20.7547 25.6463 21.0601 23.3615 21.7776C23.2957 21.7982 23.2285 21.8082 23.1633 21.8082Z" fill="#CAC9CF"/>
</g>
</g>
<g id="Group_15">
<g id="Group_16">
<path id="Vector_10" d="M35.7279 21.8082C35.6627 21.8082 35.5955 21.7982 35.5297 21.7776C34.6941 21.515 33.8319 21.3045 32.9672 21.1521C32.6075 21.0885 32.3672 20.7456 32.4312 20.3859C32.4945 20.0265 32.8381 19.7859 33.1972 19.8496C34.1181 20.012 35.0357 20.2361 35.9263 20.5157C36.2744 20.6252 36.4681 20.9965 36.3589 21.3449C36.2703 21.6275 36.0095 21.8082 35.7279 21.8082Z" fill="#CAC9CF"/>
</g>
</g>
<g id="Group_17">
<g id="Group_18">
<path id="Vector_11" d="M35.7278 19.155C35.6625 19.155 35.5953 19.1449 35.5295 19.1243C31.5489 17.874 27.3422 17.874 23.3615 19.1243C23.0116 19.2331 22.6408 19.0394 22.5324 18.6916C22.4233 18.3432 22.6169 17.9719 22.965 17.8625C27.2053 16.5309 31.6858 16.5309 35.9261 17.8625C36.2742 17.9719 36.4679 18.3432 36.3587 18.6916C36.2702 18.9742 36.0093 19.155 35.7278 19.155Z" fill="#CAC9CF"/>
</g>
</g>
<g id="Group_19">
<g id="Group_20">
<path id="Vector_12" d="M23.1633 16.5099C22.8818 16.5099 22.6208 16.329 22.5324 16.0466C22.4233 15.6981 22.6169 15.3268 22.965 15.2174C24.2954 14.7995 25.6722 14.5096 27.0587 14.3559C27.4268 14.3117 27.749 14.5777 27.7891 14.94C27.8291 15.3029 27.5675 15.63 27.2046 15.67C25.9034 15.8147 24.6098 16.0869 23.3616 16.4792C23.2957 16.4998 23.2285 16.5099 23.1633 16.5099Z" fill="#CAC9CF"/>
</g>
</g>
<g id="Group_21">
<g id="Group_22">
<path id="Vector_13" d="M35.7276 16.51C35.6623 16.51 35.5951 16.5 35.5293 16.4793C33.6624 15.8926 31.7237 15.5794 29.7663 15.5487C29.4007 15.5429 29.1095 15.2423 29.1153 14.8771C29.1211 14.5122 29.4402 14.2048 29.7869 14.2261C31.8716 14.259 33.9374 14.5927 35.9259 15.2174C36.274 15.3269 36.4677 15.6982 36.3585 16.0466C36.2693 16.3291 36.0091 16.51 35.7276 16.51Z" fill="#CAC9CF"/>
</g>
</g>
<g id="Group_23">
<g id="Group_24">
<path id="Vector_14" d="M23.1633 13.8727C22.8818 13.8727 22.6208 13.6919 22.5324 13.4094C22.4233 13.061 22.6169 12.6897 22.965 12.5802C25.8465 11.6752 28.8288 11.3845 31.833 11.7187C32.196 11.7587 32.4575 12.0858 32.4174 12.4488C32.3774 12.8114 32.0571 13.0801 31.687 13.0329C28.8688 12.7203 26.0667 12.9919 23.3615 13.8421C23.2957 13.8627 23.2285 13.8727 23.1633 13.8727Z" fill="#CAC9CF"/>
</g>
</g>
<g id="Group_25">
<g id="Group_26">
<path id="Vector_15" d="M35.7282 13.8725C35.663 13.8725 35.5958 13.8625 35.53 13.8418C35.1102 13.7097 34.6795 13.5899 34.2488 13.485C33.8942 13.3985 33.6766 13.0407 33.7631 12.6859C33.8497 12.331 34.2049 12.114 34.5626 12.1999C35.0205 12.3117 35.479 12.4395 35.9265 12.58C36.2746 12.6894 36.4684 13.0607 36.3592 13.4092C36.2706 13.6917 36.0098 13.8725 35.7282 13.8725Z" fill="#CAC9CF"/>
</g>
</g>
<g id="Group_27">
<g id="Group_28">
<path id="Vector_16" d="M23.1633 11.2196C22.8818 11.2196 22.6208 11.0385 22.5324 10.756C22.4233 10.4072 22.6169 10.0362 22.9657 9.92713C23.4203 9.78438 23.8788 9.65683 24.3289 9.54739C24.6816 9.46051 25.0412 9.67882 25.1278 10.0337C25.2143 10.3885 24.996 10.7463 24.6415 10.8325C24.2192 10.9352 23.7884 11.055 23.3609 11.189C23.295 11.2095 23.2285 11.2196 23.1633 11.2196Z" fill="#CAC9CF"/>
</g>
</g>
<g id="Group_29">
<g id="Group_30">
<path id="Vector_17" d="M35.7279 11.2199C35.6627 11.2199 35.5955 11.2099 35.5297 11.1892C32.8239 10.3391 30.0231 10.0678 27.2042 10.3801C26.8386 10.4246 26.5138 10.1582 26.4738 9.79597C26.4338 9.433 26.6953 9.10591 27.0582 9.0659C30.0611 8.7317 33.044 9.02234 35.9262 9.9274C36.2743 10.0368 36.468 10.4082 36.3588 10.7566C36.2704 11.039 36.0095 11.2199 35.7279 11.2199Z" fill="#CAC9CF"/>
</g>
</g>
<g id="Group_31">
<g id="Group_32">
<path id="Vector_18" d="M5.30884 27.0986C5.02729 27.0986 4.76641 26.9177 4.67788 26.6353C4.56877 26.2869 4.76244 25.9156 5.11053 25.8061C5.77959 25.5959 6.468 25.4164 7.15706 25.272C7.51416 25.1971 7.86489 25.4254 7.93978 25.7835C8.01467 26.141 7.78611 26.4914 7.42827 26.5663C6.7812 26.7019 6.13479 26.8708 5.50706 27.068C5.44118 27.0886 5.37406 27.0986 5.30884 27.0986Z" fill="#B4B6BC"/>
</g>
</g>
<g id="Group_33">
<g id="Group_34">
<path id="Vector_19" d="M17.8732 27.0984C17.808 27.0984 17.7408 27.0884 17.675 27.0677C15.1803 26.2841 12.5932 25.9905 9.99004 26.1978C9.61551 26.2243 9.30743 25.9547 9.27841 25.5908C9.24998 25.2266 9.52127 24.9082 9.88548 24.8791C12.6636 24.6608 15.4141 24.9715 18.0715 25.8059C18.4196 25.9153 18.6134 26.2866 18.5042 26.635C18.4156 26.9176 18.1547 27.0984 17.8732 27.0984Z" fill="#B4B6BC"/>
</g>
</g>
<g id="Group_35">
<g id="Group_36">
<path id="Vector_20" d="M17.8733 24.4455C17.808 24.4455 17.7408 24.4355 17.675 24.4148C13.6944 23.1646 9.48769 23.1646 5.50706 24.4148C5.15575 24.5243 4.78633 24.3302 4.67788 23.9822C4.56877 23.6337 4.76244 23.2624 5.11053 23.153C9.35081 21.8214 13.8313 21.8214 18.0716 23.153C18.4197 23.2624 18.6134 23.6337 18.5042 23.9822C18.4157 24.2647 18.1548 24.4455 17.8733 24.4455Z" fill="#B4B6BC"/>
</g>
</g>
<g id="Group_37">
<g id="Group_38">
<path id="Vector_21" d="M5.30884 21.8082C5.02729 21.8082 4.76641 21.6273 4.67788 21.3449C4.56877 20.9965 4.76244 20.6251 5.11053 20.5157C7.54449 19.7517 10.0721 19.4266 12.6146 19.5461C12.9788 19.5635 13.261 19.8732 13.2436 20.238C13.2261 20.6036 12.9181 20.8825 12.5513 20.8673C10.1631 20.7547 7.79181 21.0601 5.50697 21.7776C5.44118 21.7982 5.37406 21.8082 5.30884 21.8082Z" fill="#B4B6BC"/>
</g>
</g>
<g id="Group_39">
<g id="Group_40">
<path id="Vector_22" d="M17.8724 21.8082C17.8072 21.8082 17.74 21.7982 17.6742 21.7776C16.8386 21.515 15.9764 21.3045 15.1117 21.1521C14.752 21.0885 14.5118 20.7456 14.5757 20.3859C14.6384 20.0265 14.9833 19.7859 15.3417 19.8496C16.2626 20.012 17.1802 20.2361 18.0708 20.5157C18.4189 20.6252 18.6127 20.9965 18.5035 21.3449C18.4149 21.6275 18.154 21.8082 17.8724 21.8082Z" fill="#B4B6BC"/>
</g>
</g>
<g id="Group_41">
<g id="Group_42">
<path id="Vector_23" d="M5.30884 19.1551C5.02729 19.1551 4.76641 18.9742 4.67788 18.6918C4.56877 18.3434 4.76244 17.9721 5.11053 17.8626C8.86972 16.6825 12.8807 16.551 16.707 17.4829C17.0622 17.5694 17.2798 17.9272 17.1933 18.282C17.1068 18.6366 16.7471 18.8526 16.3945 18.768C12.8013 17.892 9.03628 18.0163 5.50706 19.1245C5.44118 19.1451 5.37406 19.1551 5.30884 19.1551Z" fill="#B4B6BC"/>
</g>
</g>
<g id="Group_43">
<g id="Group_44">
<path id="Vector_24" d="M5.30884 16.5099C5.02729 16.5099 4.76641 16.329 4.67788 16.0466C4.56877 15.6981 4.76244 15.3268 5.11053 15.2174C6.44088 14.7995 7.81769 14.5096 9.20417 14.3559C9.56903 14.3117 9.89455 14.5777 9.93456 14.94C9.97457 15.3029 9.71303 15.63 9.35015 15.67C8.04889 15.8147 6.75532 16.0869 5.50706 16.4792C5.44118 16.4998 5.37406 16.5099 5.30884 16.5099Z" fill="#B4B6BC"/>
</g>
</g>
<g id="Group_45">
<g id="Group_46">
<path id="Vector_25" d="M16.5512 16.1416C16.4995 16.1416 16.4465 16.1355 16.3943 16.1228C14.9283 15.7657 13.4198 15.5723 11.9118 15.5487C11.5463 15.5429 11.255 15.2423 11.2608 14.8771C11.2666 14.5122 11.552 14.2048 11.9325 14.2261C13.5391 14.2517 15.1452 14.4573 16.7068 14.8377C17.062 14.9242 17.2796 15.282 17.1931 15.6368C17.1194 15.9391 16.8488 16.1416 16.5512 16.1416Z" fill="#B4B6BC"/>
</g>
</g>
<g id="Group_47">
<g id="Group_48">
<path id="Vector_26" d="M5.30884 13.8727C5.02729 13.8727 4.76641 13.6919 4.67788 13.4094C4.56877 13.061 4.76244 12.6897 5.11053 12.5802C7.99268 11.6752 10.9749 11.3845 13.9785 11.7187C14.3415 11.7587 14.603 12.0858 14.5629 12.4488C14.5229 12.8114 14.2 13.0801 13.8325 13.0329C11.0143 12.7203 8.21223 12.9919 5.50697 13.8421C5.44118 13.8627 5.37406 13.8727 5.30884 13.8727Z" fill="#B4B6BC"/>
</g>
</g>
<g id="Group_49">
<g id="Group_50">
<path id="Vector_27" d="M5.30786 11.2196C5.02631 11.2196 4.76543 11.0385 4.6769 10.756C4.56779 10.4072 4.76146 10.0362 5.11021 9.92713C5.56485 9.78438 6.02337 9.65683 6.47346 9.54739C6.82543 9.46051 7.18576 9.67882 7.2723 10.0337C7.35885 10.3885 7.14054 10.7463 6.78601 10.8325C6.36369 10.9352 5.93294 11.055 5.50542 11.189C5.43953 11.2095 5.37308 11.2196 5.30786 11.2196Z" fill="#B4B6BC"/>
</g>
</g>
<g id="Group_51">
<g id="Group_52">
<path id="Vector_28" d="M16.5506 10.8512C16.4989 10.8512 16.4459 10.845 16.3937 10.8324C14.0824 10.2695 11.7123 10.1181 9.34869 10.38C8.98573 10.4245 8.65831 10.1588 8.6183 9.7959C8.57829 9.43293 8.83983 9.10584 9.20271 9.06584C11.7193 8.78553 14.245 8.94829 16.7061 9.54725C17.0613 9.6338 17.279 9.99156 17.1924 10.3464C17.1188 10.6486 16.8482 10.8512 16.5506 10.8512Z" fill="#B4B6BC"/>
</g>
</g>
<g id="Group_53">
<path id="Vector_29" d="M16.5506 17.8602C16.5507 18.1242 16.845 18.2818 17.0647 18.1353L18.5345 17.1554L20.0043 18.1353C20.224 18.2818 20.5184 18.1243 20.5184 17.8602V7.66557C20.5184 7.40436 20.366 7.16323 20.1273 7.0571C19.0976 6.59915 18.0394 6.23189 16.9645 5.94795C16.7548 5.89256 16.5487 6.05475 16.5488 6.27165L16.5506 17.8602Z" fill="#27A857"/>
</g>
</g>
</g>
</svg>
