<svg width="41" height="41" viewBox="0 0 41 41" fill="none" xmlns="http://www.w3.org/2000/svg">
<g id="team 1" clip-path="url(#clip0_501_5451)">
<path id="Vector" d="M29.7578 18.1856V18.6497C29.7578 19.2183 29.8495 19.7832 30.0293 20.3226L31.0804 23.4759H33.0642V16.2017H31.7417C30.646 16.2017 29.7578 17.0899 29.7578 18.1856Z" fill="#5A4146"/>
<path id="Vector_2" d="M38.812 19.5593L37.693 23.4759L32.4026 18.847C31.6722 18.847 31.0801 18.2548 31.0801 17.5244C31.0801 16.4288 31.9683 15.5405 33.0639 15.5405H37.6929C38.4234 15.5405 39.0155 16.1327 39.0155 16.8631V18.1061C39.0156 18.5975 38.947 19.0866 38.812 19.5593Z" fill="#694B4B"/>
<path id="Vector_3" d="M36.3701 25.46H32.4023V28.3867H36.3701V25.46Z" fill="#E6AF78"/>
<path id="Vector_4" d="M32.4023 26.6742C33.0157 26.9234 33.6845 27.0637 34.3862 27.0637C35.0879 27.0637 35.7567 26.9234 36.3701 26.6742V25.4595H32.4023V26.6742Z" fill="#D29B6E"/>
<path id="Vector_5" d="M39.5603 27.9755L36.37 27.064L34.3863 28.3804L32.4024 27.064L29.2123 27.9755C28.3606 28.2189 27.7734 28.9973 27.7734 29.883V34.7178C27.7734 35.0831 28.0695 35.3791 28.4347 35.3791H40.3379C40.7032 35.3791 40.9992 35.0831 40.9992 34.7178V29.883C40.9992 28.9972 40.412 28.2189 39.5603 27.9755Z" fill="#EB763C"/>
<path id="Vector_6" d="M35.0491 35.3787H33.7266L34.0572 28.3862H34.7185L35.0491 35.3787Z" fill="#BFC8D0"/>
<path id="Vector_7" d="M34.3876 26.1211C32.1963 26.1211 30.4199 24.3446 30.4199 22.1534V21.3786C30.4199 21.0279 30.5593 20.6915 30.8073 20.4434L32.0064 19.2442C32.2604 18.9903 32.6076 18.8443 32.9665 18.8556C35.0804 18.9223 36.9515 19.3751 37.9743 20.3741C38.2247 20.6187 38.3554 20.9608 38.3554 21.3107V22.1534C38.3554 24.3447 36.579 26.1211 34.3876 26.1211Z" fill="#F0C087"/>
<path id="Vector_8" d="M32.4038 21.5427C32.4038 20.7799 33.0444 20.1735 33.8057 20.222C35.1407 20.3073 37.1217 20.5303 38.337 21.1149C38.2974 20.8359 38.1775 20.5725 37.9743 20.3741C36.9515 19.3751 35.0804 18.9223 32.9665 18.8556L32.9664 18.8557V18.8556C32.6076 18.8443 32.2603 18.9904 32.0064 19.2442L30.8073 20.4433C30.5593 20.6913 30.4199 21.0277 30.4199 21.3785V22.1533C30.4199 23.9627 31.6324 25.4862 33.2883 25.9633C32.7371 25.2833 32.4039 24.4201 32.4039 23.4759L32.4038 21.5427Z" fill="#E6AF78"/>
<path id="Vector_9" d="M38.3555 31.8536C38.3555 31.3274 38.5645 30.8228 38.9365 30.4508L40.6387 28.7485C40.8662 29.0737 41.0006 29.4652 41.0006 29.8832V34.718C41.0006 35.0832 40.7046 35.3792 40.3393 35.3792H38.3555V31.8536Z" fill="#E75D18"/>
<path id="Vector_10" d="M34.7185 29.7088H34.0572C33.8746 29.7088 33.7266 29.5607 33.7266 29.3782V28.3862H35.0491V29.3782C35.0491 29.5607 34.9011 29.7088 34.7185 29.7088Z" fill="white"/>
<g id="Group">
<path id="Vector_11" d="M34.3871 28.3802L33.2662 29.2364C33.0732 29.3839 32.794 29.3248 32.6773 29.1116L31.6719 27.2754L32.0766 26.6581C32.1664 26.5212 32.3577 26.4979 32.4777 26.6092L34.3871 28.3802Z" fill="#E75D18"/>
<path id="Vector_12" d="M34.3867 28.3802L35.5076 29.2364C35.7006 29.3839 35.9798 29.3248 36.0965 29.1116L37.1019 27.2754L36.6972 26.6581C36.6074 26.5212 36.4161 26.4979 36.2961 26.6092L34.3867 28.3802Z" fill="#E75D18"/>
</g>
<path id="Vector_13" d="M11.8365 25.8446C11.2714 24.3473 10.8232 21.7733 10.7264 20.4332C10.5422 17.883 8.62045 15.8042 6.02256 15.8042C3.42466 15.8042 1.50287 17.8831 1.31869 20.4332C1.22187 21.7732 0.773678 24.3473 0.208566 25.8446C0.0840449 26.1746 0.227785 26.5386 0.552822 26.6859C1.15837 26.9604 2.44947 27.498 4.00659 27.7074H8.03844C9.58828 27.4975 10.8884 26.9596 11.4922 26.6859C11.8173 26.5386 11.9611 26.1746 11.8365 25.8446Z" fill="#5A4146"/>
<path id="Vector_14" d="M11.4923 26.6864C11.8172 26.5391 11.9611 26.1751 11.8365 25.845C11.2714 24.3477 10.8231 21.7738 10.7264 20.4337C10.5423 17.8835 8.62044 15.8047 6.02262 15.8047C6.01606 15.8047 6.00957 15.8047 6.003 15.8048C4.00962 15.8129 3.30517 18.5314 5.02117 19.5458C5.12423 19.6067 5.19029 19.636 5.19029 19.636L6.69328 27.7079H8.03851C9.58834 27.4978 10.8885 26.96 11.4923 26.6864Z" fill="#694B4B"/>
<path id="Vector_15" d="M10.8065 29.0353L8.66654 27.9653C8.21842 27.7413 7.93534 27.2832 7.93542 26.7823L7.93558 24.7983H3.96771V26.7824C3.96771 27.2833 3.68471 27.7412 3.2366 27.9653L1.09659 29.0353C0.424494 29.3713 0 30.0582 0 30.8096V34.7175C0 35.0827 0.296049 35.3788 0.661285 35.3788H11.2419C11.6072 35.3788 11.9032 35.0827 11.9032 34.7175V30.8096C11.9032 30.0582 11.4786 29.3713 10.8065 29.0353Z" fill="#E6AF78"/>
<path id="Vector_16" d="M5.95129 27.4435C6.66334 27.4435 7.34537 27.2967 7.97062 27.0354C7.9542 26.952 7.93506 26.8692 7.93506 26.7823L7.93522 24.7983H3.96736V26.7824C3.96736 26.8697 3.94822 26.953 3.93164 27.0367C4.55729 27.2966 5.23899 27.4435 5.95129 27.4435Z" fill="#D29B6E"/>
<path id="Vector_17" d="M10.8065 29.0353L9.28202 28.273C8.57509 29.3647 7.34901 30.0886 5.95165 30.0886C4.55428 30.0886 3.32813 29.3647 2.6212 28.2729L1.09667 29.0353C0.424574 29.3713 0 30.0582 0 30.8096V34.7176C0 35.0828 0.296049 35.3788 0.661285 35.3788H11.2419C11.6072 35.3788 11.9032 35.0828 11.9032 34.7176V30.8097C11.9032 30.0582 11.4786 29.3713 10.8065 29.0353Z" fill="#EB763C"/>
<path id="Vector_18" d="M5.95239 26.1211C3.93506 26.1211 2.26944 24.6157 2.01759 22.667C1.98107 22.3846 2.11681 22.1078 2.37098 21.9796C2.67543 21.826 3.11786 21.567 3.54148 21.189C4.01322 20.7681 4.28997 20.3243 4.44628 19.9984C4.58089 19.7178 4.89031 19.5591 5.19189 19.6361C7.52024 20.2299 9.10538 21.4413 9.68051 21.9358C9.8349 22.0686 9.92386 22.2644 9.90801 22.4675C9.74777 24.5119 8.03802 26.1211 5.95239 26.1211Z" fill="#F0C087"/>
<path id="Vector_19" d="M9.6804 21.9354C9.10536 21.4408 7.52014 20.2294 5.19179 19.6356C4.89021 19.5586 4.58079 19.7173 4.44618 19.9979C4.32782 20.2447 4.13219 20.5591 3.84191 20.8801C3.84183 20.8809 3.84159 20.8815 3.84151 20.8823C3.75142 20.9844 3.65549 21.0868 3.54146 21.1886C3.11784 21.5667 2.67541 21.8256 2.37095 21.9792C2.11679 22.1074 1.98113 22.3843 2.01757 22.6666C2.24379 24.4167 3.61329 25.8098 5.35082 26.0755C4.55909 25.5369 3.96851 24.7961 3.96851 23.4757V22.5327C4.11874 22.4217 4.27001 22.3112 4.422 22.1755C4.78955 21.8475 5.11043 21.4682 5.36772 21.0598C7.1489 21.6156 8.35647 22.5414 8.81428 22.935C8.9396 23.0449 9.25063 23.3316 9.6145 23.673C9.77105 23.2962 9.87459 22.892 9.90783 22.4672C9.92376 22.264 9.83479 22.0682 9.6804 21.9354Z" fill="#E6AF78"/>
<path id="Vector_20" d="M0.403113 29.6177C0.148385 29.9558 0 30.3705 0 30.8097V34.7177C0 35.0829 0.296049 35.379 0.661285 35.379H2.64514V32.0469C2.64514 31.6452 2.46248 31.2651 2.14874 31.0142L0.403113 29.6177Z" fill="#E75D18"/>
<path id="Vector_21" d="M30.0004 28.1326L24.4674 26.1206L20.4997 27.4433L16.532 26.1207L10.999 28.1327C9.95369 28.5129 9.25781 29.5063 9.25781 30.6186V34.7175C9.25781 35.0826 9.55386 35.3788 9.9191 35.3788H31.0804C31.4456 35.3788 31.7417 35.0826 31.7417 34.7175V30.6186C31.7417 29.5062 31.0459 28.5128 30.0004 28.1326Z" fill="#27A857"/>
<path id="Vector_22" d="M19.8076 28.7661L19.1777 35.3789H21.8229L21.1931 28.7661H19.8076Z" fill="#707487"/>
<path id="Vector_23" d="M21.1953 29.6745H19.8067C19.551 29.6745 19.3438 29.4673 19.3438 29.2116V27.4434H21.6581V29.2116C21.6582 29.4672 21.4509 29.6745 21.1953 29.6745Z" fill="#5B5D6E"/>
<path id="Vector_24" d="M31.0293 28.8164C31.4759 29.2957 31.7411 29.934 31.7411 30.6186V34.7175C31.7411 35.0828 31.4451 35.3788 31.0799 35.3788H27.7734V33.168C27.7734 32.4664 28.0521 31.7936 28.5482 31.2976L31.0293 28.8164Z" fill="#218D49"/>
<path id="Vector_25" d="M27.775 12.4835V6.94366C27.775 6.21319 27.1828 5.62109 26.4524 5.62109H18.5169C15.5952 5.62109 13.2266 7.98964 13.2266 10.9115V12.4835C13.2266 13.1942 13.3412 13.9004 13.5659 14.5746L13.7861 15.235C13.8535 15.4373 13.8878 15.6491 13.8878 15.8624V16.2017H27.1136V15.8624C27.1136 15.6491 27.148 15.4373 27.2154 15.235L27.4356 14.5746C27.6604 13.9003 27.775 13.1942 27.775 12.4835Z" fill="#5A4146"/>
<path id="Vector_26" d="M16.5312 8.30755C16.5312 9.79124 17.734 10.994 19.2177 10.994H19.5897L19.7692 16.2017H27.1118V15.8623C27.1118 15.649 27.1462 15.4372 27.2136 15.235L27.4337 14.5745C27.6585 13.9003 27.7731 13.1942 27.7731 12.4834V6.94366C27.7731 6.21319 27.1809 5.62109 26.4505 5.62109H19.2177C17.734 5.62109 16.5312 6.82387 16.5312 8.30755Z" fill="#694B4B"/>
<path id="Vector_27" d="M24.467 21.4922H16.5312V27.4436H24.467V21.4922Z" fill="#E6AF78"/>
<path id="Vector_28" d="M16.5313 23.7278C17.6995 24.4045 19.052 24.7981 20.499 24.7981C21.9461 24.7981 23.2987 24.4045 24.4668 23.7278V21.4917H16.5312L16.5313 23.7278Z" fill="#D29B6E"/>
<g id="Group_2">
<path id="Vector_29" d="M20.4993 27.4432L18.3902 29.5523C18.1067 29.8357 17.6382 29.8038 17.3958 29.4844L15.209 26.6029L15.781 25.3975C15.9498 25.0418 16.3901 24.9114 16.7253 25.118L20.4993 27.4432Z" fill="#218D49"/>
<path id="Vector_30" d="M20.5 27.4432L22.6091 29.5523C22.8926 29.8357 23.3611 29.8038 23.6034 29.4844L25.7903 26.6029L25.2183 25.3975C25.0495 25.0418 24.6092 24.9114 24.274 25.118L20.5 27.4432Z" fill="#218D49"/>
</g>
<path id="Vector_31" d="M20.4996 23.4759C16.8474 23.4759 13.8867 20.5152 13.8867 16.863V16.0882C13.8867 15.7375 14.0261 15.4011 14.2741 15.153L14.8219 14.6052C15.0699 14.3572 15.2092 14.0208 15.2092 13.6699V12.0847C15.2092 11.7785 15.4148 11.5125 15.7128 11.4421C17.2768 11.0727 22.1437 10.1977 25.4558 12.6337C25.6709 12.7918 25.7898 13.0517 25.7898 13.3186V13.6699C25.7898 14.0207 25.9292 14.3571 26.1772 14.6052L26.725 15.153C26.973 15.401 27.1123 15.7374 27.1123 16.0882V16.863C27.1126 20.5152 24.1519 23.4759 20.4996 23.4759Z" fill="#F0C087"/>
<path id="Vector_32" d="M25.4559 12.6335C23.1265 10.9203 20.0322 10.8461 17.8545 11.0807C16.9359 11.1795 16.177 11.3324 15.713 11.442C15.415 11.5124 15.2094 11.7784 15.2094 12.0846V13.6697C15.2094 14.0206 15.07 14.357 14.822 14.605L14.2741 15.1529C14.0261 15.4009 13.8867 15.7373 13.8867 16.0882V16.8628C13.8867 20.2441 16.426 23.0276 19.7005 23.4228C18.5595 22.2346 17.8544 20.6243 17.8544 18.8467V14.0131C17.8544 13.3429 18.3528 12.7829 19.0176 12.6995C20.6046 12.5005 23.5113 12.3809 25.7898 13.6699V13.3185C25.79 13.0515 25.6709 12.7916 25.4559 12.6335Z" fill="#E6AF78"/>
<path id="Vector_33" d="M9.96963 28.8164C9.52311 29.2957 9.25781 29.934 9.25781 30.6186V34.7175C9.25781 35.0828 9.55386 35.3788 9.9191 35.3788H13.2255V33.168C13.2255 32.4664 12.9468 31.7936 12.4508 31.2976L9.96963 28.8164Z" fill="#218D49"/>
</g>
<defs>
<clipPath id="clip0_501_5451">
<rect width="41" height="41" fill="white"/>
</clipPath>
</defs>
</svg>
